<?xml version="1.0" encoding="UTF-8"?>
<svg id="Layer_1" data-name="Layer 1" xmlns="http://www.w3.org/2000/svg" viewBox="0 0 1350 368.41">
  <path d="M0,210.87V2.85h125.95v34.19H39.61v51.01h81.21v34.19H39.61v54.43h88.62v34.19H0Z"/>
  <path d="M149.69,210.87V56.14h31.35v38.18c6.65-28.68,24.31-43.03,53-43.03h1.71c18.42,0,32.39,5.98,41.89,17.95,9.5,11.97,14.25,29.64,14.25,53v88.62h-39.61v-92.04c0-9.5-2.76-17.19-8.26-23.08-5.51-5.89-12.92-8.83-22.23-8.83s-17.52,3.04-23.51,9.12c-5.98,6.08-8.98,14.06-8.98,23.94v90.9h-39.61Z"/>
  <path d="M378.87,212.86c-14.25,0-26.03-1.85-35.33-5.56-9.31-3.7-16.2-9.92-20.66-18.66-4.47-8.74-6.7-20.7-6.7-35.9v-67.53h-24.51v-29.07h24.51l.28-43.6h37.04l-.29,43.6h47.87v29.07h-47.87v70.1c0,7.6,2.04,13.44,6.13,17.52,4.08,4.09,9.92,6.13,17.52,6.13h24.22v33.91h-22.23Z"/>
  <path d="M485.99,216.28c-13.3,0-24.93-2.28-34.91-6.84-9.97-4.56-18.24-10.69-24.79-18.38-6.55-7.69-11.5-16.29-14.82-25.79-3.33-9.5-4.99-19.19-4.99-29.07v-5.41c0-10.26,1.66-20.13,4.99-29.64,3.32-9.5,8.26-18.05,14.82-25.65,6.55-7.6,14.68-13.63,24.36-18.09,9.69-4.46,20.9-6.7,33.62-6.7,16.71,0,30.68,3.66,41.89,10.97,11.21,7.32,19.71,16.91,25.5,28.78,5.79,11.87,8.69,24.65,8.69,38.33v14.25h-116.26c1.33,12.16,5.36,21.94,12.11,29.35,6.74,7.41,16.67,11.11,29.78,11.11,9.5,0,17.33-1.95,23.51-5.84,6.17-3.89,10.12-8.69,11.83-14.39h36.47c-3.42,15.96-11.5,28.78-24.22,38.47-12.73,9.69-28.59,14.53-47.59,14.53ZM484.28,83.49c-11.21,0-20.14,3.13-26.79,9.4-6.65,6.27-10.93,14.92-12.82,25.93h77.79c-1.52-11.02-5.46-19.66-11.83-25.93-6.37-6.27-15.15-9.4-26.36-9.4Z"/>
  <path d="M570.52,210.87V56.14h31.35v50.44c4.18-34.95,22.6-52.43,55.28-52.43h5.7v34.48h-10.83c-13.49,0-23.84,3.61-31.06,10.83s-10.83,17.48-10.83,30.78v80.64h-39.61Z"/>
  <path d="M676.03,267.86V54.2h21.66v41.83c5.13-14.63,13.11-25.36,23.94-32.2,10.83-6.84,22.98-10.26,36.48-10.26,14.82,0,27.68,3.61,38.61,10.83,10.92,7.22,19.42,16.77,25.5,28.64,6.08,11.87,9.12,24.93,9.12,39.18v5.13c0,14.25-3.14,27.31-9.4,39.18-6.27,11.87-14.96,21.42-26.07,28.64-11.11,7.22-23.89,10.83-38.33,10.83-10.45,0-20.52-2.19-30.21-6.55-9.69-4.37-17.67-11.49-23.94-21.37v79.79h-27.36ZM753.25,192.06c10.26,0,19.19-2.42,26.79-7.27,7.6-4.84,13.49-11.59,17.67-20.23,4.18-8.64,6.27-18.57,6.27-29.78s-2.09-21.37-6.27-29.92c-4.18-8.55-10.07-15.25-17.67-20.09-7.6-4.84-16.53-7.27-26.79-7.27-9.12,0-17.57,2.04-25.36,6.13-7.79,4.09-14.01,9.97-18.67,17.67-4.66,7.69-6.98,16.95-6.98,27.78v13.11c0,10.45,2.37,19.38,7.12,26.79,4.75,7.41,11.02,13.11,18.81,17.1,7.79,3.99,16.14,5.98,25.08,5.98Z"/>
  <path d="M855.35,210.87V58.7h21.66v45.59c2.28-16.34,8.26-28.3,17.95-35.9,9.69-7.6,22.89-11.4,39.61-11.4h5.13v24.51h-9.69c-15.2,0-26.88,4.04-35.05,12.11-8.17,8.08-12.25,19.71-12.25,34.91v82.35h-27.36Z"/>
  <path d="M973.93,210.87V80.36h-23.37v-21.66h50.72v152.17h-27.36ZM981.63,34.19c-6.08,0-10.59-1.61-13.54-4.84-2.95-3.23-4.42-7.31-4.42-12.25s1.47-9.02,4.42-12.25c2.94-3.23,7.45-4.84,13.54-4.84s10.59,1.62,13.53,4.84c2.94,3.23,4.42,7.32,4.42,12.25s-1.47,9.03-4.42,12.25c-2.95,3.23-7.46,4.84-13.53,4.84Z"/>
  <path d="M1081.43,215.43c-19.95,0-35.38-4.27-46.31-12.82-10.93-8.55-16.58-20.23-16.96-35.05h25.65c.38,5.89,3.37,11.45,8.98,16.67,5.6,5.23,15.15,7.84,28.64,7.84,12.16,0,21.46-2.42,27.93-7.27,6.46-4.84,9.69-10.78,9.69-17.81,0-6.27-2.38-11.16-7.12-14.68-4.75-3.51-12.44-5.84-23.08-6.98l-16.53-1.71c-14.44-1.52-26.22-5.84-35.33-12.97-9.12-7.12-13.68-17.14-13.68-30.06,0-14.63,5.41-26.02,16.24-34.19,10.83-8.17,24.79-12.25,41.89-12.25s30.96,3.8,41.6,11.4c10.64,7.6,16.15,18.9,16.53,33.91h-25.65c-.19-6.08-2.99-11.26-8.41-15.53-5.41-4.27-13.44-6.41-24.08-6.41s-18.71,2.19-24.22,6.55c-5.51,4.37-8.26,9.88-8.26,16.53,0,5.7,1.95,10.26,5.84,13.68,3.89,3.42,10.3,5.61,19.23,6.55l16.53,1.71c16.34,1.71,29.44,6.22,39.32,13.54,9.88,7.32,14.82,17.62,14.82,30.92,0,9.5-2.71,17.91-8.12,25.22-5.41,7.32-12.87,13.01-22.37,17.1-9.5,4.08-20.42,6.13-32.77,6.13Z"/>
  <path d="M1232.22,216c-13.3,0-24.79-2.28-34.48-6.84-9.69-4.56-17.57-10.59-23.65-18.09-6.08-7.5-10.59-15.91-13.54-25.22-2.95-9.31-4.42-18.81-4.42-28.5v-5.13c0-9.88,1.47-19.47,4.42-28.78,2.94-9.31,7.45-17.71,13.54-25.22,6.08-7.5,13.82-13.49,23.22-17.95,9.4-4.46,20.47-6.7,33.2-6.7,16.53,0,30.16,3.56,40.89,10.69,10.73,7.12,18.71,16.29,23.94,27.5,5.22,11.21,7.84,23.18,7.84,35.9v12.25h-120.82c.95,15.01,5.42,27.45,13.39,37.33,7.98,9.88,20.13,14.82,36.48,14.82,11.97,0,21.7-2.66,29.21-7.98,7.5-5.32,12.01-11.49,13.53-18.52h25.65c-3.23,15.77-10.93,28.12-23.08,37.04-12.16,8.93-27.26,13.39-45.31,13.39ZM1230.51,77.51c-13.68,0-24.41,3.85-32.2,11.54-7.79,7.69-12.73,17.81-14.82,30.35h92.9c-1.71-12.92-6.37-23.13-13.96-30.63-7.6-7.5-18.24-11.26-31.92-11.26Z"/>
  <path d="M1316.95,210.87v-34.76h33.05v34.76h-33.05Z"/>
</svg>