<?xml version="1.0" encoding="UTF-8"?>
<svg id="Layer_1" data-name="Layer 1" xmlns="http://www.w3.org/2000/svg" viewBox="0 0 1350 368.41">
  <g>
    <path d="M51.65,310.72c-1.17-3.21-2.86-6.04-5.06-8.47-2.21-2.43-4.84-4.35-7.89-5.75-3.05-1.4-6.43-2.09-10.13-2.09-3.96,0-7.58.86-10.86,2.58-3.28,1.72-5.93,4.37-7.94,7.94-.04.06-.06.14-.1.21v-28.06H.33v71.09h7.4v-10.79c.23.5.43,1.02.68,1.49,1.95,3.6,4.59,6.35,7.94,8.23,3.34,1.88,7.16,2.83,11.44,2.83,3.83,0,7.32-.72,10.47-2.14,3.15-1.43,5.86-3.39,8.13-5.89,2.27-2.5,4.01-5.37,5.21-8.62,1.2-3.24,1.8-6.72,1.8-10.42v-1.75c0-3.7-.59-7.16-1.75-10.37ZM41.91,332.24c-1.43,2.96-3.44,5.28-6.04,6.96-2.6,1.69-5.65,2.53-9.15,2.53-3.05,0-5.91-.68-8.57-2.05-2.67-1.36-4.81-3.31-6.43-5.84-1.63-2.53-2.43-5.58-2.43-9.16v-4.48c0-3.7.79-6.87,2.38-9.5s3.72-4.64,6.38-6.04c2.66-1.4,5.55-2.09,8.67-2.09,3.44,0,6.46.79,9.06,2.38,2.59,1.59,4.62,3.85,6.08,6.77,1.46,2.92,2.19,6.33,2.19,10.22s-.71,7.32-2.14,10.27Z"/>
    <path d="M94.79,296.16h9.15l-17.33,57.55c-1.04,3.44-2.5,6.25-4.38,8.42-1.88,2.17-4.17,3.76-6.87,4.77-2.7,1-5.83,1.51-9.4,1.51h-6.92v-8.37h7.5c2.21,0,4.07-.28,5.6-.83s2.79-1.48,3.8-2.78c1-1.3,1.83-3.02,2.48-5.16l1.27-4.29h-5.75l-18.6-50.83h9.54l15.09,43.04h2.03l12.78-43.04Z"/>
    <path d="M157.23,295.73h1.75v8.35h-3.3c-5.18,0-9.16,1.38-11.95,4.13-2.78,2.75-4.18,6.72-4.18,11.9v28.06h-9.32v-51.85h7.38v15.6c.66-4.69,2.19-8.33,4.61-10.89,3.33-3.53,8.33-5.29,15-5.29Z"/>
    <path d="M218.5,336.6c-4.14,3.04-9.26,4.56-15.34,4.56-4.34,0-8.13-.76-11.36-2.28-3.24-1.52-5.94-3.61-8.11-6.26-2.17-2.65-3.79-5.7-4.86-9.13-1.07-3.43-1.6-7.05-1.6-10.87,0-4.01.54-7.73,1.6-11.17,1.07-3.43,2.65-6.46,4.76-9.08,2.1-2.62,4.74-4.66,7.91-6.12,3.17-1.46,6.86-2.19,11.07-2.19,3.88,0,7.39.65,10.54,1.94,3.14,1.29,5.74,3.25,7.82,5.87,2.07,2.62,3.36,5.94,3.88,9.95h9.71c-.58-5.37-2.2-10.03-4.85-13.98-2.66-3.95-6.25-7.02-10.78-9.22-4.53-2.2-9.97-3.3-16.31-3.3s-11.56,1.07-16.02,3.2c-4.47,2.14-8.09,4.95-10.87,8.45-2.79,3.49-4.84,7.38-6.17,11.65-1.33,4.27-1.99,8.55-1.99,12.82v2.14c0,3.95.65,8.04,1.94,12.28,1.29,4.24,3.33,8.17,6.12,11.8,2.78,3.62,6.46,6.57,11.02,8.84,4.57,2.26,10.08,3.4,16.56,3.4s12.22-1.2,16.85-3.59c4.63-2.39,8.25-5.6,10.87-9.61,2.62-4.01,4.26-8.45,4.9-13.3h-9.71c-.91,5.76-3.43,10.16-7.57,13.2Z"/>
    <path d="M295.11,311.6c-1.23-3.2-3.05-6.08-5.44-8.64-2.4-2.56-5.31-4.59-8.74-6.12-3.43-1.52-7.35-2.28-11.75-2.28s-8.32.76-11.75,2.28c-3.43,1.52-6.34,3.56-8.74,6.12-2.4,2.56-4.21,5.44-5.44,8.64-1.23,3.2-1.84,6.46-1.84,9.76v1.75c0,3.3.6,6.54,1.8,9.71,1.2,3.17,2.98,6.04,5.34,8.59,2.36,2.56,5.26,4.61,8.69,6.17,3.43,1.55,7.41,2.33,11.94,2.33s8.51-.78,11.94-2.33c3.43-1.55,6.33-3.61,8.69-6.17,2.36-2.56,4.14-5.42,5.34-8.59,1.2-3.17,1.8-6.41,1.8-9.71v-1.75c0-3.3-.62-6.55-1.84-9.76ZM285.45,332.04c-1.46,2.91-3.56,5.23-6.31,6.94-2.75,1.72-6.07,2.57-9.95,2.57s-7.2-.86-9.95-2.57c-2.75-1.71-4.86-4.03-6.31-6.94-1.46-2.91-2.19-6.18-2.19-9.81s.74-6.99,2.23-9.9c1.49-2.91,3.62-5.21,6.41-6.89,2.78-1.68,6.05-2.53,9.81-2.53s7.1.84,9.86,2.53c2.75,1.68,4.87,3.98,6.36,6.89,1.49,2.91,2.23,6.21,2.23,9.9s-.73,6.89-2.19,9.81Z"/>
    <path d="M329.97,294.75h-.39c-4.34,0-7.93.92-10.78,2.77-2.85,1.85-4.97,4.53-6.36,8.06-.35.89-.66,1.84-.92,2.83v-12.11h-7.38v51.85h9.32v-30.98c0-4.21,1.26-7.57,3.79-10.1,2.53-2.53,5.83-3.79,9.91-3.79s7.05,1.21,9.32,3.64c2.26,2.43,3.4,5.65,3.4,9.66v31.56h9.32v-29.62c0-7.7-1.57-13.59-4.71-17.67-3.14-4.08-7.98-6.12-14.52-6.12Z"/>
    <path d="M365.41,280.38c-3.04,2.72-4.56,6.96-4.56,12.72v3.2h-7.19v6.99h7.19v44.86h8.93v-44.86h13.89v-6.99h-13.89v-4.76c0-2.33.65-4.16,1.94-5.49,1.29-1.33,3.14-1.99,5.53-1.99h7.38v-7.77h-5.82c-5.89,0-10.36,1.36-13.4,4.08Z"/>
    <g>
      <path d="M399.11,287.96c2.07,0,3.61-.55,4.61-1.65,1-1.1,1.51-2.49,1.51-4.18s-.5-3.07-1.51-4.18c-1-1.1-2.54-1.65-4.61-1.65s-3.61.55-4.61,1.65c-1,1.1-1.5,2.49-1.5,4.18s.5,3.08,1.5,4.18c1,1.1,2.54,1.65,4.61,1.65Z"/>
      <polygon points="396.49 296.31 388.91 296.31 388.91 303.69 396.49 303.69 396.49 348.16 405.81 348.16 405.81 303.69 405.81 296.31 396.49 296.31"/>
    </g>
    <path d="M457.95,296.31v10.04c-.15-.31-.27-.66-.44-.96-1.91-3.53-4.52-6.21-7.82-8.06-3.3-1.84-7.12-2.77-11.46-2.77-3.69,0-7.07.65-10.15,1.94-3.07,1.29-5.71,3.11-7.91,5.44-2.2,2.33-3.92,5.07-5.15,8.21-1.23,3.14-1.85,6.52-1.85,10.15v1.75c0,3.56.6,6.94,1.8,10.15,1.2,3.2,2.88,6.04,5.05,8.5,2.17,2.46,4.76,4.39,7.77,5.78,3.01,1.39,6.33,2.09,9.95,2.09,3.88,0,7.43-.86,10.63-2.57,3.2-1.71,5.81-4.3,7.82-7.77.07-.13.12-.27.19-.4v4.62c0,4.21-.63,7.65-1.89,10.34-1.26,2.68-3.3,4.66-6.12,5.92-2.82,1.26-6.59,1.89-11.31,1.89-2.27,0-4.68-.11-7.23-.34-2.56-.23-5-.5-7.33-.82v7.87c2.2.32,4.52.58,6.94.78,2.43.19,4.84.29,7.23.29,6.93,0,12.48-.91,16.65-2.72,4.18-1.81,7.22-4.65,9.13-8.5,1.91-3.85,2.86-8.88,2.86-15.1v-45.73h-7.38ZM456.39,322.91c0,3.56-.76,6.62-2.28,9.17-1.52,2.56-3.56,4.52-6.12,5.87-2.56,1.36-5.39,2.04-8.5,2.04-3.3,0-6.23-.76-8.79-2.28-2.56-1.52-4.57-3.7-6.02-6.55-1.46-2.85-2.19-6.18-2.19-10s.71-7.14,2.14-9.95c1.42-2.82,3.43-5,6.02-6.56,2.59-1.55,5.57-2.33,8.93-2.33,2.98,0,5.73.62,8.25,1.84,2.53,1.23,4.58,3.04,6.17,5.44,1.59,2.4,2.38,5.34,2.38,8.83v4.47Z"/>
  </g>
  <g>
    <path d="M0,210.87V2.85h125.95v34.19H39.61v51.01h81.21v34.19H39.61v54.43h88.62v34.19H0Z"/>
    <path d="M149.69,210.87V56.14h31.35v38.18c6.65-28.68,24.31-43.03,53-43.03h1.71c18.42,0,32.39,5.98,41.89,17.95,9.5,11.97,14.25,29.64,14.25,53v88.62h-39.61v-92.04c0-9.5-2.76-17.19-8.26-23.08-5.51-5.89-12.92-8.83-22.23-8.83s-17.52,3.04-23.51,9.12c-5.98,6.08-8.98,14.06-8.98,23.94v90.9h-39.61Z"/>
    <path d="M378.87,212.86c-14.25,0-26.03-1.85-35.33-5.56-9.31-3.7-16.2-9.92-20.66-18.66-4.47-8.74-6.7-20.7-6.7-35.9v-67.53h-24.51v-29.07h24.51l.28-43.6h37.04l-.29,43.6h47.87v29.07h-47.87v70.1c0,7.6,2.04,13.44,6.13,17.52,4.08,4.09,9.92,6.13,17.52,6.13h24.22v33.91h-22.23Z"/>
    <path d="M485.99,216.28c-13.3,0-24.93-2.28-34.91-6.84-9.97-4.56-18.24-10.69-24.79-18.38-6.55-7.69-11.5-16.29-14.82-25.79-3.33-9.5-4.99-19.19-4.99-29.07v-5.41c0-10.26,1.66-20.13,4.99-29.64,3.32-9.5,8.26-18.05,14.82-25.65,6.55-7.6,14.68-13.63,24.36-18.09,9.69-4.46,20.9-6.7,33.62-6.7,16.71,0,30.68,3.66,41.89,10.97,11.21,7.32,19.71,16.91,25.5,28.78,5.79,11.87,8.69,24.65,8.69,38.33v14.25h-116.26c1.33,12.16,5.36,21.94,12.11,29.35,6.74,7.41,16.67,11.11,29.78,11.11,9.5,0,17.33-1.95,23.51-5.84,6.17-3.89,10.12-8.69,11.83-14.39h36.47c-3.42,15.96-11.5,28.78-24.22,38.47-12.73,9.69-28.59,14.53-47.59,14.53ZM484.28,83.49c-11.21,0-20.14,3.13-26.79,9.4-6.65,6.27-10.93,14.92-12.82,25.93h77.79c-1.52-11.02-5.46-19.66-11.83-25.93-6.37-6.27-15.15-9.4-26.36-9.4Z"/>
    <path d="M570.52,210.87V56.14h31.35v50.44c4.18-34.95,22.6-52.43,55.28-52.43h5.7v34.48h-10.83c-13.49,0-23.84,3.61-31.06,10.83s-10.83,17.48-10.83,30.78v80.64h-39.61Z"/>
    <path d="M676.03,267.86V54.2h21.66v41.83c5.13-14.63,13.11-25.36,23.94-32.2,10.83-6.84,22.98-10.26,36.48-10.26,14.82,0,27.68,3.61,38.61,10.83,10.92,7.22,19.42,16.77,25.5,28.64,6.08,11.87,9.12,24.93,9.12,39.18v5.13c0,14.25-3.14,27.31-9.4,39.18-6.27,11.87-14.96,21.42-26.07,28.64-11.11,7.22-23.89,10.83-38.33,10.83-10.45,0-20.52-2.19-30.21-6.55-9.69-4.37-17.67-11.49-23.94-21.37v79.79h-27.36ZM753.25,192.06c10.26,0,19.19-2.42,26.79-7.27,7.6-4.84,13.49-11.59,17.67-20.23,4.18-8.64,6.27-18.57,6.27-29.78s-2.09-21.37-6.27-29.92c-4.18-8.55-10.07-15.25-17.67-20.09-7.6-4.84-16.53-7.27-26.79-7.27-9.12,0-17.57,2.04-25.36,6.13-7.79,4.09-14.01,9.97-18.67,17.67-4.66,7.69-6.98,16.95-6.98,27.78v13.11c0,10.45,2.37,19.38,7.12,26.79,4.75,7.41,11.02,13.11,18.81,17.1,7.79,3.99,16.14,5.98,25.08,5.98Z"/>
    <path d="M855.35,210.87V58.7h21.66v45.59c2.28-16.34,8.26-28.3,17.95-35.9,9.69-7.6,22.89-11.4,39.61-11.4h5.13v24.51h-9.69c-15.2,0-26.88,4.04-35.05,12.11-8.17,8.08-12.25,19.71-12.25,34.91v82.35h-27.36Z"/>
    <path d="M973.93,210.87V80.36h-23.37v-21.66h50.72v152.17h-27.36ZM981.63,34.19c-6.08,0-10.59-1.61-13.54-4.84-2.95-3.23-4.42-7.31-4.42-12.25s1.47-9.02,4.42-12.25c2.94-3.23,7.45-4.84,13.54-4.84s10.59,1.62,13.53,4.84c2.94,3.23,4.42,7.32,4.42,12.25s-1.47,9.03-4.42,12.25c-2.95,3.23-7.46,4.84-13.53,4.84Z"/>
    <path d="M1081.43,215.43c-19.95,0-35.38-4.27-46.31-12.82-10.93-8.55-16.58-20.23-16.96-35.05h25.65c.38,5.89,3.37,11.45,8.98,16.67,5.6,5.23,15.15,7.84,28.64,7.84,12.16,0,21.46-2.42,27.93-7.27,6.46-4.84,9.69-10.78,9.69-17.81,0-6.27-2.38-11.16-7.12-14.68-4.75-3.51-12.44-5.84-23.08-6.98l-16.53-1.71c-14.44-1.52-26.22-5.84-35.33-12.97-9.12-7.12-13.68-17.14-13.68-30.06,0-14.63,5.41-26.02,16.24-34.19,10.83-8.17,24.79-12.25,41.89-12.25s30.96,3.8,41.6,11.4c10.64,7.6,16.15,18.9,16.53,33.91h-25.65c-.19-6.08-2.99-11.26-8.41-15.53-5.41-4.27-13.44-6.41-24.08-6.41s-18.71,2.19-24.22,6.55c-5.51,4.37-8.26,9.88-8.26,16.53,0,5.7,1.95,10.26,5.84,13.68,3.89,3.42,10.3,5.61,19.23,6.55l16.53,1.71c16.34,1.71,29.44,6.22,39.32,13.54,9.88,7.32,14.82,17.62,14.82,30.92,0,9.5-2.71,17.91-8.12,25.22-5.41,7.32-12.87,13.01-22.37,17.1-9.5,4.08-20.42,6.13-32.77,6.13Z"/>
    <path d="M1232.22,216c-13.3,0-24.79-2.28-34.48-6.84-9.69-4.56-17.57-10.59-23.65-18.09-6.08-7.5-10.59-15.91-13.54-25.22-2.95-9.31-4.42-18.81-4.42-28.5v-5.13c0-9.88,1.47-19.47,4.42-28.78,2.94-9.31,7.45-17.71,13.54-25.22,6.08-7.5,13.82-13.49,23.22-17.95,9.4-4.46,20.47-6.7,33.2-6.7,16.53,0,30.16,3.56,40.89,10.69,10.73,7.12,18.71,16.29,23.94,27.5,5.22,11.21,7.84,23.18,7.84,35.9v12.25h-120.82c.95,15.01,5.42,27.45,13.39,37.33,7.98,9.88,20.13,14.82,36.48,14.82,11.97,0,21.7-2.66,29.21-7.98,7.5-5.32,12.01-11.49,13.53-18.52h25.65c-3.23,15.77-10.93,28.12-23.08,37.04-12.16,8.93-27.26,13.39-45.31,13.39ZM1230.51,77.51c-13.68,0-24.41,3.85-32.2,11.54-7.79,7.69-12.73,17.81-14.82,30.35h92.9c-1.71-12.92-6.37-23.13-13.96-30.63-7.6-7.5-18.24-11.26-31.92-11.26Z"/>
    <path d="M1316.95,210.87v-34.76h33.05v34.76h-33.05Z"/>
  </g>
</svg>