<?xml version="1.0" encoding="UTF-8"?>
<svg id="Layer_1" data-name="Layer 1" xmlns="http://www.w3.org/2000/svg" viewBox="0 0 1350 377.76">
  <defs>
    <style>
      .cls-1 {
        fill: #fff;
      }
    </style>
  </defs>
  <g>
    <polygon class="cls-1" points="462.02 257.14 392.81 57.44 420.44 57.44 480.35 233.07 490.47 233.07 545.45 57.44 572.26 57.44 507.98 257.14 462.02 257.14 462.02 257.14"/>
    <path class="cls-1" d="M724.91,177.26c0-12.22-2.51-23.71-7.52-34.47-5.02-10.76-12.68-19.56-22.98-26.4-10.3-6.84-23.39-10.26-39.26-10.26-12.22,0-22.84,2.14-31.87,6.43-9.03,4.29-16.46,10.03-22.3,17.23-5.84,7.2-10.17,15.27-12.99,24.21-2.83,8.94-4.24,18.15-4.24,27.63v4.92c0,9.3,1.41,18.42,4.24,27.36,2.83,8.94,7.16,17.01,12.99,24.21,5.84,7.2,13.4,12.99,22.71,17.37,9.3,4.38,20.33,6.57,33.1,6.57,17.33,0,31.82-4.29,43.5-12.86,11.67-8.57,19.06-20.43,22.16-35.56h-24.62c-1.46,6.75-5.79,12.68-12.99,17.78-7.2,5.11-16.55,7.66-28.04,7.66-15.68,0-27.36-4.74-35.02-14.22-7.66-9.48-11.95-21.43-12.86-35.84h115.99v-11.76ZM610.01,169.33c2.01-12.04,6.75-21.75,14.23-29.13,7.48-7.39,17.78-11.08,30.91-11.08s23.34,3.6,30.64,10.81c7.29,7.2,11.76,17.01,13.4,29.41h-89.18Z"/>
    <path class="cls-1" d="M824.76,262.07c-12.58,0-23.48-2.19-32.69-6.57-9.21-4.38-16.82-10.26-22.84-17.64-6.02-7.39-10.53-15.55-13.54-24.48-3.01-8.94-4.51-17.87-4.51-26.81v-4.92c0-9.3,1.5-18.42,4.51-27.36,3.01-8.94,7.57-17.01,13.68-24.21,6.11-7.2,13.72-12.99,22.84-17.37,9.12-4.38,19.79-6.57,32.01-6.57s23.21,2.28,32.96,6.84c9.76,4.56,17.6,10.99,23.53,19.29,5.93,8.3,9.26,18.1,9.98,29.41h-25.17c-1.28-9.12-5.47-16.73-12.58-22.84-7.11-6.11-16.69-9.16-28.72-9.16-10.4,0-19.06,2.37-25.99,7.11-6.93,4.74-12.13,11.22-15.59,19.42-3.47,8.21-5.2,17.51-5.2,27.9s1.73,19.19,5.2,27.49c3.46,8.3,8.71,14.86,15.73,19.7,7.02,4.83,15.82,7.25,26.4,7.25,12.22,0,22.07-3.15,29.55-9.44,7.48-6.29,11.76-14.09,12.86-23.39h25.17c-.55,11.49-3.88,21.43-9.98,29.82-6.11,8.39-14.13,14.91-24.07,19.56-9.94,4.65-21.11,6.98-33.51,6.98h0Z"/>
    <path class="cls-1" d="M984.79,258.79c-10.94,0-20.38-1.55-28.31-4.65-7.93-3.1-14.04-8.43-18.33-16-4.29-7.57-6.43-17.83-6.43-30.78v-76.6h-25.17v-19.7h25.17v-44.32h25.17v44.32h50.34v19.7h-50.34v79.88c0,7.84,2.14,13.91,6.43,18.19,4.29,4.29,10.35,6.43,18.19,6.43h25.72v23.53h-22.43Z"/>
    <path class="cls-1" d="M1183.67,154.15c-3.46-9.03-8.57-17.14-15.32-24.35-6.75-7.2-14.95-12.95-24.62-17.23-9.67-4.29-20.7-6.43-33.1-6.43s-23.44,2.14-33.1,6.43c-9.67,4.29-17.87,10.03-24.62,17.23-6.75,7.2-11.85,15.32-15.32,24.35-3.46,9.03-5.2,18.19-5.2,27.49v4.92c0,9.3,1.69,18.42,5.06,27.36,3.37,8.94,8.39,17.01,15.05,24.21,6.66,7.2,14.82,12.99,24.48,17.37,9.67,4.38,20.88,6.57,33.65,6.57s23.98-2.19,33.65-6.57c9.67-4.38,17.83-10.17,24.48-17.37,6.66-7.2,11.67-15.27,15.05-24.21,3.37-8.94,5.06-18.05,5.06-27.36v-4.92c0-9.3-1.73-18.47-5.2-27.49ZM1156.45,211.73c-4.1,8.21-10.03,14.73-17.78,19.56-7.75,4.83-17.1,7.25-28.04,7.25s-20.29-2.42-28.04-7.25c-7.75-4.83-13.68-11.35-17.78-19.56-4.1-8.21-6.15-17.42-6.15-27.63s2.1-19.7,6.29-27.9c4.19-8.21,10.21-14.68,18.05-19.42,7.84-4.74,17.05-7.11,27.63-7.11s20.02,2.37,27.77,7.11c7.75,4.74,13.72,11.22,17.92,19.42,4.19,8.21,6.29,17.51,6.29,27.9s-2.05,19.42-6.15,27.63Z"/>
    <path class="cls-1" d="M1228.26,257.14V111.06h20.79v43.77c2.19-15.68,7.93-27.17,17.23-34.47,9.3-7.29,21.98-10.94,38.03-10.94h4.92v23.53h-9.3c-14.59,0-25.81,3.88-33.65,11.63-7.84,7.75-11.76,18.92-11.76,33.51v79.06h-26.26Z"/>
    <polygon class="cls-1" points="1318.27 257.14 1318.27 223.77 1350 223.77 1350 257.14 1318.27 257.14 1318.27 257.14"/>
  </g>
  <g>
    <path class="cls-1" d="M87.63,328.54v-2.24c-.94-11.77,3.22-33.71,24.73-45.3,19.52-10.51,24.13-13.03,24.19-13.07l.35-.19s10.91-5.98,10.91-15.82v-56.87c-10.88,6.45-57.65,34.09-75.42,43.66-11.41,6.14-10.24,18.7-10.23,18.83l.08,1.44v54.91l25.39,14.66h0Z"/>
    <path class="cls-1" d="M115.29,324.41l.12.9-.06.35v18.87l32.51,18.77v-69.97c-2.86,1.55-9.28,5.03-22.36,12.07-10.88,5.86-10.31,17.68-10.21,19.01h0Z"/>
    <path class="cls-1" d="M250.96,196.96c-17.77-9.57-64.54-37.22-75.42-43.66v58.5c0,9.81,10.8,15.77,10.91,15.82l.35.19c.06.03,4.67,2.55,24.19,13.07,21.52,11.59,25.68,33.53,24.73,45.3v43.63l25.39-14.66v-98.83l.07-.53c.08-1.15.65-12.97-10.23-18.82h0Z"/>
    <path class="cls-1" d="M208,284.63l.07-.53c.09-1.15.65-12.97-10.22-18.83-12.94-6.97-19.36-10.44-22.26-12.02v111.25s.02,0,.02-.01l32.39-18.7v-61.17h0Z"/>
    <path class="cls-1" d="M312.69,82.59L175.6,3.44c-3.97-2.29-8.41-3.44-12.84-3.44s-8.87,1.15-12.84,3.44L12.84,82.59c-7.95,4.59-12.84,13.06-12.84,22.24v158.29c0,9.17,4.89,17.65,12.84,22.24l21.67,12.51v-38.28c-.94-11.77,3.22-33.71,24.73-45.29,19.24-10.36,76.08-44.07,76.65-44.41l.79-.47.85-.36c.28-.13,10.27-4.78,10.27-13.95v-52.84c-6.48-4.48-10.74-11.95-10.74-20.43,0-13.71,11.11-24.82,24.82-24.82s24.82,11.11,24.82,24.82c0,8.67-4.45,16.29-11.18,20.73v10.79c0,9.17,10,13.82,10.42,14.01l.85.36.65.41c.57.34,57.41,34.05,76.65,44.41,21.51,11.58,25.67,33.52,24.73,45.29v81.29l23.86-13.78c7.95-4.59,12.84-13.07,12.84-22.24V104.83c0-9.18-4.89-17.65-12.84-22.24h0Z"/>
  </g>
</svg>