<?xml version="1.0" encoding="UTF-8"?>
<svg id="Layer_1" data-name="Layer 1" xmlns="http://www.w3.org/2000/svg" viewBox="0 0 1350 377.76">
  <defs>
    <style>
      .cls-1 {
        fill: #fff;
      }
    </style>
  </defs>
  <g>
    <path class="cls-1" d="M573.33,326.03h1.24v5.92h-2.34c-3.67,0-6.5.98-8.47,2.93-1.97,1.95-2.96,4.76-2.96,8.43v19.89h-6.61v-36.76h5.23v11.06c.47-3.33,1.55-5.91,3.27-7.72,2.36-2.5,5.91-3.75,10.63-3.75h0Z"/>
    <path class="cls-1" d="M614.92,355.01c-2.94,2.16-6.56,3.23-10.88,3.23-3.08,0-5.76-.54-8.05-1.62-2.3-1.08-4.21-2.56-5.75-4.44-1.54-1.88-2.69-4.04-3.44-6.47-.76-2.43-1.14-5-1.14-7.71,0-2.84.38-5.48,1.14-7.92.76-2.43,1.88-4.58,3.37-6.44,1.49-1.86,3.36-3.3,5.61-4.34,2.25-1.03,4.86-1.55,7.85-1.55,2.75,0,5.24.46,7.47,1.38,2.23.92,4.07,2.31,5.54,4.16,1.47,1.86,2.39,4.21,2.75,7.06h6.88c-.41-3.81-1.56-7.11-3.44-9.91-1.88-2.8-4.43-4.98-7.64-6.54-3.21-1.56-7.07-2.34-11.56-2.34s-8.19.76-11.36,2.27c-3.17,1.51-5.74,3.51-7.71,5.99-1.97,2.48-3.43,5.23-4.37,8.26-.94,3.03-1.41,6.06-1.41,9.09v1.51c0,2.8.46,5.7,1.38,8.71.92,3.01,2.36,5.79,4.34,8.36,1.97,2.57,4.58,4.66,7.81,6.26,3.24,1.6,7.15,2.41,11.74,2.41s8.66-.85,11.94-2.55c3.28-1.7,5.85-3.97,7.71-6.81,1.86-2.84,3.02-5.99,3.48-9.43h-6.88c-.64,4.09-2.43,7.2-5.37,9.36h0Z"/>
    <path class="cls-1" d="M668.62,337.29c.87,2.27,1.31,4.58,1.31,6.92v1.24c0,2.34-.43,4.64-1.27,6.88-.85,2.25-2.11,4.28-3.78,6.09-1.68,1.81-3.73,3.27-6.16,4.37-2.43,1.1-5.25,1.65-8.47,1.65s-6.03-.55-8.47-1.65c-2.43-1.1-4.49-2.56-6.16-4.37-1.68-1.81-2.94-3.84-3.78-6.09-.85-2.25-1.27-4.54-1.27-6.88v-1.24c0-2.34.44-4.65,1.31-6.92.87-2.27,2.16-4.31,3.85-6.13,1.7-1.81,3.76-3.26,6.2-4.33,2.43-1.08,5.21-1.62,8.33-1.62s5.9.54,8.33,1.62c2.43,1.08,4.5,2.52,6.2,4.33,1.7,1.81,2.98,3.86,3.85,6.13h0ZM663.32,344.82c0-2.62-.53-4.96-1.58-7.02-1.06-2.07-2.56-3.69-4.51-4.89-1.95-1.19-4.28-1.79-6.99-1.79s-4.98.6-6.95,1.79c-1.97,1.19-3.49,2.82-4.54,4.89-1.06,2.06-1.58,4.4-1.58,7.02s.52,4.89,1.55,6.95c1.03,2.07,2.52,3.71,4.47,4.92,1.95,1.22,4.3,1.82,7.05,1.82s5.1-.61,7.06-1.82c1.95-1.22,3.44-2.86,4.47-4.92,1.03-2.07,1.55-4.38,1.55-6.95h0Z"/>
    <path class="cls-1" d="M694.18,325.34h-.28c-3.07,0-5.62.65-7.64,1.96-2.02,1.31-3.52,3.21-4.51,5.71-.25.63-.47,1.3-.65,2.01v-8.58h-5.23v36.76h6.61v-21.96c0-2.98.9-5.37,2.68-7.16,1.79-1.79,4.13-2.68,7.02-2.68s5,.86,6.61,2.58c1.6,1.72,2.41,4,2.41,6.85v22.37h6.61v-20.99c0-5.46-1.11-9.64-3.34-12.53-2.23-2.89-5.66-4.33-10.29-4.33h0Z"/>
    <path class="cls-1" d="M720.06,315.16c-2.16,1.93-3.24,4.93-3.24,9.02v2.27h-5.09v4.96h5.09v31.8h6.33v-31.8h9.84v-4.96h-9.84v-3.37c0-1.65.46-2.95,1.38-3.89s2.22-1.41,3.92-1.41h5.23v-5.51h-4.13c-4.18,0-7.34.96-9.5,2.89h0Z"/>
    <path class="cls-1" d="M744.09,320.52c1.47,0,2.56-.39,3.27-1.17.71-.78,1.07-1.77,1.07-2.96s-.36-2.18-1.07-2.96c-.71-.78-1.8-1.17-3.27-1.17s-2.56.39-3.27,1.17c-.71.78-1.07,1.77-1.07,2.96s.35,2.18,1.07,2.96c.71.78,1.8,1.17,3.27,1.17h0Z"/>
    <polygon class="cls-1" points="736.86 326.44 736.86 331.68 742.23 331.68 742.23 363.2 748.84 363.2 748.84 331.68 748.84 326.44 742.23 326.44 736.86 326.44 736.86 326.44"/>
    <path class="cls-1" d="M791.74,326.44v32.42c0,4.41-.68,7.97-2.03,10.7-1.35,2.73-3.51,4.74-6.47,6.02-2.96,1.29-6.9,1.93-11.81,1.93-1.7,0-3.41-.07-5.13-.21-1.72-.14-3.36-.32-4.92-.55v-5.58c1.65.23,3.38.42,5.2.58,1.81.16,3.52.24,5.13.24,3.35,0,6.02-.45,8.02-1.34,2-.9,3.44-2.3,4.34-4.2.89-1.91,1.34-4.35,1.34-7.33v-3.28c-.05.09-.09.19-.14.28-1.42,2.46-3.27,4.29-5.54,5.51-2.27,1.22-4.78,1.82-7.54,1.82-2.57,0-4.92-.49-7.05-1.48-2.13-.99-3.97-2.35-5.51-4.1-1.54-1.74-2.73-3.75-3.58-6.02-.85-2.27-1.27-4.67-1.27-7.19v-1.24c0-2.57.44-4.97,1.31-7.19.87-2.23,2.09-4.16,3.65-5.82,1.56-1.65,3.43-2.94,5.61-3.85,2.18-.92,4.58-1.38,7.19-1.38,3.07,0,5.78.65,8.12,1.96,2.34,1.31,4.19,3.21,5.54,5.71.12.21.2.46.31.68v-7.12h5.23ZM785.41,342.14c0-2.48-.56-4.56-1.69-6.26-1.12-1.7-2.58-2.98-4.37-3.86-1.79-.87-3.74-1.31-5.85-1.31-2.39,0-4.5.55-6.33,1.65-1.84,1.1-3.26,2.65-4.27,4.65-1.01,1.99-1.51,4.35-1.51,7.05s.52,5.07,1.55,7.09c1.03,2.02,2.45,3.57,4.27,4.65,1.81,1.08,3.89,1.62,6.23,1.62,2.2,0,4.21-.48,6.02-1.45,1.81-.96,3.26-2.35,4.34-4.16,1.08-1.81,1.62-3.98,1.62-6.5v-3.17h0Z"/>
    <path class="cls-1" d="M514.48,362.59l-13.16-35.98h6.75l10.68,30.46h1.45l9.03-30.46h6.48l-12.27,40.73c-1.1,3.63-2.87,6.27-5.31,7.93-2.44,1.65-5.54,2.48-9.3,2.48h-4.89v-5.93h5.31c2.3,0,4.1-.46,5.41-1.38s2.31-2.53,3-4.82l.9-3.03h-4.07Z"/>
    <path class="cls-1" d="M481.45,364.66c-3.26,0-6.12-.76-8.58-2.27-2.46-1.52-4.33-3.7-5.62-6.55v7.58h-5.24v-50.31h6.62v19.85c1.38-2.57,3.24-4.48,5.58-5.72,2.34-1.24,4.94-1.86,7.79-1.86,3.54,0,6.62.85,9.23,2.55,2.62,1.7,4.66,3.97,6.13,6.82,1.47,2.85,2.2,6.02,2.2,9.51v1.24c0,3.45-.76,6.63-2.27,9.54-1.52,2.92-3.63,5.25-6.34,7-2.71,1.75-5.88,2.62-9.51,2.62h0ZM480.69,358.87c2.48,0,4.64-.6,6.48-1.79,1.84-1.19,3.26-2.84,4.27-4.93,1.01-2.09,1.52-4.51,1.52-7.27,0-4.14-1.13-7.46-3.38-9.96-2.25-2.5-5.21-3.76-8.89-3.76-2.2,0-4.25.49-6.13,1.48-1.88.99-3.39,2.41-4.51,4.27-1.13,1.86-1.69,4.1-1.69,6.72v3.17c0,2.53.57,4.69,1.72,6.48,1.15,1.79,2.67,3.17,4.55,4.14,1.88.96,3.91,1.45,6.07,1.45h0Z"/>
  </g>
  <g>
    <polygon class="cls-1" points="462.02 257.14 392.81 57.44 420.44 57.44 480.35 233.07 490.47 233.07 545.45 57.44 572.26 57.44 507.98 257.14 462.02 257.14 462.02 257.14"/>
    <path class="cls-1" d="M724.91,177.26c0-12.22-2.51-23.71-7.52-34.47-5.02-10.76-12.68-19.56-22.98-26.4-10.3-6.84-23.39-10.26-39.26-10.26-12.22,0-22.84,2.14-31.87,6.43-9.03,4.29-16.46,10.03-22.3,17.23-5.84,7.2-10.17,15.27-12.99,24.21-2.83,8.94-4.24,18.15-4.24,27.63v4.92c0,9.3,1.41,18.42,4.24,27.36,2.83,8.94,7.16,17.01,12.99,24.21,5.84,7.2,13.4,12.99,22.71,17.37,9.3,4.38,20.33,6.57,33.1,6.57,17.33,0,31.82-4.29,43.5-12.86,11.67-8.57,19.06-20.43,22.16-35.56h-24.62c-1.46,6.75-5.79,12.68-12.99,17.78-7.2,5.11-16.55,7.66-28.04,7.66-15.68,0-27.36-4.74-35.02-14.22-7.66-9.48-11.95-21.43-12.86-35.84h115.99v-11.76ZM610.01,169.33c2.01-12.04,6.75-21.75,14.23-29.13,7.48-7.39,17.78-11.08,30.91-11.08s23.34,3.6,30.64,10.81c7.29,7.2,11.76,17.01,13.4,29.41h-89.18Z"/>
    <path class="cls-1" d="M824.76,262.07c-12.58,0-23.48-2.19-32.69-6.57-9.21-4.38-16.82-10.26-22.84-17.64-6.02-7.39-10.53-15.55-13.54-24.48-3.01-8.94-4.51-17.87-4.51-26.81v-4.92c0-9.3,1.5-18.42,4.51-27.36,3.01-8.94,7.57-17.01,13.68-24.21,6.11-7.2,13.72-12.99,22.84-17.37,9.12-4.38,19.79-6.57,32.01-6.57s23.21,2.28,32.96,6.84c9.76,4.56,17.6,10.99,23.53,19.29,5.93,8.3,9.26,18.1,9.98,29.41h-25.17c-1.28-9.12-5.47-16.73-12.58-22.84-7.11-6.11-16.69-9.16-28.72-9.16-10.4,0-19.06,2.37-25.99,7.11-6.93,4.74-12.13,11.22-15.59,19.42-3.47,8.21-5.2,17.51-5.2,27.9s1.73,19.19,5.2,27.49c3.46,8.3,8.71,14.86,15.73,19.7,7.02,4.83,15.82,7.25,26.4,7.25,12.22,0,22.07-3.15,29.55-9.44,7.48-6.29,11.76-14.09,12.86-23.39h25.17c-.55,11.49-3.88,21.43-9.98,29.82-6.11,8.39-14.13,14.91-24.07,19.56-9.94,4.65-21.11,6.98-33.51,6.98h0Z"/>
    <path class="cls-1" d="M984.79,258.79c-10.94,0-20.38-1.55-28.31-4.65-7.93-3.1-14.04-8.43-18.33-16-4.29-7.57-6.43-17.83-6.43-30.78v-76.6h-25.17v-19.7h25.17v-44.32h25.17v44.32h50.34v19.7h-50.34v79.88c0,7.84,2.14,13.91,6.43,18.19,4.29,4.29,10.35,6.43,18.19,6.43h25.72v23.53h-22.43Z"/>
    <path class="cls-1" d="M1183.67,154.15c-3.46-9.03-8.57-17.14-15.32-24.35-6.75-7.2-14.95-12.95-24.62-17.23-9.67-4.29-20.7-6.43-33.1-6.43s-23.44,2.14-33.1,6.43c-9.67,4.29-17.87,10.03-24.62,17.23-6.75,7.2-11.85,15.32-15.32,24.35-3.46,9.03-5.2,18.19-5.2,27.49v4.92c0,9.3,1.69,18.42,5.06,27.36,3.37,8.94,8.39,17.01,15.05,24.21,6.66,7.2,14.82,12.99,24.48,17.37,9.67,4.38,20.88,6.57,33.65,6.57s23.98-2.19,33.65-6.57c9.67-4.38,17.83-10.17,24.48-17.37,6.66-7.2,11.67-15.27,15.05-24.21,3.37-8.94,5.06-18.05,5.06-27.36v-4.92c0-9.3-1.73-18.47-5.2-27.49ZM1156.45,211.73c-4.1,8.21-10.03,14.73-17.78,19.56-7.75,4.83-17.1,7.25-28.04,7.25s-20.29-2.42-28.04-7.25c-7.75-4.83-13.68-11.35-17.78-19.56-4.1-8.21-6.15-17.42-6.15-27.63s2.1-19.7,6.29-27.9c4.19-8.21,10.21-14.68,18.05-19.42,7.84-4.74,17.05-7.11,27.63-7.11s20.02,2.37,27.77,7.11c7.75,4.74,13.72,11.22,17.92,19.42,4.19,8.21,6.29,17.51,6.29,27.9s-2.05,19.42-6.15,27.63Z"/>
    <path class="cls-1" d="M1228.26,257.14V111.06h20.79v43.77c2.19-15.68,7.93-27.17,17.23-34.47,9.3-7.29,21.98-10.94,38.03-10.94h4.92v23.53h-9.3c-14.59,0-25.81,3.88-33.65,11.63-7.84,7.75-11.76,18.92-11.76,33.51v79.06h-26.26Z"/>
    <polygon class="cls-1" points="1318.27 257.14 1318.27 223.77 1350 223.77 1350 257.14 1318.27 257.14 1318.27 257.14"/>
  </g>
  <g>
    <path class="cls-1" d="M87.63,328.54v-2.24c-.94-11.77,3.22-33.71,24.73-45.3,19.52-10.51,24.13-13.03,24.19-13.07l.35-.19s10.91-5.98,10.91-15.82v-56.87c-10.88,6.45-57.65,34.09-75.42,43.66-11.41,6.14-10.24,18.7-10.23,18.83l.08,1.44v54.91l25.39,14.66h0Z"/>
    <path class="cls-1" d="M115.29,324.41l.12.9-.06.35v18.87l32.51,18.77v-69.97c-2.86,1.55-9.28,5.03-22.36,12.07-10.88,5.86-10.31,17.68-10.21,19.01h0Z"/>
    <path class="cls-1" d="M250.96,196.96c-17.77-9.57-64.54-37.22-75.42-43.66v58.5c0,9.81,10.8,15.77,10.91,15.82l.35.19c.06.03,4.67,2.55,24.19,13.07,21.52,11.59,25.68,33.53,24.73,45.3v43.63l25.39-14.66v-98.83l.07-.53c.08-1.15.65-12.97-10.23-18.82h0Z"/>
    <path class="cls-1" d="M208,284.63l.07-.53c.09-1.15.65-12.97-10.22-18.83-12.94-6.97-19.36-10.44-22.26-12.02v111.25s.02,0,.02-.01l32.39-18.7v-61.17h0Z"/>
    <path class="cls-1" d="M312.69,82.59L175.6,3.44c-3.97-2.29-8.41-3.44-12.84-3.44s-8.87,1.15-12.84,3.44L12.84,82.59c-7.95,4.59-12.84,13.06-12.84,22.24v158.29c0,9.17,4.89,17.65,12.84,22.24l21.67,12.51v-38.28c-.94-11.77,3.22-33.71,24.73-45.29,19.24-10.36,76.08-44.07,76.65-44.41l.79-.47.85-.36c.28-.13,10.27-4.78,10.27-13.95v-52.84c-6.48-4.48-10.74-11.95-10.74-20.43,0-13.71,11.11-24.82,24.82-24.82s24.82,11.11,24.82,24.82c0,8.67-4.45,16.29-11.18,20.73v10.79c0,9.17,10,13.82,10.42,14.01l.85.36.65.41c.57.34,57.41,34.05,76.65,44.41,21.51,11.58,25.67,33.52,24.73,45.29v81.29l23.86-13.78c7.95-4.59,12.84-13.07,12.84-22.24V104.83c0-9.18-4.89-17.65-12.84-22.24h0Z"/>
  </g>
</svg>