<?xml version="1.0" encoding="UTF-8"?>
<svg id="Layer_1" data-name="Layer 1" xmlns="http://www.w3.org/2000/svg" viewBox="0 0 1350 360.9">
  <defs>
    <style>
      .cls-1 {
        fill: #0321f9;
      }
    </style>
  </defs>
  <g>
    <polygon class="cls-1" points="519.71 55.75 557 55.75 500.28 247.43 438.57 247.43 377.65 55.75 416.25 55.75 465.33 216.45 474.45 216.45 519.71 55.75"/>
    <path class="cls-1" d="M704.44,151.59c-5.17-9.63-12.56-17.15-22.19-22.58-9.63-5.42-21.27-8.14-34.92-8.14-11.73,0-22.14,2.23-31.25,6.7-8.8,4.31-15.72,10.73-20.84,19.14.39-12.08,2.07-22.56,5.21-31.22,3.59-9.88,9.59-17.37,17.99-22.45,8.41-5.08,19.96-7.62,34.67-7.62,7,0,13.52.22,19.56.66,6.05.44,11.95.92,17.73,1.44v-31.25c-5.78-.7-11.56-1.22-17.33-1.58-5.78-.35-12-.52-18.64-.52-30.64,0-53.88,8.1-69.72,24.29-15.85,16.19-23.77,40.04-23.77,71.55v11.56c0,12.43,1.4,24.15,4.2,35.19,2.8,11.03,7.26,20.79,13.39,29.28,6.13,8.49,14.14,15.1,24.03,19.82,9.88,4.72,21.92,7.09,36.1,7.09,15.23,0,28.32-2.85,39.26-8.54,10.94-5.69,19.39-13.65,25.34-23.9,5.95-10.24,8.93-22.01,8.93-35.32s-2.59-23.98-7.74-33.61ZM671.75,204.36c-2.98,5.43-7.31,9.68-13,12.74-5.69,3.07-12.65,4.6-20.88,4.6-8.76,0-16.06-1.58-21.93-4.73-5.87-3.15-10.24-7.43-13.13-12.86-2.88-5.43-4.33-11.55-4.33-18.38,0-7.87,1.79-14.48,5.38-19.82,3.59-5.34,8.49-9.36,14.71-12.08,6.21-2.71,13.09-4.07,20.61-4.07s14.58,1.54,20.08,4.6c5.52,3.07,9.71,7.26,12.61,12.61,2.89,5.34,4.33,11.6,4.33,18.77s-1.49,13.22-4.46,18.64Z"/>
    <path class="cls-1" d="M876.29,220.25c-11.91,8.84-26.61,13.26-44.11,13.26-12.6,0-23.63-2.23-33.09-6.7-9.45-4.46-17.33-10.59-23.63-18.38-6.3-7.79-10.99-16.58-14.05-26.39-3.07-9.8-4.6-20.04-4.6-30.72,0-11.2,1.58-21.75,4.72-31.64,3.15-9.89,7.79-18.64,13.92-26.26,6.13-7.61,13.78-13.57,22.98-17.86,9.19-4.29,19.83-6.43,31.9-6.43,11.2,0,21.4,1.93,30.59,5.77,9.19,3.85,16.76,9.59,22.71,17.2,5.95,7.61,9.63,17.11,11.03,28.49h20.21c-1.57-14.18-5.95-26.48-13.13-36.89-7.18-10.42-16.77-18.51-28.76-24.29-11.99-5.78-26.22-8.67-42.67-8.67s-30.37,2.84-42.28,8.53c-11.91,5.69-21.66,13.26-29.28,22.72-7.62,9.45-13.22,20-16.81,31.64-3.59,11.64-5.38,23.33-5.38,35.05v4.99c0,10.86,1.75,22.01,5.25,33.48,3.5,11.47,9.06,22.1,16.67,31.9,7.62,9.8,17.51,17.72,29.67,23.76,12.16,6.04,26.83,9.06,43.99,9.06s31.55-3.06,43.72-9.19c12.16-6.13,21.84-14.49,29.01-25.08,7.18-10.59,11.73-22.45,13.65-35.58h-20.21c-2.8,16.63-10.15,29.37-22.06,38.21Z"/>
    <path class="cls-1" d="M1077.3,149.62c-3.24-8.67-8.01-16.42-14.31-23.24-6.3-6.83-13.96-12.29-22.98-16.41-9.02-4.12-19.39-6.17-31.11-6.17s-21.84,2.06-30.86,6.17c-9.02,4.11-16.67,9.58-22.98,16.41-6.3,6.82-11.12,14.57-14.45,23.24-3.32,8.66-4.99,17.46-4.99,26.39v3.68c0,8.93,1.62,17.69,4.86,26.26,3.24,8.58,7.96,16.33,14.18,23.24,6.21,6.92,13.82,12.44,22.84,16.54,9.02,4.11,19.48,6.17,31.38,6.17s22.41-2.06,31.51-6.17c9.1-4.11,16.75-9.63,22.98-16.54,6.21-6.91,10.89-14.66,14.05-23.24,3.15-8.57,4.73-17.33,4.73-26.26v-3.68c0-8.93-1.62-17.72-4.86-26.39ZM1056.43,206.08c-4.2,8.49-10.29,15.32-18.25,20.48-7.97,5.17-17.73,7.75-29.28,7.75s-21.05-2.58-29.02-7.75c-7.97-5.16-14.05-11.99-18.24-20.48-4.2-8.49-6.3-17.9-6.3-28.23s2.14-20,6.43-28.49c4.28-8.49,10.46-15.23,18.51-20.22,8.05-4.99,17.59-7.48,28.62-7.48s20.83,2.49,28.89,7.48c8.05,4.99,14.21,11.73,18.51,20.22,4.29,8.49,6.44,17.99,6.44,28.49s-2.11,19.74-6.3,28.23Z"/>
    <path class="cls-1" d="M1131.53,121.52c-5.91,6.43-9.82,15.23-11.82,26.3v-39.3h-15.75v138.91h19.69v-76.68c0-15.05,3.94-26.48,11.81-34.27,7.88-7.79,19.34-11.68,34.4-11.68h8.14v-17.85h-4.46c-19.08,0-33.09,4.85-42.01,14.57Z"/>
    <path class="cls-1" d="M1311.66,170.75c0-11.55-2.46-22.36-7.35-32.43-4.91-10.07-12.21-18.34-21.93-24.82-9.71-6.47-21.84-9.71-36.37-9.71-11.38,0-21.31,2.06-29.8,6.17-8.5,4.11-15.54,9.58-21.14,16.41-5.6,6.82-9.76,14.53-12.47,23.1-2.72,8.59-4.08,17.34-4.08,26.26v3.67c0,9.11,1.35,17.95,4.08,26.52,2.71,8.58,6.86,16.33,12.47,23.24,5.6,6.92,12.78,12.44,21.53,16.54,8.75,4.11,19.08,6.17,30.98,6.17,11.03,0,20.83-1.83,29.41-5.51,8.57-3.68,15.66-8.88,21.27-15.62,5.6-6.74,9.27-14.74,11.03-24.03h-18.39c-1.75,7.53-6.39,14.05-13.91,19.56-7.53,5.52-17.34,8.27-29.41,8.27-11.38,0-20.79-2.53-28.23-7.62-7.44-5.07-12.96-11.95-16.54-20.61-3.19-7.71-4.88-16.18-5.23-25.34h114.08v-10.24ZM1198.32,165.77c.85-6.01,2.29-11.65,4.49-16.8,3.59-8.4,8.97-15.14,16.15-20.22,7.18-5.08,16.19-7.61,27.04-7.61s18.95,2.23,25.87,6.69c6.91,4.47,12.16,10.59,15.76,18.39,2.67,5.81,4.35,12.33,5.03,19.56h-94.34Z"/>
    <rect class="cls-1" x="1325.32" y="221.44" width="24.68" height="25.99"/>
  </g>
  <g>
    <path class="cls-1" d="M84.28,315.97v-2.16c-.91-11.32,3.09-32.42,23.79-43.56,18.77-10.11,23.21-12.53,23.26-12.57l.34-.18s10.49-5.76,10.49-15.22v-54.69c-10.47,6.2-55.44,32.78-72.53,41.99-10.97,5.91-9.85,17.98-9.84,18.11l.07,1.38v52.81l24.42,14.1Z"/>
    <path class="cls-1" d="M110.88,312l.11.87-.06.34v18.15l31.26,18.05v-67.3c-2.75,1.49-8.92,4.83-21.5,11.61-10.46,5.63-9.92,17-9.82,18.28Z"/>
    <path class="cls-1" d="M241.36,189.42c-17.09-9.21-62.07-35.79-72.54-41.99v56.26c0,9.44,10.39,15.16,10.49,15.22l.34.18c.06.03,4.49,2.46,23.26,12.57,20.69,11.14,24.69,32.24,23.79,43.56v41.96l24.42-14.1v-95.05l.07-.51c.08-1.1.63-12.47-9.84-18.1Z"/>
    <path class="cls-1" d="M200.04,273.74l.07-.5c.08-1.1.63-12.47-9.83-18.11-12.45-6.7-18.62-10.04-21.41-11.56v107s.01,0,.02-.01l31.15-17.99v-58.83Z"/>
    <path class="cls-1" d="M300.73,79.43L168.89,3.31c-3.82-2.21-8.08-3.31-12.35-3.31s-8.53,1.1-12.35,3.31L12.35,79.43c-7.64,4.41-12.35,12.57-12.35,21.39v152.24c0,8.82,4.71,16.98,12.35,21.39l20.84,12.03v-36.82c-.91-11.32,3.1-32.42,23.78-43.56,18.5-9.96,73.17-42.39,73.72-42.71l.76-.45.82-.35c.27-.13,9.88-4.6,9.88-13.42v-50.82c-6.24-4.31-10.33-11.5-10.33-19.65,0-13.18,10.69-23.87,23.87-23.87s23.87,10.69,23.87,23.87c0,8.34-4.28,15.66-10.75,19.93v10.38c0,8.82,9.61,13.29,10.02,13.48l.82.35.62.39c.55.33,55.21,32.75,73.71,42.71,20.69,11.14,24.69,32.24,23.79,43.56v78.18l22.95-13.25c7.64-4.41,12.35-12.57,12.35-21.39V100.82c0-8.82-4.71-16.98-12.35-21.39Z"/>
  </g>
</svg>