<?xml version="1.0" encoding="UTF-8"?>
<svg id="Layer_1" data-name="Layer 1" xmlns="http://www.w3.org/2000/svg" viewBox="0 0 1350 451.76">
  <defs>
    <style>
      .cls-1 {
        fill: #fff;
      }
    </style>
  </defs>
  <g>
    <path class="cls-1" d="M254.61,378.81h1.75v8.35h-3.3c-5.18,0-9.16,1.38-11.94,4.13-2.78,2.75-4.18,6.72-4.18,11.89v28.06h-9.32v-51.84h7.38v15.6c.66-4.69,2.19-8.33,4.61-10.89,3.33-3.53,8.33-5.29,15-5.29h0Z"/>
    <path class="cls-1" d="M313.26,419.68c-4.14,3.04-9.26,4.56-15.34,4.56-4.34,0-8.12-.76-11.36-2.28-3.24-1.52-5.94-3.61-8.11-6.26-2.17-2.65-3.79-5.7-4.86-9.13-1.07-3.43-1.6-7.05-1.6-10.87,0-4.01.54-7.73,1.6-11.17,1.07-3.43,2.65-6.45,4.76-9.08,2.1-2.62,4.74-4.66,7.91-6.11,3.17-1.46,6.86-2.19,11.07-2.19,3.88,0,7.39.65,10.53,1.94,3.14,1.29,5.74,3.25,7.82,5.87,2.07,2.62,3.36,5.94,3.88,9.95h9.71c-.58-5.37-2.2-10.03-4.85-13.98-2.66-3.95-6.25-7.02-10.78-9.22-4.53-2.2-9.97-3.3-16.31-3.3s-11.55,1.07-16.02,3.2c-4.46,2.14-8.09,4.95-10.87,8.45-2.79,3.49-4.84,7.38-6.17,11.65-1.33,4.27-1.99,8.54-1.99,12.82v2.13c0,3.95.65,8.04,1.94,12.28,1.29,4.24,3.33,8.17,6.12,11.8,2.78,3.62,6.45,6.57,11.02,8.84,4.57,2.26,10.08,3.4,16.55,3.4s12.22-1.2,16.84-3.59c4.63-2.39,8.25-5.6,10.87-9.61,2.62-4.01,4.26-8.45,4.9-13.3h-9.71c-.91,5.76-3.43,10.16-7.57,13.2h0Z"/>
    <path class="cls-1" d="M389,394.68c1.23,3.2,1.84,6.45,1.84,9.76v1.75c0,3.3-.6,6.54-1.8,9.71-1.2,3.17-2.98,6.04-5.34,8.59-2.37,2.56-5.26,4.61-8.69,6.16-3.43,1.55-7.41,2.33-11.94,2.33s-8.51-.78-11.94-2.33c-3.43-1.55-6.33-3.61-8.69-6.16-2.36-2.56-4.14-5.42-5.34-8.59-1.2-3.17-1.8-6.41-1.8-9.71v-1.75c0-3.3.62-6.55,1.84-9.76,1.23-3.2,3.04-6.08,5.44-8.64,2.39-2.55,5.31-4.59,8.74-6.11,3.43-1.52,7.35-2.28,11.75-2.28s8.31.76,11.75,2.28c3.43,1.52,6.34,3.56,8.74,6.11,2.39,2.56,4.2,5.44,5.44,8.64h0ZM381.52,405.31c0-3.69-.75-6.99-2.23-9.9-1.49-2.91-3.61-5.21-6.36-6.89-2.75-1.68-6.04-2.53-9.85-2.53s-7.02.84-9.81,2.53c-2.78,1.68-4.92,3.98-6.41,6.89-1.49,2.91-2.23,6.21-2.23,9.9s.73,6.89,2.18,9.81c1.45,2.91,3.56,5.23,6.31,6.94,2.75,1.72,6.07,2.57,9.95,2.57s7.2-.86,9.95-2.57c2.75-1.71,4.85-4.03,6.31-6.94,1.46-2.91,2.18-6.18,2.18-9.81h0Z"/>
    <path class="cls-1" d="M425.05,377.84h-.39c-4.34,0-7.93.92-10.78,2.76-2.85,1.85-4.97,4.53-6.36,8.06-.35.89-.66,1.84-.92,2.83v-12.1h-7.38v51.84h9.32v-30.97c0-4.21,1.26-7.57,3.79-10.1,2.53-2.53,5.83-3.79,9.9-3.79s7.05,1.21,9.32,3.64c2.26,2.43,3.4,5.65,3.4,9.66v31.55h9.32v-29.61c0-7.7-1.57-13.59-4.71-17.67-3.14-4.08-7.98-6.11-14.51-6.11h0Z"/>
    <path class="cls-1" d="M461.55,363.47c-3.04,2.72-4.56,6.96-4.56,12.72v3.2h-7.18v6.99h7.18v44.85h8.93v-44.85h13.88v-6.99h-13.88v-4.75c0-2.33.65-4.16,1.94-5.49s3.14-1.99,5.53-1.99h7.38v-7.77h-5.82c-5.89,0-10.36,1.36-13.4,4.08h0Z"/>
    <path class="cls-1" d="M495.44,371.04c2.07,0,3.61-.55,4.61-1.65,1-1.1,1.51-2.49,1.51-4.17s-.5-3.07-1.51-4.17c-1-1.1-2.54-1.65-4.61-1.65s-3.61.55-4.61,1.65c-1,1.1-1.5,2.49-1.5,4.17s.5,3.08,1.5,4.17c1,1.1,2.54,1.65,4.61,1.65h0Z"/>
    <polygon class="cls-1" points="485.24 379.39 485.24 386.77 492.82 386.77 492.82 431.23 502.14 431.23 502.14 386.77 502.14 379.39 492.82 379.39 485.24 379.39 485.24 379.39"/>
    <path class="cls-1" d="M562.65,379.39v45.73c0,6.21-.96,11.24-2.86,15.1-1.91,3.85-4.95,6.68-9.12,8.49-4.18,1.81-9.73,2.72-16.65,2.72-2.4,0-4.81-.1-7.23-.29-2.42-.19-4.74-.45-6.94-.78v-7.86c2.33.32,4.77.6,7.33.82,2.56.23,4.97.34,7.23.34,4.73,0,8.49-.63,11.31-1.89,2.82-1.26,4.86-3.24,6.12-5.92,1.26-2.69,1.89-6.13,1.89-10.34v-4.62c-.07.13-.12.27-.19.4-2.01,3.46-4.61,6.05-7.82,7.77-3.2,1.72-6.75,2.57-10.63,2.57-3.63,0-6.94-.69-9.95-2.09-3.01-1.39-5.6-3.32-7.77-5.78-2.17-2.46-3.85-5.29-5.05-8.49-1.2-3.2-1.8-6.58-1.8-10.14v-1.75c0-3.62.62-7,1.85-10.14,1.23-3.14,2.94-5.87,5.14-8.2,2.2-2.33,4.84-4.14,7.91-5.44,3.07-1.29,6.46-1.94,10.15-1.94,4.34,0,8.15.92,11.46,2.77,3.3,1.84,5.9,4.53,7.82,8.06.16.3.28.64.44.96v-10.04h7.38ZM553.71,401.52c0-3.49-.79-6.44-2.38-8.83-1.59-2.4-3.64-4.21-6.16-5.44-2.53-1.23-5.28-1.85-8.25-1.85-3.37,0-6.35.78-8.93,2.33-2.59,1.55-4.59,3.74-6.02,6.56-1.42,2.81-2.14,6.13-2.14,9.95s.73,7.15,2.18,10c1.46,2.85,3.46,5.03,6.02,6.55,2.56,1.52,5.48,2.28,8.78,2.28,3.11,0,5.94-.68,8.49-2.04,2.56-1.36,4.6-3.32,6.12-5.87,1.52-2.56,2.28-5.61,2.28-9.17v-4.47h0Z"/>
    <path class="cls-1" d="M171.6,430.37l-18.57-50.74h9.53l15.07,42.96h2.04l12.73-42.96h9.14l-17.3,57.45c-1.56,5.12-4.05,8.85-7.48,11.18-3.44,2.33-7.81,3.5-13.12,3.5h-6.9v-8.36h7.49c3.24,0,5.78-.65,7.63-1.94s3.26-3.56,4.23-6.8l1.26-4.28h-5.74Z"/>
    <path class="cls-1" d="M125.03,433.29c-4.6,0-8.63-1.07-12.1-3.21-3.47-2.14-6.11-5.22-7.92-9.23v10.69h-7.39v-70.96h9.33v27.99c1.94-3.63,4.57-6.32,7.87-8.07,3.31-1.75,6.97-2.62,10.98-2.62,4.99,0,9.33,1.2,13.02,3.6,3.69,2.4,6.58,5.61,8.65,9.62,2.07,4.02,3.11,8.49,3.11,13.41v1.75c0,4.86-1.07,9.35-3.21,13.46-2.14,4.12-5.12,7.4-8.94,9.87-3.82,2.46-8.3,3.69-13.42,3.69h0ZM123.96,425.12c3.5,0,6.55-.84,9.14-2.53,2.59-1.69,4.6-4,6.03-6.95,1.43-2.95,2.14-6.37,2.14-10.25,0-5.83-1.59-10.52-4.76-14.05-3.18-3.53-7.35-5.3-12.54-5.3-3.11,0-5.99.7-8.65,2.09-2.66,1.39-4.78,3.4-6.37,6.03-1.59,2.62-2.38,5.78-2.38,9.48v4.47c0,3.56.81,6.61,2.43,9.14,1.62,2.53,3.76,4.47,6.42,5.83,2.66,1.36,5.51,2.04,8.55,2.04h0Z"/>
  </g>
  <g>
    <polygon class="cls-1" points="97.61 281.65 0 0 38.97 0 123.46 247.7 137.74 247.7 215.29 0 253.1 0 162.43 281.65 97.61 281.65 97.61 281.65"/>
    <path class="cls-1" d="M468.39,168.99c0-17.23-3.54-33.44-10.61-48.61-7.07-15.18-17.88-27.59-32.41-37.23-14.53-9.65-32.99-14.47-55.37-14.47-17.23,0-32.22,3.02-44.95,9.07-12.73,6.04-23.21,14.15-31.44,24.31-8.23,10.16-14.34,21.54-18.33,34.14-3.99,12.6-5.98,25.59-5.98,38.97v6.94c0,13.12,1.99,25.98,5.98,38.58,3.99,12.6,10.1,23.99,18.33,34.15,8.23,10.16,18.91,18.33,32.02,24.5,13.12,6.17,28.68,9.26,46.68,9.26,24.44,0,44.88-6.04,61.35-18.13,16.46-12.09,26.88-28.81,31.25-50.16h-34.72c-2.06,9.52-8.17,17.88-18.33,25.08-10.16,7.2-23.34,10.8-39.55,10.8-22.12,0-38.58-6.69-49.39-20.06-10.8-13.38-16.85-30.22-18.13-50.54h163.59v-16.59ZM306.35,157.8c2.83-16.98,9.52-30.67,20.06-41.09,10.55-10.42,25.08-15.63,43.6-15.63s32.92,5.08,43.21,15.24c10.29,10.16,16.59,23.99,18.91,41.48h-125.78Z"/>
    <path class="cls-1" d="M609.22,288.6c-17.75,0-33.12-3.09-46.11-9.26-12.99-6.17-23.73-14.47-32.22-24.89-8.49-10.42-14.85-21.93-19.1-34.53-4.24-12.6-6.37-25.21-6.37-37.81v-6.94c0-13.12,2.12-25.98,6.37-38.58,4.24-12.6,10.67-23.98,19.29-34.14,8.62-10.16,19.36-18.33,32.22-24.5,12.86-6.17,27.91-9.26,45.14-9.26s32.73,3.21,46.49,9.65c13.76,6.43,24.82,15.5,33.18,27.2,8.36,11.7,13.05,25.53,14.08,41.48h-35.5c-1.8-12.86-7.72-23.6-17.75-32.22-10.03-8.62-23.54-12.93-40.51-12.93-14.66,0-26.88,3.34-36.65,10.03-9.77,6.69-17.11,15.82-21.99,27.39-4.89,11.58-7.33,24.69-7.33,39.35s2.44,27.07,7.33,38.78c4.89,11.7,12.28,20.96,22.18,27.78,9.9,6.82,22.31,10.22,37.23,10.22,17.23,0,31.12-4.44,41.67-13.31,10.55-8.87,16.59-19.87,18.13-32.99h35.5c-.77,16.2-5.47,30.22-14.08,42.05-8.62,11.83-19.93,21.03-33.95,27.59-14.02,6.56-29.77,9.84-47.26,9.84h0Z"/>
    <path class="cls-1" d="M834.92,283.97c-15.43,0-28.74-2.19-39.93-6.56-11.19-4.37-19.81-11.9-25.85-22.57-6.04-10.67-9.07-25.14-9.07-43.41v-108.03h-35.5v-27.78h35.5V13.12h35.5v62.5h70.99v27.78h-70.99v112.66c0,11.06,3.02,19.61,9.07,25.66,6.04,6.04,14.6,9.07,25.66,9.07h36.27v33.18h-31.64Z"/>
    <path class="cls-1" d="M1115.42,136.39c-4.89-12.73-12.09-24.18-21.61-34.34-9.52-10.16-21.09-18.26-34.72-24.31-13.63-6.04-29.19-9.07-46.68-9.07s-33.05,3.02-46.68,9.07c-13.63,6.04-25.21,14.15-34.72,24.31-9.52,10.16-16.72,21.61-21.61,34.34-4.89,12.73-7.33,25.66-7.33,38.78v6.94c0,13.12,2.38,25.98,7.14,38.58,4.76,12.6,11.83,23.99,21.22,34.15,9.39,10.16,20.9,18.33,34.53,24.5,13.63,6.17,29.45,9.26,47.46,9.26s33.82-3.09,47.46-9.26c13.63-6.17,25.14-14.34,34.53-24.5,9.39-10.16,16.46-21.54,21.22-34.15,4.76-12.6,7.14-25.46,7.14-38.58v-6.94c0-13.12-2.44-26.04-7.33-38.78ZM1077.03,217.6c-5.79,11.57-14.15,20.77-25.08,27.59-10.93,6.82-24.11,10.22-39.55,10.22s-28.62-3.41-39.55-10.22c-10.93-6.82-19.29-16.01-25.08-27.59-5.79-11.58-8.68-24.56-8.68-38.97s2.96-27.78,8.87-39.35c5.91-11.57,14.4-20.71,25.46-27.39,11.06-6.69,24.05-10.03,38.97-10.03s28.23,3.34,39.16,10.03c10.93,6.69,19.36,15.82,25.27,27.39,5.92,11.58,8.87,24.69,8.87,39.35s-2.89,27.39-8.68,38.97Z"/>
    <path class="cls-1" d="M1178.31,281.65V75.62h29.32v61.73c3.09-22.12,11.19-38.32,24.31-48.61,13.12-10.29,30.99-15.43,53.63-15.43h6.95v33.18h-13.12c-20.58,0-36.4,5.47-47.46,16.4-11.06,10.93-16.59,26.69-16.59,47.26v111.5h-37.04Z"/>
    <polygon class="cls-1" points="1305.24 281.65 1305.24 234.58 1350 234.58 1350 281.65 1305.24 281.65 1305.24 281.65"/>
  </g>
</svg>