<?xml version="1.0" encoding="UTF-8"?>
<svg id="Layer_1" data-name="Layer 1" xmlns="http://www.w3.org/2000/svg" viewBox="0 0 1350 451.76">
  <defs>
    <style>
      .cls-1 {
        fill: #0321f9;
      }
    </style>
  </defs>
  <polygon class="cls-1" points="97.61 281.65 0 0 38.97 0 123.46 247.7 137.74 247.7 215.29 0 253.1 0 162.43 281.65 97.61 281.65 97.61 281.65"/>
  <path class="cls-1" d="M468.39,168.99c0-17.23-3.54-33.44-10.61-48.61-7.07-15.18-17.88-27.59-32.41-37.23-14.53-9.65-32.99-14.47-55.37-14.47-17.23,0-32.22,3.02-44.95,9.07-12.73,6.04-23.21,14.15-31.44,24.31-8.23,10.16-14.34,21.54-18.33,34.14-3.99,12.6-5.98,25.59-5.98,38.97v6.94c0,13.12,1.99,25.98,5.98,38.58,3.99,12.6,10.1,23.99,18.33,34.15,8.23,10.16,18.91,18.33,32.02,24.5,13.12,6.17,28.68,9.26,46.68,9.26,24.44,0,44.88-6.04,61.35-18.13,16.46-12.09,26.88-28.81,31.25-50.16h-34.72c-2.06,9.52-8.17,17.88-18.33,25.08-10.16,7.2-23.34,10.8-39.55,10.8-22.12,0-38.58-6.69-49.39-20.06-10.8-13.38-16.85-30.22-18.13-50.54h163.59v-16.59ZM306.35,157.8c2.83-16.98,9.52-30.67,20.06-41.09,10.55-10.42,25.08-15.63,43.6-15.63s32.92,5.08,43.21,15.24c10.29,10.16,16.59,23.99,18.91,41.48h-125.78Z"/>
  <path class="cls-1" d="M609.22,288.6c-17.75,0-33.12-3.09-46.11-9.26-12.99-6.17-23.73-14.47-32.22-24.89-8.49-10.42-14.85-21.93-19.1-34.53-4.24-12.6-6.37-25.21-6.37-37.81v-6.94c0-13.12,2.12-25.98,6.37-38.58,4.24-12.6,10.67-23.98,19.29-34.14,8.62-10.16,19.36-18.33,32.22-24.5,12.86-6.17,27.91-9.26,45.14-9.26s32.73,3.21,46.49,9.65c13.76,6.43,24.82,15.5,33.18,27.2,8.36,11.7,13.05,25.53,14.08,41.48h-35.5c-1.8-12.86-7.72-23.6-17.75-32.22-10.03-8.62-23.54-12.93-40.51-12.93-14.66,0-26.88,3.34-36.65,10.03-9.77,6.69-17.11,15.82-21.99,27.39-4.89,11.58-7.33,24.69-7.33,39.35s2.44,27.07,7.33,38.78c4.89,11.7,12.28,20.96,22.18,27.78,9.9,6.82,22.31,10.22,37.23,10.22,17.23,0,31.12-4.44,41.67-13.31,10.55-8.87,16.59-19.87,18.13-32.99h35.5c-.77,16.2-5.47,30.22-14.08,42.05-8.62,11.83-19.93,21.03-33.95,27.59-14.02,6.56-29.77,9.84-47.26,9.84h0Z"/>
  <path class="cls-1" d="M834.92,283.97c-15.43,0-28.74-2.19-39.93-6.56-11.19-4.37-19.81-11.9-25.85-22.57-6.04-10.67-9.07-25.14-9.07-43.41v-108.03h-35.5v-27.78h35.5V13.12h35.5v62.5h70.99v27.78h-70.99v112.66c0,11.06,3.02,19.61,9.07,25.66,6.04,6.04,14.6,9.07,25.66,9.07h36.27v33.18h-31.64Z"/>
  <path class="cls-1" d="M1115.42,136.39c-4.89-12.73-12.09-24.18-21.61-34.34-9.52-10.16-21.09-18.26-34.72-24.31-13.63-6.04-29.19-9.07-46.68-9.07s-33.05,3.02-46.68,9.07c-13.63,6.04-25.21,14.15-34.72,24.31-9.52,10.16-16.72,21.61-21.61,34.34-4.89,12.73-7.33,25.66-7.33,38.78v6.94c0,13.12,2.38,25.98,7.14,38.58,4.76,12.6,11.83,23.99,21.22,34.15,9.39,10.16,20.9,18.33,34.53,24.5,13.63,6.17,29.45,9.26,47.46,9.26s33.82-3.09,47.46-9.26c13.63-6.17,25.14-14.34,34.53-24.5,9.39-10.16,16.46-21.54,21.22-34.15,4.76-12.6,7.14-25.46,7.14-38.58v-6.94c0-13.12-2.44-26.04-7.33-38.78ZM1077.03,217.6c-5.79,11.57-14.15,20.77-25.08,27.59-10.93,6.82-24.11,10.22-39.55,10.22s-28.62-3.41-39.55-10.22c-10.93-6.82-19.29-16.01-25.08-27.59-5.79-11.58-8.68-24.56-8.68-38.97s2.96-27.78,8.87-39.35c5.91-11.57,14.4-20.71,25.46-27.39,11.06-6.69,24.05-10.03,38.97-10.03s28.23,3.34,39.16,10.03c10.93,6.69,19.36,15.82,25.27,27.39,5.92,11.58,8.87,24.69,8.87,39.35s-2.89,27.39-8.68,38.97Z"/>
  <path class="cls-1" d="M1178.31,281.65V75.62h29.32v61.73c3.09-22.12,11.19-38.32,24.31-48.61,13.12-10.29,30.99-15.43,53.63-15.43h6.95v33.18h-13.12c-20.58,0-36.4,5.47-47.46,16.4-11.06,10.93-16.59,26.69-16.59,47.26v111.5h-37.04Z"/>
  <polygon class="cls-1" points="1305.24 281.65 1305.24 234.58 1350 234.58 1350 281.65 1305.24 281.65 1305.24 281.65"/>
</svg>