<?xml version="1.0" encoding="UTF-8"?>
<svg id="Layer_1" data-name="Layer 1" xmlns="http://www.w3.org/2000/svg" viewBox="0 0 1350 492.63">
  <defs>
    <style>
      .cls-1 {
        fill: #fff;
      }
    </style>
  </defs>
  <polygon class="cls-1" points="168.64 281.35 152.74 281.35 67.25 1.38 0 1.38 106.13 335.33 213.63 335.33 312.45 1.38 247.49 1.38 168.64 281.35 168.64 281.35"/>
  <polygon class="cls-1" points="407.61 54.9 523.8 54.9 528.38 60.84 403.03 335.33 471.64 335.33 598.37 50.78 598.37 1.38 407.61 1.38 354.99 1.38 354.99 54.9 354.99 108.42 407.61 108.42 407.61 54.9 407.61 54.9"/>
  <path class="cls-1" d="M821.17,144.79c-5.5,11.44-13.88,20.59-25.17,27.44-11.29,6.87-25.92,10.3-43.92,10.3h-68.61V30.65h68.61c18,0,32.64,3.36,43.92,10.06,11.29,6.72,19.67,15.79,25.17,27.22,5.48,11.44,8.23,24.33,8.23,38.66s-2.75,26.76-8.23,38.2h0ZM812.7,13.27c-17.54-8.85-39.73-13.27-66.56-13.27h-97.44v335.33h34.77v-122.15h62.67c26.83,0,49.03-4.41,66.56-13.27,17.54-8.83,30.65-21.11,39.34-36.82,8.7-15.71,13.05-33.47,13.05-53.29v-6.4c0-20.13-4.35-37.98-13.05-53.53-8.69-15.55-21.81-27.75-39.34-36.59h0Z"/>
  <path class="cls-1" d="M946.05,115.97c-10.29,11.21-17.1,26.54-20.59,45.81v-68.46h-27.44v242.01h34.3v-133.59c0-26.22,6.87-46.12,20.58-59.7,13.73-13.56,33.7-20.36,59.94-20.36h14.18v-31.1h-7.77c-33.25,0-57.65,8.46-73.19,25.38h0Z"/>
  <path class="cls-1" d="M1238.38,263.28c-7.32,14.79-17.92,26.69-31.79,35.68-13.88,9-30.89,13.5-51.01,13.5s-36.68-4.51-50.56-13.5c-13.88-8.98-24.47-20.89-31.78-35.68-7.32-14.79-10.98-31.18-10.98-49.18s3.73-34.84,11.2-49.64c7.46-14.79,18.22-26.54,32.26-35.23,14.03-8.69,30.65-13.03,49.86-13.03s36.29,4.34,50.32,13.03c14.03,8.69,24.77,20.44,32.25,35.23,7.47,14.8,11.22,31.33,11.22,49.64s-3.67,34.39-10.98,49.18h0ZM1249.81,124.44c-10.98-11.9-24.32-21.42-40.03-28.59-15.71-7.17-33.78-10.75-54.21-10.75s-38.05,3.58-53.76,10.75c-15.71,7.17-29.05,16.69-40.03,28.59-10.98,11.89-19.38,25.39-25.17,40.49-5.8,15.09-8.7,30.42-8.7,45.97v6.4c0,15.56,2.82,30.82,8.47,45.75,5.64,14.95,13.87,28.45,24.71,40.49,10.81,12.05,24.08,21.66,39.79,28.82,15.71,7.16,33.93,10.74,54.68,10.74s39.04-3.58,54.9-10.74c15.85-7.16,29.19-16.77,40.03-28.82,10.82-12.04,18.97-25.54,24.47-40.49,5.48-14.93,8.23-30.19,8.23-45.75v-6.4c0-15.56-2.82-30.88-8.47-45.97-5.64-15.1-13.95-28.6-24.93-40.49h0Z"/>
  <polygon class="cls-1" points="1307 290.05 1307 335.33 1350 335.33 1350 290.05 1307 290.05 1307 290.05"/>
</svg>