<?xml version="1.0" encoding="UTF-8"?>
<svg id="Layer_1" data-name="Layer 1" xmlns="http://www.w3.org/2000/svg" viewBox="0 0 1350 410.6">
  <defs>
    <style>
      .cls-1 {
        fill: #fff;
      }
    </style>
  </defs>
  <g>
    <polygon class="cls-1" points="555.69 253.51 545 253.51 487.52 65.26 442.3 65.26 513.66 289.8 585.94 289.8 652.39 65.26 608.71 65.26 555.69 253.51 555.69 253.51"/>
    <path class="cls-1" d="M761.14,295.95c-17.43,0-32.71-2.72-45.83-8.15-13.12-5.43-23.33-13.27-30.6-23.53-7.28-10.25-10.92-22.55-10.92-36.91s3.54-25.63,10.61-35.06c7.07-9.43,16.45-16.3,28.14-20.61v-3.69c-9.23-3.69-16.82-9.48-22.76-17.38-5.95-7.89-8.92-17.89-8.92-29.99,0-13.53,3.54-24.86,10.61-33.99,7.07-9.12,16.71-15.99,28.91-20.61,12.2-4.61,25.78-6.92,40.75-6.92s28.81,2.31,40.91,6.92c12.1,4.61,21.73,11.49,28.91,20.61,7.18,9.13,10.76,20.45,10.76,33.99,0,12.1-2.97,22.1-8.92,29.99-5.95,7.9-13.53,13.69-22.76,17.38v3.69c11.69,4.31,21.07,11.23,28.14,20.76,7.07,9.53,10.61,21.17,10.61,34.91s-3.69,26.66-11.07,36.91c-7.38,10.25-17.64,18.1-30.76,23.53-13.12,5.43-28.4,8.15-45.83,8.15ZM761.14,259.97c13.94,0,25.01-3.18,33.22-9.53,8.2-6.35,12.3-15.48,12.3-27.37s-4.05-20.71-12.15-27.07c-8.1-6.35-19.22-9.53-33.37-9.53s-24.97,3.18-33.06,9.53c-8.1,6.36-12.15,15.38-12.15,27.07s4.05,21.02,12.15,27.37c8.1,6.36,19.12,9.53,33.06,9.53ZM761.14,153.86c11.69,0,21.02-2.46,27.99-7.38,6.97-4.92,10.46-12.3,10.46-22.14s-3.49-17.17-10.46-21.99c-6.97-4.82-16.3-7.23-27.99-7.23s-20.97,2.46-27.83,7.38c-6.87,4.92-10.3,12.2-10.3,21.84s3.43,17.22,10.3,22.14c6.87,4.92,16.15,7.38,27.83,7.38Z"/>
    <path class="cls-1" d="M994.43,161.69c-3.69,7.69-9.33,13.85-16.92,18.45-7.59,4.62-17.43,6.92-29.53,6.92h-46.13v-102.12h46.13c12.1,0,21.94,2.26,29.53,6.77,7.59,4.52,13.23,10.62,16.92,18.3,3.69,7.69,5.53,16.36,5.53,25.99s-1.85,17.99-5.53,25.69h0ZM988.74,73.26c-11.79-5.95-26.72-8.92-44.76-8.92h-65.51v225.47h23.38v-82.13h42.14c18.04,0,32.96-2.97,44.76-8.92,11.79-5.94,20.61-14.19,26.45-24.76,5.85-10.56,8.77-22.5,8.77-35.83v-4.31c0-13.54-2.93-25.53-8.77-35.99-5.84-10.46-14.66-18.66-26.45-24.6h0Z"/>
    <path class="cls-1" d="M1078.4,142.31c-6.92,7.53-11.5,17.84-13.85,30.8v-46.03h-18.45v162.72h23.07v-89.82c0-17.63,4.62-31.01,13.84-40.14,9.23-9.12,22.66-13.69,40.3-13.69h9.53v-20.91h-5.23c-22.36,0-38.76,5.69-49.21,17.07h0Z"/>
    <path class="cls-1" d="M1274.95,241.36c-4.92,9.95-12.05,17.95-21.38,23.99-9.33,6.05-20.77,9.08-34.3,9.08s-24.66-3.03-33.99-9.08c-9.33-6.04-16.45-14.04-21.37-23.99-4.92-9.94-7.38-20.96-7.38-33.07s2.51-23.43,7.53-33.38c5.02-9.94,12.25-17.84,21.69-23.69,9.43-5.84,20.61-8.76,33.53-8.76s24.4,2.92,33.84,8.76c9.43,5.84,16.65,13.74,21.68,23.69,5.03,9.95,7.54,21.07,7.54,33.38s-2.47,23.12-7.39,33.07h0ZM1282.64,148c-7.38-8-16.35-14.4-26.91-19.22-10.56-4.82-22.71-7.23-36.45-7.23s-25.58,2.41-36.14,7.23c-10.56,4.82-19.53,11.22-26.91,19.22-7.38,7.99-13.03,17.07-16.92,27.22-3.9,10.15-5.85,20.45-5.85,30.91v4.3c0,10.46,1.9,20.72,5.69,30.76,3.79,10.05,9.33,19.13,16.61,27.22,7.27,8.1,16.19,14.57,26.75,19.38,10.56,4.81,22.82,7.22,36.76,7.22s26.25-2.41,36.91-7.22c10.66-4.81,19.63-11.28,26.91-19.38,7.27-8.1,12.76-17.17,16.45-27.22,3.69-10.04,5.54-20.3,5.54-30.76v-4.3c0-10.46-1.9-20.76-5.69-30.91-3.79-10.15-9.38-19.23-16.76-27.22h0Z"/>
    <polygon class="cls-1" points="1321.09 259.35 1321.09 289.8 1350 289.8 1350 259.35 1321.09 259.35 1321.09 259.35"/>
  </g>
  <g>
    <path class="cls-1" d="M98.71,370.08v-2.53c-1.06-13.26,3.62-37.97,27.86-51.02,21.99-11.84,27.18-14.68,27.25-14.72l.4-.21s12.29-6.74,12.29-17.83v-64.06c-12.26,7.26-64.94,38.4-84.96,49.17-12.85,6.92-11.54,21.06-11.52,21.21l.09,1.62v61.85l28.6,16.51Z"/>
    <path class="cls-1" d="M129.87,365.43l.13,1.02-.07.4v21.26l36.62,21.14v-78.82c-3.22,1.75-10.45,5.66-25.18,13.59-12.26,6.6-11.61,19.91-11.5,21.41Z"/>
    <path class="cls-1" d="M282.69,221.86c-20.02-10.78-72.7-41.92-84.96-49.18v65.89c0,11.05,12.16,17.76,12.29,17.82l.4.21c.07.04,5.26,2.88,27.25,14.72,24.24,13.05,28.92,37.77,27.86,51.02v49.15l28.6-16.51v-111.33l.08-.59c.09-1.29.73-14.61-11.52-21.2Z"/>
    <path class="cls-1" d="M234.29,320.62l.08-.59c.1-1.29.73-14.61-11.52-21.21-14.58-7.85-21.81-11.76-25.08-13.54v125.32s.02,0,.03-.01l36.49-21.07v-68.91Z"/>
    <path class="cls-1" d="M352.23,93.03L197.81,3.88c-4.47-2.58-9.47-3.88-14.46-3.88s-9.99,1.29-14.46,3.88L14.46,93.03c-8.95,5.17-14.46,14.72-14.46,25.05v178.31c0,10.33,5.51,19.88,14.46,25.05l24.41,14.1v-43.12c-1.06-13.26,3.63-37.97,27.86-51.02,21.67-11.67,85.7-49.64,86.34-50.03l.9-.53.96-.41c.32-.15,11.57-5.39,11.57-15.71v-59.52c-7.3-5.04-12.09-13.46-12.09-23.01,0-15.44,12.52-27.96,27.96-27.96s27.96,12.52,27.96,27.96c0,9.76-5.01,18.35-12.59,23.35v12.15c0,10.33,11.26,15.57,11.74,15.78l.96.41.73.46c.65.38,64.66,38.36,86.34,50.03,24.23,13.05,28.92,37.76,27.86,51.02v91.57l26.88-15.52c8.95-5.17,14.46-14.72,14.46-25.05V118.08c0-10.33-5.51-19.88-14.46-25.05Z"/>
  </g>
</svg>