<?xml version="1.0" encoding="UTF-8"?>
<svg id="Layer_1" data-name="Layer 1" xmlns="http://www.w3.org/2000/svg" viewBox="0 0 1350 410.6">
  <defs>
    <style>
      .cls-1 {
        fill: #0321f9;
      }
    </style>
  </defs>
  <g>
    <path class="cls-1" d="M618.76,346.51h1.17v5.61h-2.22c-3.48,0-6.16.93-8.03,2.77-1.87,1.85-2.81,4.52-2.81,8v18.86h-6.26v-34.86h4.96v10.49c.45-3.15,1.47-5.6,3.1-7.32,2.24-2.37,5.6-3.56,10.08-3.56h0Z"/>
    <path class="cls-1" d="M658.2,373.99c-2.78,2.05-6.22,3.07-10.31,3.07-2.92,0-5.46-.51-7.64-1.53-2.18-1.02-3.99-2.43-5.45-4.21-1.46-1.78-2.55-3.83-3.27-6.14-.72-2.31-1.08-4.74-1.08-7.31,0-2.7.36-5.2,1.08-7.51.72-2.31,1.78-4.34,3.2-6.1,1.41-1.76,3.19-3.13,5.32-4.11,2.13-.98,4.61-1.47,7.44-1.47,2.61,0,4.97.44,7.08,1.31,2.11.87,3.86,2.19,5.26,3.95,1.39,1.76,2.26,3.99,2.61,6.69h6.53c-.39-3.61-1.48-6.75-3.26-9.4-1.79-2.65-4.2-4.72-7.25-6.2-3.05-1.48-6.7-2.22-10.97-2.22s-7.77.72-10.77,2.15c-3,1.44-5.44,3.33-7.31,5.68-1.87,2.35-3.25,4.96-4.15,7.83-.89,2.87-1.34,5.75-1.34,8.62v1.44c0,2.66.43,5.41,1.31,8.26.87,2.85,2.24,5.49,4.11,7.93,1.87,2.44,4.34,4.42,7.41,5.94,3.07,1.52,6.78,2.28,11.13,2.28s8.21-.81,11.33-2.41c3.11-1.61,5.55-3.76,7.31-6.46,1.76-2.7,2.86-5.68,3.3-8.94h-6.53c-.61,3.87-2.31,6.83-5.09,8.88h0Z"/>
    <path class="cls-1" d="M709.12,357.19c.82,2.15,1.24,4.34,1.24,6.56v1.17c0,2.22-.4,4.4-1.21,6.53-.81,2.13-2,4.06-3.59,5.78-1.59,1.72-3.54,3.1-5.84,4.14-2.31,1.04-4.98,1.57-8.03,1.57s-5.72-.52-8.03-1.57c-2.31-1.04-4.25-2.42-5.84-4.14-1.59-1.72-2.79-3.64-3.59-5.78-.81-2.13-1.21-4.31-1.21-6.53v-1.17c0-2.22.41-4.41,1.24-6.56.83-2.15,2.04-4.09,3.66-5.81,1.61-1.72,3.57-3.09,5.87-4.11,2.31-1.02,4.94-1.53,7.9-1.53s5.59.51,7.9,1.53c2.31,1.02,4.27,2.39,5.88,4.11,1.61,1.72,2.83,3.66,3.66,5.81h0ZM704.09,364.33c0-2.48-.5-4.7-1.5-6.66-1-1.96-2.43-3.5-4.28-4.63-1.85-1.13-4.06-1.7-6.63-1.7s-4.72.57-6.59,1.7c-1.87,1.13-3.31,2.68-4.31,4.63-1,1.96-1.5,4.18-1.5,6.66s.49,4.63,1.47,6.59c.98,1.96,2.39,3.51,4.24,4.67,1.85,1.15,4.08,1.73,6.69,1.73s4.84-.58,6.69-1.73c1.85-1.15,3.26-2.71,4.24-4.67.98-1.96,1.47-4.15,1.47-6.59h0Z"/>
    <path class="cls-1" d="M733.36,345.86h-.26c-2.92,0-5.33.62-7.25,1.86-1.91,1.24-3.34,3.05-4.28,5.42-.24.6-.44,1.24-.62,1.9v-8.14h-4.96v34.86h6.26v-20.82c0-2.83.85-5.09,2.55-6.79,1.7-1.7,3.92-2.55,6.66-2.55s4.74.82,6.27,2.45c1.52,1.63,2.28,3.8,2.28,6.49v21.21h6.27v-19.91c0-5.18-1.06-9.14-3.17-11.88-2.11-2.74-5.36-4.11-9.76-4.11h0Z"/>
    <path class="cls-1" d="M757.9,336.2c-2.05,1.83-3.07,4.68-3.07,8.55v2.15h-4.83v4.7h4.83v30.16h6v-30.16h9.33v-4.7h-9.33v-3.2c0-1.57.44-2.8,1.31-3.69.87-.89,2.11-1.34,3.72-1.34h4.96v-5.22h-3.92c-3.96,0-6.96.91-9.01,2.74h0Z"/>
    <g>
      <path class="cls-1" d="M780.69,341.29c1.39,0,2.42-.37,3.1-1.11.67-.74,1.01-1.67,1.01-2.81s-.34-2.07-1.01-2.81c-.68-.74-1.71-1.11-3.1-1.11s-2.43.37-3.1,1.11c-.68.74-1.01,1.68-1.01,2.81s.34,2.07,1.01,2.81c.67.74,1.71,1.11,3.1,1.11Z"/>
      <polygon class="cls-1" points="778.93 346.9 773.83 346.9 773.83 351.86 778.93 351.86 778.93 381.76 785.19 381.76 785.19 351.86 785.19 346.9 778.93 346.9"/>
    </g>
    <path class="cls-1" d="M825.88,346.9v30.74c0,4.18-.64,7.56-1.92,10.15-1.28,2.59-3.33,4.49-6.13,5.71-2.81,1.22-6.54,1.83-11.2,1.83-1.61,0-3.23-.07-4.86-.2-1.63-.13-3.19-.3-4.67-.52v-5.29c1.57.22,3.21.4,4.93.55,1.72.15,3.34.23,4.86.23,3.18,0,5.71-.42,7.6-1.27,1.89-.85,3.27-2.18,4.11-3.98.85-1.81,1.27-4.12,1.27-6.95v-3.11c-.05.09-.08.18-.13.27-1.35,2.33-3.1,4.07-5.26,5.22-2.15,1.15-4.54,1.73-7.15,1.73-2.44,0-4.67-.47-6.69-1.4-2.02-.94-3.76-2.23-5.22-3.88-1.46-1.65-2.59-3.56-3.39-5.71-.81-2.15-1.21-4.43-1.21-6.82v-1.18c0-2.44.41-4.71,1.24-6.82.83-2.11,1.98-3.95,3.46-5.52,1.48-1.57,3.25-2.79,5.32-3.66,2.07-.87,4.34-1.31,6.82-1.31,2.91,0,5.48.62,7.7,1.86,2.22,1.24,3.97,3.05,5.26,5.42.11.2.19.43.29.64v-6.75h4.96ZM819.87,361.79c0-2.35-.53-4.33-1.6-5.94-1.07-1.61-2.45-2.83-4.14-3.66-1.7-.83-3.55-1.24-5.55-1.24-2.26,0-4.27.52-6.01,1.57-1.74,1.04-3.09,2.51-4.05,4.41-.96,1.89-1.44,4.12-1.44,6.69s.49,4.81,1.47,6.72c.98,1.91,2.33,3.38,4.05,4.41,1.72,1.02,3.69,1.53,5.91,1.53,2.09,0,3.99-.46,5.71-1.37,1.72-.91,3.09-2.23,4.11-3.95,1.02-1.72,1.53-3.77,1.53-6.17v-3h0Z"/>
    <path class="cls-1" d="M562.95,381.18l-12.48-34.12h6.4l10.13,28.89h1.37l8.56-28.89h6.14l-11.63,38.63c-1.05,3.44-2.72,5.95-5.03,7.52-2.31,1.57-5.25,2.35-8.82,2.35h-4.64v-5.62h5.03c2.18,0,3.89-.44,5.13-1.31,1.24-.87,2.19-2.4,2.84-4.58l.85-2.88h-3.86Z"/>
    <path class="cls-1" d="M531.63,383.14c-3.09,0-5.81-.72-8.14-2.16-2.33-1.44-4.11-3.51-5.33-6.21v7.19h-4.97v-47.71h6.27v18.82c1.31-2.44,3.07-4.25,5.29-5.42,2.22-1.18,4.68-1.76,7.39-1.76,3.35,0,6.27.81,8.76,2.42,2.48,1.61,4.42,3.77,5.82,6.47,1.39,2.7,2.09,5.71,2.09,9.02v1.18c0,3.27-.72,6.29-2.16,9.05-1.44,2.77-3.44,4.98-6.01,6.63-2.57,1.66-5.58,2.48-9.02,2.48h0ZM530.91,377.65c2.35,0,4.4-.57,6.14-1.7,1.74-1.13,3.09-2.69,4.05-4.67.96-1.98,1.44-4.28,1.44-6.89,0-3.92-1.07-7.07-3.2-9.44-2.14-2.37-4.95-3.56-8.43-3.56-2.09,0-4.03.47-5.82,1.4-1.79.94-3.21,2.29-4.28,4.05-1.07,1.76-1.6,3.89-1.6,6.37v3.01c0,2.4.54,4.45,1.63,6.14,1.09,1.7,2.53,3.01,4.31,3.92,1.79.91,3.7,1.37,5.75,1.37h0Z"/>
  </g>
  <g>
    <polygon class="cls-1" points="555.69 253.51 545 253.51 487.52 65.26 442.3 65.26 513.66 289.8 585.94 289.8 652.39 65.26 608.71 65.26 555.69 253.51 555.69 253.51"/>
    <path class="cls-1" d="M761.14,295.95c-17.43,0-32.71-2.72-45.83-8.15-13.12-5.43-23.33-13.27-30.6-23.53-7.28-10.25-10.92-22.55-10.92-36.91s3.54-25.63,10.61-35.06c7.07-9.43,16.45-16.3,28.14-20.61v-3.69c-9.23-3.69-16.82-9.48-22.76-17.38-5.95-7.89-8.92-17.89-8.92-29.99,0-13.53,3.54-24.86,10.61-33.99,7.07-9.12,16.71-15.99,28.91-20.61,12.2-4.61,25.78-6.92,40.75-6.92s28.81,2.31,40.91,6.92c12.1,4.61,21.73,11.49,28.91,20.61,7.18,9.13,10.76,20.45,10.76,33.99,0,12.1-2.97,22.1-8.92,29.99-5.95,7.9-13.53,13.69-22.76,17.38v3.69c11.69,4.31,21.07,11.23,28.14,20.76,7.07,9.53,10.61,21.17,10.61,34.91s-3.69,26.66-11.07,36.91c-7.38,10.25-17.64,18.1-30.76,23.53-13.12,5.43-28.4,8.15-45.83,8.15ZM761.14,259.97c13.94,0,25.01-3.18,33.22-9.53,8.2-6.35,12.3-15.48,12.3-27.37s-4.05-20.71-12.15-27.07c-8.1-6.35-19.22-9.53-33.37-9.53s-24.97,3.18-33.06,9.53c-8.1,6.36-12.15,15.38-12.15,27.07s4.05,21.02,12.15,27.37c8.1,6.36,19.12,9.53,33.06,9.53ZM761.14,153.86c11.69,0,21.02-2.46,27.99-7.38,6.97-4.92,10.46-12.3,10.46-22.14s-3.49-17.17-10.46-21.99c-6.97-4.82-16.3-7.23-27.99-7.23s-20.97,2.46-27.83,7.38c-6.87,4.92-10.3,12.2-10.3,21.84s3.43,17.22,10.3,22.14c6.87,4.92,16.15,7.38,27.83,7.38Z"/>
    <path class="cls-1" d="M994.43,161.69c-3.69,7.69-9.33,13.85-16.92,18.45-7.59,4.62-17.43,6.92-29.53,6.92h-46.13v-102.12h46.13c12.1,0,21.94,2.26,29.53,6.77,7.59,4.52,13.23,10.62,16.92,18.3,3.69,7.69,5.53,16.36,5.53,25.99s-1.85,17.99-5.53,25.69h0ZM988.74,73.26c-11.79-5.95-26.72-8.92-44.76-8.92h-65.51v225.47h23.38v-82.13h42.14c18.04,0,32.96-2.97,44.76-8.92,11.79-5.94,20.61-14.19,26.45-24.76,5.85-10.56,8.77-22.5,8.77-35.83v-4.31c0-13.54-2.93-25.53-8.77-35.99-5.84-10.46-14.66-18.66-26.45-24.6h0Z"/>
    <path class="cls-1" d="M1078.4,142.31c-6.92,7.53-11.5,17.84-13.85,30.8v-46.03h-18.45v162.72h23.07v-89.82c0-17.63,4.62-31.01,13.84-40.14,9.23-9.12,22.66-13.69,40.3-13.69h9.53v-20.91h-5.23c-22.36,0-38.76,5.69-49.21,17.07h0Z"/>
    <path class="cls-1" d="M1274.95,241.36c-4.92,9.95-12.05,17.95-21.38,23.99-9.33,6.05-20.77,9.08-34.3,9.08s-24.66-3.03-33.99-9.08c-9.33-6.04-16.45-14.04-21.37-23.99-4.92-9.94-7.38-20.96-7.38-33.07s2.51-23.43,7.53-33.38c5.02-9.94,12.25-17.84,21.69-23.69,9.43-5.84,20.61-8.76,33.53-8.76s24.4,2.92,33.84,8.76c9.43,5.84,16.65,13.74,21.68,23.69,5.03,9.95,7.54,21.07,7.54,33.38s-2.47,23.12-7.39,33.07h0ZM1282.64,148c-7.38-8-16.35-14.4-26.91-19.22-10.56-4.82-22.71-7.23-36.45-7.23s-25.58,2.41-36.14,7.23c-10.56,4.82-19.53,11.22-26.91,19.22-7.38,7.99-13.03,17.07-16.92,27.22-3.9,10.15-5.85,20.45-5.85,30.91v4.3c0,10.46,1.9,20.72,5.69,30.76,3.79,10.05,9.33,19.13,16.61,27.22,7.27,8.1,16.19,14.57,26.75,19.38,10.56,4.81,22.82,7.22,36.76,7.22s26.25-2.41,36.91-7.22c10.66-4.81,19.63-11.28,26.91-19.38,7.27-8.1,12.76-17.17,16.45-27.22,3.69-10.04,5.54-20.3,5.54-30.76v-4.3c0-10.46-1.9-20.76-5.69-30.91-3.79-10.15-9.38-19.23-16.76-27.22h0Z"/>
    <polygon class="cls-1" points="1321.09 259.35 1321.09 289.8 1350 289.8 1350 259.35 1321.09 259.35 1321.09 259.35"/>
  </g>
  <g>
    <path class="cls-1" d="M98.71,370.08v-2.53c-1.06-13.26,3.62-37.97,27.86-51.02,21.99-11.84,27.18-14.68,27.25-14.72l.4-.21s12.29-6.74,12.29-17.83v-64.06c-12.26,7.26-64.94,38.4-84.96,49.17-12.85,6.92-11.54,21.06-11.52,21.21l.09,1.62v61.85l28.6,16.51Z"/>
    <path class="cls-1" d="M129.87,365.43l.13,1.02-.07.4v21.26l36.62,21.14v-78.82c-3.22,1.75-10.45,5.66-25.18,13.59-12.26,6.6-11.61,19.91-11.5,21.41Z"/>
    <path class="cls-1" d="M282.69,221.86c-20.02-10.78-72.7-41.92-84.96-49.18v65.89c0,11.05,12.16,17.76,12.29,17.82l.4.21c.07.04,5.26,2.88,27.25,14.72,24.24,13.05,28.92,37.77,27.86,51.02v49.15l28.6-16.51v-111.33l.08-.59c.09-1.29.73-14.61-11.52-21.2Z"/>
    <path class="cls-1" d="M234.29,320.62l.08-.59c.1-1.29.73-14.61-11.52-21.21-14.58-7.85-21.81-11.76-25.08-13.54v125.32s.02,0,.03-.01l36.49-21.07v-68.91Z"/>
    <path class="cls-1" d="M352.23,93.03L197.81,3.88c-4.47-2.58-9.47-3.88-14.46-3.88s-9.99,1.29-14.46,3.88L14.46,93.03c-8.95,5.17-14.46,14.72-14.46,25.05v178.31c0,10.33,5.51,19.88,14.46,25.05l24.41,14.1v-43.12c-1.06-13.26,3.63-37.97,27.86-51.02,21.67-11.67,85.7-49.64,86.34-50.03l.9-.53.96-.41c.32-.15,11.57-5.39,11.57-15.71v-59.52c-7.3-5.04-12.09-13.46-12.09-23.01,0-15.44,12.52-27.96,27.96-27.96s27.96,12.52,27.96,27.96c0,9.76-5.01,18.35-12.59,23.35v12.15c0,10.33,11.26,15.57,11.74,15.78l.96.41.73.46c.65.38,64.66,38.36,86.34,50.03,24.23,13.05,28.92,37.76,27.86,51.02v91.57l26.88-15.52c8.95-5.17,14.46-14.72,14.46-25.05V118.08c0-10.33-5.51-19.88-14.46-25.05Z"/>
  </g>
</svg>