<?xml version="1.0" encoding="UTF-8"?>
<svg id="Layer_1" data-name="Layer 1" xmlns="http://www.w3.org/2000/svg" viewBox="0 0 1350 386.34">
  <defs>
    <style>
      .cls-1 {
        fill: #0321f9;
      }
    </style>
  </defs>
  <g>
    <path class="cls-1" d="M474.17,111.43h4.97v23.73h-9.38c-14.73,0-26.04,3.91-33.96,11.74-7.91,7.82-11.87,19.09-11.87,33.81v79.77h-26.49V113.08h20.98v44.35c1.88-13.33,6.23-23.68,13.11-30.96,9.48-10.03,23.69-15.04,42.65-15.04Z"/>
    <path class="cls-1" d="M648.34,227.63c-11.78,8.65-26.32,12.97-43.61,12.97-12.33,0-23.1-2.16-32.29-6.48-9.21-4.33-16.89-10.26-23.05-17.81-6.17-7.54-10.77-16.2-13.81-25.95-3.03-9.75-4.56-20.05-4.56-30.91,0-11.41,1.52-21.99,4.56-31.74,3.04-9.75,7.54-18.35,13.53-25.81,5.98-7.45,13.48-13.25,22.49-17.38,9.02-4.14,19.51-6.21,31.47-6.21,11.04,0,21.02,1.84,29.95,5.52,8.92,3.68,16.33,9.24,22.22,16.69,5.88,7.46,9.56,16.89,11.04,28.29h27.6c-1.66-15.27-6.25-28.52-13.8-39.74-7.55-11.22-17.76-19.97-30.64-26.22-12.88-6.25-28.34-9.38-46.37-9.38s-32.85,3.03-45.54,9.11c-12.69,6.07-23.01,14.07-30.91,24.02-7.92,9.93-13.76,20.98-17.53,33.12-3.77,12.15-5.66,24.29-5.66,36.44v6.07c0,11.23,1.84,22.86,5.52,34.92,3.68,12.05,9.48,23.23,17.39,33.54,7.9,10.3,18.35,18.68,31.32,25.12,12.98,6.43,28.66,9.66,47.07,9.66s34.73-3.41,47.89-10.21c13.16-6.8,23.46-15.91,30.91-27.33,7.46-11.41,12.1-24.02,13.94-37.81h-27.6c-2.58,16.38-9.76,28.89-21.53,37.54Z"/>
    <path class="cls-1" d="M866.13,156.55c-3.5-9.11-8.66-17.3-15.46-24.57-6.81-7.26-15.09-13.06-24.85-17.38-9.76-4.33-20.89-6.49-33.4-6.49s-23.65,2.16-33.4,6.49c-9.76,4.33-18.03,10.12-24.84,17.38-6.81,7.27-11.96,15.46-15.46,24.57-3.49,9.11-5.24,18.35-5.24,27.74v4.97c0,9.38,1.7,18.59,5.11,27.6,3.4,9.02,8.46,17.16,15.18,24.43,6.72,7.27,14.95,13.11,24.71,17.53,9.75,4.42,21.07,6.62,33.95,6.62s24.2-2.21,33.95-6.62c9.75-4.41,17.98-10.25,24.71-17.53,6.71-7.27,11.77-15.41,15.18-24.43,3.4-9.01,5.11-18.22,5.11-27.6v-4.97c0-9.39-1.75-18.63-5.24-27.74ZM838.66,214.66c-4.14,8.28-10.12,14.86-17.94,19.73-7.83,4.88-17.26,7.32-28.29,7.32s-20.47-2.43-28.29-7.32c-7.82-4.87-13.81-11.45-17.94-19.73-4.14-8.28-6.21-17.57-6.21-27.88s2.11-19.88,6.35-28.15c4.23-8.28,10.3-14.82,18.22-19.6,7.91-4.79,17.21-7.18,27.88-7.18s20.19,2.39,28.02,7.18c7.82,4.78,13.85,11.32,18.08,19.6,4.23,8.27,6.35,17.66,6.35,28.15s-2.07,19.6-6.21,27.88Z"/>
    <path class="cls-1" d="M965.22,108.66h-1.1c-12.33,0-22.54,2.62-30.64,7.86-8.1,5.25-14.12,12.89-18.08,22.91-1,2.54-1.87,5.22-2.62,8.05v-34.41h-20.98v147.4h26.49v-88.05c0-11.96,3.6-21.52,10.77-28.7,7.18-7.18,16.57-10.77,28.16-10.77s20.05,3.45,26.5,10.36c6.43,6.9,9.66,16.05,9.66,27.46v89.71h26.5v-84.19c0-21.9-4.46-38.64-13.39-50.24-8.93-11.59-22.69-17.38-41.27-17.38Z"/>
    <path class="cls-1" d="M1065.97,67.81c-8.65,7.73-12.97,19.78-12.97,36.16v9.11h-20.43v19.87h20.43v127.53h25.39v-127.53h39.47v-19.87h-39.47v-13.52c0-6.62,1.84-11.83,5.52-15.6,3.68-3.77,8.92-5.66,15.73-5.66h20.98v-22.08h-16.56c-16.75,0-29.45,3.86-38.09,11.59Z"/>
    <g>
      <path class="cls-1" d="M1161.75,89.34c5.88,0,10.25-1.56,13.11-4.69,2.85-3.12,4.28-7.08,4.28-11.87s-1.43-8.74-4.28-11.87c-2.86-3.12-7.22-4.69-13.11-4.69s-10.26,1.57-13.11,4.69c-2.86,3.13-4.28,7.09-4.28,11.87s1.42,8.75,4.28,11.87c2.85,3.13,7.22,4.69,13.11,4.69Z"/>
      <polygon class="cls-1" points="1154.3 113.08 1132.77 113.08 1132.77 134.05 1154.3 134.05 1154.3 260.48 1180.8 260.48 1180.8 134.05 1180.8 113.08 1154.3 113.08"/>
    </g>
    <path class="cls-1" d="M1329.02,113.08v28.53c-.43-.89-.77-1.86-1.24-2.72-5.43-10.03-12.84-17.66-22.22-22.91-9.39-5.24-20.25-7.87-32.57-7.87-10.49,0-20.11,1.84-28.85,5.52-8.74,3.68-16.24,8.83-22.5,15.46-6.26,6.62-11.14,14.4-14.63,23.33-3.5,8.92-5.24,18.54-5.24,28.84v4.97c0,10.12,1.7,19.73,5.11,28.84,3.4,9.11,8.18,17.16,14.35,24.15,6.16,7,13.52,12.47,22.08,16.42,8.55,3.96,17.98,5.94,28.29,5.94,11.04,0,21.11-2.44,30.22-7.32,9.11-4.88,16.52-12.23,22.22-22.08.21-.36.35-.77.55-1.13v13.14c0,11.97-1.79,21.76-5.38,29.4-3.59,7.63-9.38,13.24-17.39,16.84-8,3.59-18.72,5.38-32.16,5.38-6.44,0-13.29-.32-20.57-.97-7.26-.65-14.21-1.42-20.83-2.34v22.36c6.25.92,12.84,1.65,19.73,2.21,6.9.55,13.76.83,20.57.83,19.69,0,35.47-2.58,47.34-7.73,11.87-5.15,20.52-13.21,25.94-24.15,5.42-10.95,8.14-25.26,8.14-42.92V113.08h-20.98ZM1324.61,188.71c0,10.12-2.16,18.82-6.48,26.08-4.33,7.27-10.13,12.84-17.39,16.7-7.27,3.87-15.32,5.8-24.15,5.8-9.38,0-17.71-2.16-24.98-6.49-7.27-4.32-12.98-10.53-17.11-18.63-4.14-8.1-6.21-17.57-6.21-28.44s2.02-20.29,6.07-28.29c4.05-8,9.75-14.22,17.11-18.64,7.36-4.41,15.83-6.62,25.4-6.62,8.46,0,16.28,1.75,23.46,5.24,7.18,3.5,13.01,8.65,17.53,15.46,4.51,6.81,6.76,15.18,6.76,25.11v12.7Z"/>
  </g>
  <g>
    <path class="cls-1" d="M88.72,332.63v-2.27c-.95-11.92,3.26-34.13,25.04-45.86,19.76-10.64,24.43-13.2,24.49-13.23l.36-.19s11.04-6.06,11.04-16.02v-57.58c-11.02,6.52-58.37,34.51-76.36,44.2-11.55,6.22-10.37,18.93-10.36,19.06l.08,1.45v55.59l25.71,14.84Z"/>
    <path class="cls-1" d="M116.73,328.45l.12.91-.06.36v19.11l32.91,19v-70.85c-2.89,1.57-9.39,5.09-22.63,12.22-11.02,5.93-10.44,17.9-10.34,19.24Z"/>
    <path class="cls-1" d="M254.08,199.41c-18-9.69-65.34-37.68-76.36-44.2v59.23c0,9.94,10.93,15.96,11.04,16.02l.36.19c.06.03,4.73,2.59,24.49,13.23,21.78,11.73,25.99,33.94,25.04,45.86v44.18l25.71-14.84v-100.06l.08-.53c.08-1.16.66-13.13-10.35-19.06Z"/>
    <path class="cls-1" d="M210.59,288.18l.07-.53c.09-1.16.66-13.13-10.35-19.06-13.11-7.06-19.6-10.57-22.54-12.17v112.64s.02,0,.02-.01l32.8-18.93v-61.93Z"/>
    <path class="cls-1" d="M316.58,83.62L177.79,3.48c-4.02-2.32-8.51-3.48-13-3.48s-8.98,1.16-13,3.48L13,83.62c-8.04,4.64-13,13.23-13,22.52v160.26c0,9.29,4.96,17.87,13,22.52l21.94,12.67v-38.76c-.95-11.92,3.26-34.13,25.04-45.86,19.48-10.49,77.02-44.62,77.6-44.96l.8-.48.86-.37c.28-.13,10.4-4.84,10.4-14.12v-53.5c-6.56-4.53-10.87-12.1-10.87-20.68,0-13.88,11.25-25.13,25.13-25.13s25.13,11.25,25.13,25.13c0,8.77-4.5,16.49-11.32,20.98v10.92c0,9.28,10.12,13.99,10.55,14.19l.86.37.66.41c.58.34,58.12,34.48,77.6,44.96,21.78,11.73,25.99,33.94,25.04,45.86v82.31l24.16-13.95c8.04-4.64,13-13.23,13-22.52V106.13c0-9.29-4.96-17.87-13-22.52Z"/>
  </g>
  <g>
    <path class="cls-1" d="M435.89,340.2c-.88-2.37-2.15-4.47-3.81-6.31-1.66-1.84-3.7-3.29-6.12-4.34-2.42-1.06-5.19-1.58-8.31-1.58-3.77,0-7.19.92-10.23,2.76-3.05,1.84-5.45,4.34-7.21,7.51-1.76,3.17-2.64,6.82-2.64,10.95s.88,7.67,2.64,10.91c1.76,3.25,4.2,5.82,7.32,7.7,3.12,1.89,6.72,2.83,10.8,2.83,2.82,0,5.4-.44,7.74-1.32,2.34-.88,4.36-2.08,6.04-3.59,1.69-1.51,2.93-3.22,3.74-5.13l-6.95-3.47c-1.06,1.76-2.44,3.2-4.15,4.3-1.71,1.11-3.83,1.66-6.34,1.66-2.37,0-4.49-.58-6.38-1.74-1.89-1.16-3.35-2.77-4.38-4.83-.7-1.4-1-3.03-1.1-4.76h30.29c.15-.61.25-1.26.3-1.97.05-.7.08-1.38.08-2.04,0-2.67-.44-5.19-1.32-7.55ZM406.68,344.95c.19-1.16.49-2.26.94-3.25.96-2.11,2.32-3.74,4.08-4.87,1.76-1.13,3.75-1.7,5.96-1.7s4.26.57,5.97,1.7c1.71,1.13,2.97,2.67,3.78,4.61.45,1.08.65,2.27.71,3.51h-21.43Z"/>
    <path class="cls-1" d="M496.76,329.92c-2.29-1.31-4.85-1.96-7.67-1.96-3.22,0-6.08.81-8.57,2.41-1.72,1.12-3.12,2.66-4.23,4.57-.95-1.72-2.26-3.19-4-4.38-2.54-1.74-5.45-2.61-8.72-2.61-2.92,0-5.51.71-7.78,2.11-1.61,1-2.73,2.46-3.63,4.14v-5.35h-8.15v40.86h8.53v-24.09c0-2.01.36-3.74,1.1-5.17.73-1.44,1.75-2.55,3.06-3.36,1.31-.8,2.82-1.21,4.53-1.21s3.27.4,4.53,1.21c1.26.81,2.25,1.93,2.98,3.36s1.1,3.16,1.1,5.17v24.09h8.53v-24.09c0-2.01.38-3.74,1.13-5.17.76-1.44,1.79-2.55,3.1-3.36,1.31-.8,2.82-1.21,4.53-1.21s3.21.4,4.49,1.21c1.28.81,2.29,1.93,3.02,3.36.73,1.44,1.09,3.16,1.09,5.17v24.09h8.54v-26.43c0-2.97-.68-5.61-2.04-7.93-1.36-2.31-3.18-4.13-5.47-5.44Z"/>
    <path class="cls-1" d="M551.52,338.38c-1.79-3.22-4.23-5.76-7.32-7.63-3.1-1.86-6.58-2.79-10.46-2.79-3.22,0-6.09.65-8.61,1.96-2.05,1.06-3.68,2.55-5.06,4.29v-5.34h-8.15v55.96h8.53v-20.09c1.27,1.58,2.74,2.97,4.65,3.93,2.59,1.31,5.47,1.96,8.65,1.96,3.93,0,7.43-.94,10.5-2.83,3.07-1.89,5.5-4.44,7.29-7.67,1.79-3.22,2.68-6.85,2.68-10.87s-.89-7.65-2.68-10.88ZM543.7,356.17c-1.06,2.04-2.53,3.64-4.42,4.8-1.89,1.16-4.04,1.74-6.46,1.74s-4.42-.58-6.31-1.74c-1.89-1.16-3.37-2.76-4.46-4.8-1.08-2.04-1.62-4.34-1.62-6.91s.54-4.8,1.62-6.84c1.08-2.04,2.57-3.64,4.46-4.8,1.89-1.16,3.99-1.74,6.31-1.74s4.57.59,6.46,1.77c1.89,1.18,3.36,2.77,4.42,4.76,1.06,1.99,1.58,4.27,1.58,6.84s-.53,4.87-1.58,6.91Z"/>
    <path class="cls-1" d="M599.17,338.27c-1.89-3.2-4.43-5.71-7.63-7.55-3.2-1.84-6.81-2.76-10.84-2.76s-7.65.92-10.87,2.76c-3.22,1.84-5.78,4.36-7.67,7.55-1.89,3.2-2.83,6.86-2.83,10.99s.96,7.73,2.87,10.95c1.91,3.22,4.48,5.77,7.7,7.63,3.22,1.87,6.82,2.8,10.8,2.8s7.5-.92,10.73-2.76c3.22-1.84,5.79-4.37,7.7-7.59,1.91-3.22,2.87-6.9,2.87-11.03s-.94-7.79-2.83-10.99ZM591.47,356.17c-1.08,2.04-2.56,3.64-4.42,4.8-1.87,1.16-3.98,1.74-6.35,1.74s-4.49-.58-6.38-1.74c-1.89-1.16-3.37-2.76-4.46-4.8-1.08-2.04-1.62-4.34-1.62-6.91s.54-4.85,1.62-6.84c1.08-1.99,2.57-3.57,4.46-4.76,1.89-1.18,4.02-1.77,6.38-1.77s4.48.59,6.35,1.77c1.86,1.18,3.34,2.77,4.42,4.76,1.08,1.99,1.62,4.27,1.62,6.84s-.54,4.87-1.62,6.91Z"/>
    <polygon class="cls-1" points="648.52 356.65 639.24 328.87 631.46 328.87 622.11 356.65 612.96 328.87 603.89 328.87 617.94 369.72 625.72 369.72 635.35 340.7 644.98 369.72 652.68 369.72 666.81 328.87 657.74 328.87 648.52 356.65"/>
    <path class="cls-1" d="M707.02,340.2c-.88-2.37-2.15-4.47-3.81-6.31-1.66-1.84-3.7-3.29-6.12-4.34-2.42-1.06-5.19-1.58-8.31-1.58-3.77,0-7.19.92-10.23,2.76-3.05,1.84-5.45,4.34-7.21,7.51-1.76,3.17-2.64,6.82-2.64,10.95s.88,7.67,2.64,10.91c1.76,3.25,4.2,5.82,7.32,7.7,3.12,1.89,6.72,2.83,10.8,2.83,2.82,0,5.4-.44,7.74-1.32,2.34-.88,4.36-2.08,6.04-3.59,1.69-1.51,2.93-3.22,3.74-5.13l-6.95-3.47c-1.06,1.76-2.44,3.2-4.15,4.3-1.71,1.11-3.83,1.66-6.34,1.66-2.37,0-4.49-.58-6.38-1.74-1.89-1.16-3.35-2.77-4.38-4.83-.7-1.4-1-3.03-1.1-4.76h30.29c.15-.61.25-1.26.3-1.97.05-.7.08-1.38.08-2.04,0-2.67-.44-5.19-1.32-7.55ZM677.8,344.95c.19-1.16.49-2.26.94-3.25.96-2.11,2.32-3.74,4.08-4.87,1.76-1.13,3.75-1.7,5.96-1.7s4.26.57,5.97,1.7,2.97,2.67,3.78,4.61c.45,1.08.65,2.27.71,3.51h-21.43Z"/>
    <path class="cls-1" d="M726.92,330.11c-1.53.9-2.74,2.24-3.63,4.03v-5.27h-8.15v40.86h8.53v-23.56c0-3.17.87-5.64,2.61-7.4,1.74-1.76,4.02-2.64,6.84-2.64h3.55v-7.78h-2.49c-2.82,0-5.24.59-7.25,1.77Z"/>
    <g>
      <rect class="cls-1" x="740.97" y="313.46" width="8.53" height="9.82"/>
      <rect class="cls-1" x="740.97" y="328.87" width="8.53" height="40.86"/>
    </g>
    <path class="cls-1" d="M785.67,329.92c-2.32-1.31-4.98-1.96-8.01-1.96s-5.49.67-7.7,2c-1.66,1-2.87,2.46-3.85,4.16v-5.25h-8.15v40.86h8.53v-24.09c0-2.01.38-3.74,1.13-5.17.75-1.44,1.82-2.55,3.21-3.36,1.38-.8,2.96-1.21,4.72-1.21s3.32.4,4.68,1.21c1.36.81,2.42,1.93,3.17,3.36.76,1.44,1.13,3.16,1.13,5.17v24.09h8.54v-26.36c0-3.02-.66-5.69-1.97-8.01-1.31-2.31-3.12-4.13-5.44-5.44Z"/>
    <path class="cls-1" d="M832.05,328.87v5.37c-1.37-1.75-2.92-3.24-4.83-4.28-2.47-1.33-5.26-2-8.38-2-3.78,0-7.16.88-10.16,2.64-3,1.76-5.35,4.16-7.06,7.18-1.71,3.02-2.57,6.47-2.57,10.35s.85,7.28,2.57,10.35c1.71,3.07,4.08,5.49,7.1,7.25,3.02,1.76,6.44,2.64,10.27,2.64,3.12,0,5.93-.68,8.42-2.04,1.71-.93,3.07-2.25,4.27-3.75v5.26c0,2.22-.49,4.12-1.47,5.7-.98,1.58-2.33,2.79-4.04,3.63-1.71.83-3.65,1.25-5.82,1.25-2.77,0-5.1-.63-6.99-1.89-1.89-1.26-3.19-2.85-3.89-4.76l-7.85,3.25c.85,2.27,2.19,4.24,4,5.93,1.81,1.69,3.99,3.01,6.53,3.96,2.54.96,5.3,1.44,8.27,1.44,3.83,0,7.24-.81,10.23-2.42,2.99-1.61,5.33-3.81,7.02-6.61,1.68-2.8,2.53-5.95,2.53-9.48v-38.97h-8.16ZM830.12,354.43c-1.03,1.84-2.43,3.3-4.19,4.38-1.76,1.08-3.77,1.62-6.04,1.62s-4.3-.54-6.12-1.62c-1.81-1.08-3.23-2.56-4.27-4.42-1.03-1.86-1.55-3.93-1.55-6.19s.52-4.41,1.55-6.27c1.03-1.86,2.46-3.34,4.27-4.42,1.81-1.08,3.85-1.62,6.12-1.62s4.28.54,6.04,1.62c1.76,1.08,3.16,2.56,4.19,4.42,1.03,1.86,1.55,3.95,1.55,6.27s-.52,4.39-1.55,6.23Z"/>
    <path class="cls-1" d="M886.99,330.08c-2.29-1.31-4.9-1.97-7.82-1.97s-5.65.72-7.89,2.15c-1.6,1.02-2.77,2.44-3.74,4.04v-5.28h-6.95v40.71h7.1v-24.09c0-2.21.43-4.12,1.28-5.7.85-1.58,2.03-2.81,3.51-3.66,1.48-.85,3.18-1.28,5.1-1.28s3.61.43,5.1,1.28c1.48.86,2.63,2.07,3.44,3.63.8,1.56,1.21,3.47,1.21,5.74v24.09h7.1v-26.36c0-2.92-.67-5.54-2-7.85-1.34-2.31-3.15-4.13-5.44-5.44Z"/>
    <path class="cls-1" d="M938.87,340.38c-.88-2.34-2.14-4.43-3.78-6.27s-3.62-3.3-5.96-4.38c-2.34-1.08-5.02-1.62-8.04-1.62-3.77,0-7.15.92-10.12,2.76-2.97,1.84-5.34,4.34-7.1,7.51-1.76,3.17-2.64,6.8-2.64,10.88s.88,7.67,2.64,10.91c1.76,3.25,4.19,5.8,7.29,7.66,3.1,1.87,6.61,2.8,10.54,2.8,2.77,0,5.31-.45,7.63-1.36,2.31-.91,4.32-2.13,6-3.66s2.93-3.23,3.74-5.1l-5.89-3.02c-1.16,1.96-2.67,3.57-4.53,4.83-1.87,1.26-4.16,1.89-6.87,1.89-2.47,0-4.75-.62-6.84-1.85-2.09-1.23-3.7-2.97-4.83-5.21-.84-1.65-1.18-3.57-1.29-5.63h31.01c.1-.65.19-1.31.26-1.96.08-.65.11-1.28.11-1.89,0-2.52-.44-4.95-1.32-7.29ZM908.86,345.41c.21-1.45.57-2.8,1.16-4,1.08-2.22,2.61-3.94,4.57-5.17s4.13-1.85,6.49-1.85,4.48.6,6.35,1.81c1.86,1.21,3.27,2.85,4.23,4.91.61,1.31.81,2.77.83,4.3h-23.62Z"/>
    <path class="cls-1" d="M965.79,363.76c-1.66,0-3-.29-4-.87-1.01-.58-1.73-1.37-2.15-2.38-.43-1.01-.64-2.19-.64-3.55v-21.22h9.14v-6.72h-9.14v-9.37h-7.1v3.32c0,1.81-.52,3.27-1.55,4.38-1.03,1.11-2.45,1.66-4.27,1.66h-1.51v6.72h7.33v21.45c0,4.13,1.08,7.32,3.25,9.59,2.16,2.27,5.23,3.4,9.21,3.4.55,0,1.23-.04,2.04-.11.8-.08,1.54-.19,2.19-.34v-6.19c-.45.05-.94.1-1.47.15-.53.05-.97.08-1.32.08Z"/>
    <polygon class="cls-1" points="1014.84 358.85 1005.29 329.02 998.65 329.02 989.11 358.83 979.39 329.02 971.61 329.02 985.58 369.72 992.3 369.72 1001.97 339.09 1011.64 369.72 1018.36 369.72 1032.33 329.02 1024.63 329.02 1014.84 358.85"/>
    <path class="cls-1" d="M1073.83,338.38c-1.84-3.17-4.34-5.67-7.51-7.51-3.17-1.84-6.75-2.76-10.73-2.76s-7.48.93-10.65,2.8c-3.17,1.86-5.69,4.38-7.55,7.55-1.86,3.17-2.79,6.8-2.79,10.88s.94,7.73,2.83,10.95c1.89,3.22,4.42,5.75,7.59,7.59,3.17,1.84,6.69,2.76,10.57,2.76s7.39-.92,10.53-2.76c3.15-1.84,5.68-4.36,7.59-7.55,1.91-3.2,2.87-6.86,2.87-10.99s-.92-7.78-2.76-10.95ZM1067.33,356.73c-1.18,2.22-2.79,3.95-4.83,5.21-2.04,1.26-4.34,1.89-6.91,1.89s-4.8-.63-6.83-1.89c-2.04-1.26-3.66-3-4.87-5.21-1.21-2.21-1.81-4.68-1.81-7.4s.61-5.16,1.81-7.33c1.21-2.16,2.83-3.88,4.87-5.13,2.04-1.26,4.32-1.89,6.83-1.89s4.87.63,6.91,1.89c2.04,1.26,3.65,2.97,4.83,5.13,1.18,2.17,1.77,4.61,1.77,7.33s-.59,5.19-1.77,7.4Z"/>
    <path class="cls-1" d="M1094.71,330.26c-1.55.9-2.7,2.27-3.63,3.91v-5.16h-6.95v40.71h7.1v-24.24c0-3.27.88-5.79,2.64-7.55,1.76-1.76,4.08-2.64,6.95-2.64h3.55v-6.72h-2.49c-2.82,0-5.21.57-7.18,1.7Z"/>
    <polygon class="cls-1" points="1143.88 329.02 1134.89 329.02 1116.16 348.14 1116.16 312.55 1109.06 312.55 1109.06 369.72 1116.16 369.72 1116.16 357.52 1123.12 350.21 1136.62 369.72 1144.93 369.72 1128.24 345.41 1143.88 329.02"/>
    <path class="cls-1" d="M1176.39,351.52c-1.84-2.01-4.42-3.5-7.74-4.46l-6.65-1.97c-.81-.25-1.64-.57-2.49-.94-.86-.38-1.59-.93-2.19-1.66-.61-.73-.91-1.65-.91-2.76,0-1.61.61-2.92,1.81-3.93,1.21-1.01,2.84-1.51,4.91-1.51,2.27,0,4.31.6,6.12,1.81,1.81,1.21,3.17,2.87,4.08,4.99l5.74-2.64c-1.21-3.27-3.23-5.82-6.08-7.63-2.84-1.81-6.05-2.72-9.63-2.72-2.67,0-5.07.51-7.21,1.51-2.14,1.01-3.83,2.4-5.06,4.19-1.24,1.79-1.85,3.89-1.85,6.31,0,2.62.84,4.92,2.53,6.91,1.69,1.99,4.34,3.49,7.97,4.49l6.12,1.74c.85.2,1.75.52,2.68.94.93.43,1.74,1.01,2.42,1.74.68.73,1.02,1.7,1.02,2.91,0,1.71-.73,3.1-2.19,4.16-1.46,1.06-3.27,1.58-5.44,1.58-2.47,0-4.71-.7-6.72-2.11-2.01-1.41-3.6-3.32-4.76-5.74l-5.66,2.72c1.31,3.42,3.47,6.14,6.5,8.16,3.02,2.01,6.57,3.02,10.65,3.02,2.92,0,5.49-.5,7.71-1.51,2.21-1.01,3.95-2.42,5.21-4.23,1.26-1.81,1.89-3.85,1.89-6.12,0-2.82-.92-5.23-2.76-7.25Z"/>
  </g>
</svg>