<?xml version="1.0" encoding="UTF-8"?>
<svg id="Layer_1" data-name="Layer 1" xmlns="http://www.w3.org/2000/svg" viewBox="0 0 1350 430.61">
  <defs>
    <style>
      .cls-1 {
        fill: #0321f9;
      }
    </style>
  </defs>
  <polygon class="cls-1" points="197.23 6.93 249 6.93 170.25 273.06 84.58 273.06 0 6.93 53.59 6.93 121.72 230.04 134.39 230.04 197.23 6.93"/>
  <path class="cls-1" d="M453.7,140c-7.17-13.37-17.44-23.82-30.81-31.36-13.36-7.53-29.53-11.3-48.49-11.3-16.29,0-30.74,3.1-43.38,9.3-12.22,5.99-21.83,14.89-28.93,26.57.54-16.78,2.88-31.32,7.24-43.34,4.98-13.72,13.31-24.12,24.97-31.17,11.67-7.05,27.71-10.57,48.13-10.57,9.72,0,18.77.31,27.15.91,8.39.61,16.59,1.28,24.62,2V7.65c-8.03-.97-16.04-1.69-24.06-2.19-8.03-.48-16.65-.72-25.88-.72-42.54,0-74.8,11.24-96.8,33.72-22,22.48-33,55.59-33,99.34v16.04c0,17.25,1.95,33.53,5.84,48.85,3.88,15.31,10.09,28.87,18.59,40.65,8.51,11.79,19.63,20.96,33.37,27.52,13.72,6.56,30.43,9.85,50.12,9.85,21.15,0,39.31-3.96,54.5-11.85,15.19-7.9,26.92-18.96,35.18-33.18,8.26-14.22,12.4-30.56,12.4-49.03s-3.59-33.3-10.75-46.66ZM408.32,213.27c-4.14,7.54-10.15,13.44-18.04,17.69-7.91,4.26-17.57,6.38-28.99,6.38-12.16,0-22.3-2.19-30.44-6.57-8.15-4.37-14.22-10.32-18.23-17.86-4-7.54-6.01-16.04-6.01-25.53,0-10.93,2.49-20.11,7.47-27.52,4.98-7.41,11.79-13,20.42-16.78,8.62-3.76,18.17-5.65,28.62-5.65s20.24,2.13,27.89,6.38c7.66,4.26,13.49,10.09,17.5,17.5,4.01,7.41,6.02,16.1,6.02,26.06s-2.07,18.36-6.19,25.88Z"/>
  <path class="cls-1" d="M692.31,235.33c-16.53,12.27-36.95,18.41-61.24,18.41-17.5,0-32.81-3.1-45.94-9.3-13.12-6.19-24.06-14.7-32.81-25.52-8.75-10.82-15.25-23.02-19.5-36.64-4.26-13.61-6.38-27.82-6.38-42.65,0-15.56,2.19-30.2,6.56-43.93,4.38-13.73,10.82-25.89,19.32-36.46,8.51-10.57,19.14-18.83,31.9-24.79,12.76-5.95,27.53-8.93,44.3-8.93,15.56,0,29.71,2.68,42.47,8.02,12.76,5.35,23.27,13.31,31.53,23.88,8.26,10.57,13.36,23.76,15.32,39.56h28.06c-2.18-19.69-8.26-36.76-18.22-51.22-9.97-14.46-23.28-25.71-39.93-33.72-16.65-8.03-36.4-12.03-59.24-12.03s-42.17,3.95-58.69,11.84c-16.53,7.91-30.08,18.41-40.65,31.54-10.57,13.12-18.36,27.76-23.34,43.93-4.98,16.17-7.47,32.39-7.47,48.67v6.93c0,15.08,2.42,30.56,7.29,46.49,4.86,15.92,12.57,30.69,23.15,44.3,10.57,13.61,24.31,24.6,41.19,32.99,16.89,8.38,37.25,12.58,61.07,12.58s43.8-4.25,60.7-12.75c16.89-8.51,30.32-20.11,40.28-34.82,9.96-14.7,16.29-31.17,18.96-49.4h-28.06c-3.89,23.09-14.1,40.78-30.63,53.05Z"/>
  <path class="cls-1" d="M971.38,137.26c-4.49-12.03-11.12-22.79-19.87-32.27-8.75-9.48-19.38-17.07-31.9-22.78-12.52-5.72-26.92-8.57-43.2-8.57s-30.32,2.86-42.84,8.57c-12.52,5.71-23.15,13.3-31.9,22.78-8.75,9.47-15.44,20.23-20.06,32.27-4.61,12.03-6.93,24.24-6.93,36.63v5.1c0,12.4,2.25,24.56,6.75,36.46,4.49,11.92,11.05,22.67,19.69,32.26,8.62,9.61,19.19,17.27,31.71,22.97,12.52,5.71,27.04,8.56,43.57,8.56s31.11-2.86,43.75-8.56c12.63-5.7,23.26-13.36,31.9-22.97,8.62-9.6,15.12-20.35,19.5-32.26,4.37-11.9,6.56-24.06,6.56-36.46v-5.1c0-12.4-2.25-24.6-6.75-36.63ZM942.41,215.64c-5.84,11.78-14.28,21.27-25.34,28.43-11.06,7.17-24.61,10.76-40.65,10.76s-29.23-3.59-40.29-10.76c-11.06-7.16-19.5-16.65-25.33-28.43-5.84-11.78-8.75-24.85-8.75-39.19s2.97-27.76,8.93-39.56c5.95-11.79,14.52-21.15,25.71-28.07,11.17-6.93,24.43-10.39,39.74-10.39s28.92,3.46,40.1,10.39c11.17,6.93,19.74,16.29,25.7,28.07,5.96,11.79,8.94,24.97,8.94,39.56s-2.92,27.41-8.75,39.19Z"/>
  <path class="cls-1" d="M1046.68,98.25c-8.2,8.93-13.63,21.15-16.41,36.51v-54.56h-21.87v192.86h27.34v-106.46c0-20.89,5.47-36.76,16.4-47.57,10.94-10.81,26.85-16.22,47.76-16.22h11.3v-24.79h-6.19c-26.5,0-45.94,6.74-58.33,20.23Z"/>
  <path class="cls-1" d="M1296.78,166.6c0-16.04-3.41-31.04-10.21-45.02-6.81-13.98-16.96-25.46-30.44-34.46-13.49-8.98-30.32-13.49-50.5-13.49-15.8,0-29.59,2.86-41.37,8.57-11.8,5.71-21.58,13.3-29.35,22.78-7.78,9.47-13.55,20.18-17.31,32.08-3.78,11.92-5.66,24.07-5.66,36.46v5.1c0,12.64,1.88,24.93,5.66,36.83,3.76,11.92,9.53,22.67,17.31,32.26,7.77,9.61,17.75,17.27,29.9,22.97,12.15,5.71,26.49,8.56,43.02,8.56,15.31,0,28.92-2.55,40.84-7.65,11.9-5.1,21.75-12.33,29.53-21.69,7.77-9.35,12.88-20.47,15.31-33.36h-25.53c-2.42,10.45-8.87,19.5-19.31,27.15-10.46,7.66-24.07,11.49-40.84,11.49-15.8,0-28.86-3.51-39.19-10.57-10.33-7.04-17.99-16.59-22.97-28.62-4.43-10.7-6.78-22.46-7.26-35.18h158.39v-14.22ZM1139.41,159.68c1.18-8.35,3.18-16.17,6.24-23.33,4.98-11.66,12.45-21.02,22.42-28.07,9.96-7.05,22.48-10.57,37.55-10.57s26.31,3.1,35.91,9.29c9.6,6.2,16.89,14.71,21.88,25.53,3.71,8.07,6.04,17.12,6.98,27.15h-130.99Z"/>
  <rect class="cls-1" x="1315.73" y="236.97" width="34.27" height="36.09"/>
</svg>