<?xml version="1.0" encoding="UTF-8"?>
<svg id="Layer_1" data-name="Layer 1" xmlns="http://www.w3.org/2000/svg" viewBox="0 0 1350 430.61">
  <defs>
    <style>
      .cls-1 {
        fill: #0321f9;
      }
    </style>
  </defs>
  <g>
    <polygon class="cls-1" points="197.23 6.93 249 6.93 170.25 273.06 84.58 273.06 0 6.93 53.59 6.93 121.72 230.04 134.39 230.04 197.23 6.93"/>
    <path class="cls-1" d="M453.7,140c-7.17-13.37-17.44-23.82-30.81-31.36-13.36-7.53-29.53-11.3-48.49-11.3-16.29,0-30.74,3.1-43.38,9.3-12.22,5.99-21.83,14.89-28.93,26.57.54-16.78,2.88-31.32,7.24-43.34,4.98-13.72,13.31-24.12,24.97-31.17,11.67-7.05,27.71-10.57,48.13-10.57,9.72,0,18.77.31,27.15.91,8.39.61,16.59,1.28,24.62,2V7.65c-8.03-.97-16.04-1.69-24.06-2.19-8.03-.48-16.65-.72-25.88-.72-42.54,0-74.8,11.24-96.8,33.72-22,22.48-33,55.59-33,99.34v16.04c0,17.25,1.95,33.53,5.84,48.85,3.88,15.31,10.09,28.87,18.59,40.65,8.51,11.79,19.63,20.96,33.37,27.52,13.72,6.56,30.43,9.85,50.12,9.85,21.15,0,39.31-3.96,54.5-11.85,15.19-7.9,26.92-18.96,35.18-33.18,8.26-14.22,12.4-30.56,12.4-49.03s-3.59-33.3-10.75-46.66ZM408.32,213.27c-4.14,7.54-10.15,13.44-18.04,17.69-7.91,4.26-17.57,6.38-28.99,6.38-12.16,0-22.3-2.19-30.44-6.57-8.15-4.37-14.22-10.32-18.23-17.86-4-7.54-6.01-16.04-6.01-25.53,0-10.93,2.49-20.11,7.47-27.52,4.98-7.41,11.79-13,20.42-16.78,8.62-3.76,18.17-5.65,28.62-5.65s20.24,2.13,27.89,6.38c7.66,4.26,13.49,10.09,17.5,17.5,4.01,7.41,6.02,16.1,6.02,26.06s-2.07,18.36-6.19,25.88Z"/>
    <path class="cls-1" d="M692.31,235.33c-16.53,12.27-36.95,18.41-61.24,18.41-17.5,0-32.81-3.1-45.94-9.3-13.12-6.19-24.06-14.7-32.81-25.52-8.75-10.82-15.25-23.02-19.5-36.64-4.26-13.61-6.38-27.82-6.38-42.65,0-15.56,2.19-30.2,6.56-43.93,4.38-13.73,10.82-25.89,19.32-36.46,8.51-10.57,19.14-18.83,31.9-24.79,12.76-5.95,27.53-8.93,44.3-8.93,15.56,0,29.71,2.68,42.47,8.02,12.76,5.35,23.27,13.31,31.53,23.88,8.26,10.57,13.36,23.76,15.32,39.56h28.06c-2.18-19.69-8.26-36.76-18.22-51.22-9.97-14.46-23.28-25.71-39.93-33.72-16.65-8.03-36.4-12.03-59.24-12.03s-42.17,3.95-58.69,11.84c-16.53,7.91-30.08,18.41-40.65,31.54-10.57,13.12-18.36,27.76-23.34,43.93-4.98,16.17-7.47,32.39-7.47,48.67v6.93c0,15.08,2.42,30.56,7.29,46.49,4.86,15.92,12.57,30.69,23.15,44.3,10.57,13.61,24.31,24.6,41.19,32.99,16.89,8.38,37.25,12.58,61.07,12.58s43.8-4.25,60.7-12.75c16.89-8.51,30.32-20.11,40.28-34.82,9.96-14.7,16.29-31.17,18.96-49.4h-28.06c-3.89,23.09-14.1,40.78-30.63,53.05Z"/>
    <path class="cls-1" d="M971.38,137.26c-4.49-12.03-11.12-22.79-19.87-32.27-8.75-9.48-19.38-17.07-31.9-22.78-12.52-5.72-26.92-8.57-43.2-8.57s-30.32,2.86-42.84,8.57c-12.52,5.71-23.15,13.3-31.9,22.78-8.75,9.47-15.44,20.23-20.06,32.27-4.61,12.03-6.93,24.24-6.93,36.63v5.1c0,12.4,2.25,24.56,6.75,36.46,4.49,11.92,11.05,22.67,19.69,32.26,8.62,9.61,19.19,17.27,31.71,22.97,12.52,5.71,27.04,8.56,43.57,8.56s31.11-2.86,43.75-8.56c12.63-5.7,23.26-13.36,31.9-22.97,8.62-9.6,15.12-20.35,19.5-32.26,4.37-11.9,6.56-24.06,6.56-36.46v-5.1c0-12.4-2.25-24.6-6.75-36.63ZM942.41,215.64c-5.84,11.78-14.28,21.27-25.34,28.43-11.06,7.17-24.61,10.76-40.65,10.76s-29.23-3.59-40.29-10.76c-11.06-7.16-19.5-16.65-25.33-28.43-5.84-11.78-8.75-24.85-8.75-39.19s2.97-27.76,8.93-39.56c5.95-11.79,14.52-21.15,25.71-28.07,11.17-6.93,24.43-10.39,39.74-10.39s28.92,3.46,40.1,10.39c11.17,6.93,19.74,16.29,25.7,28.07,5.96,11.79,8.94,24.97,8.94,39.56s-2.92,27.41-8.75,39.19Z"/>
    <path class="cls-1" d="M1046.68,98.25c-8.2,8.93-13.63,21.15-16.41,36.51v-54.56h-21.87v192.86h27.34v-106.46c0-20.89,5.47-36.76,16.4-47.57,10.94-10.81,26.85-16.22,47.76-16.22h11.3v-24.79h-6.19c-26.5,0-45.94,6.74-58.33,20.23Z"/>
    <path class="cls-1" d="M1296.78,166.6c0-16.04-3.41-31.04-10.21-45.02-6.81-13.98-16.96-25.46-30.44-34.46-13.49-8.98-30.32-13.49-50.5-13.49-15.8,0-29.59,2.86-41.37,8.57-11.8,5.71-21.58,13.3-29.35,22.78-7.78,9.47-13.55,20.18-17.31,32.08-3.78,11.92-5.66,24.07-5.66,36.46v5.1c0,12.64,1.88,24.93,5.66,36.83,3.76,11.92,9.53,22.67,17.31,32.26,7.77,9.61,17.75,17.27,29.9,22.97,12.15,5.71,26.49,8.56,43.02,8.56,15.31,0,28.92-2.55,40.84-7.65,11.9-5.1,21.75-12.33,29.53-21.69,7.77-9.35,12.88-20.47,15.31-33.36h-25.53c-2.42,10.45-8.87,19.5-19.31,27.15-10.46,7.66-24.07,11.49-40.84,11.49-15.8,0-28.86-3.51-39.19-10.57-10.33-7.04-17.99-16.59-22.97-28.62-4.43-10.7-6.78-22.46-7.26-35.18h158.39v-14.22ZM1139.41,159.68c1.18-8.35,3.18-16.17,6.24-23.33,4.98-11.66,12.45-21.02,22.42-28.07,9.96-7.05,22.48-10.57,37.55-10.57s26.31,3.1,35.91,9.29c9.6,6.2,16.89,14.71,21.88,25.53,3.71,8.07,6.04,17.12,6.98,27.15h-130.99Z"/>
    <rect class="cls-1" x="1315.73" y="236.97" width="34.27" height="36.09"/>
  </g>
  <g>
    <path class="cls-1" d="M135.9,372.91c-1.17-3.21-2.86-6.04-5.06-8.47-2.21-2.43-4.84-4.35-7.89-5.75-3.05-1.4-6.43-2.09-10.13-2.09-3.96,0-7.58.86-10.86,2.58-3.28,1.72-5.93,4.37-7.94,7.94-.04.06-.06.14-.1.21v-28.06h-9.35v71.09h7.4v-10.79c.23.5.43,1.02.68,1.49,1.95,3.6,4.59,6.35,7.94,8.23,3.34,1.88,7.16,2.83,11.44,2.83,3.83,0,7.32-.72,10.47-2.14,3.15-1.43,5.86-3.39,8.13-5.89,2.27-2.5,4.01-5.37,5.21-8.62,1.2-3.24,1.8-6.72,1.8-10.42v-1.75c0-3.7-.59-7.16-1.75-10.37ZM126.16,394.43c-1.43,2.96-3.44,5.28-6.04,6.96-2.6,1.69-5.65,2.53-9.15,2.53-3.05,0-5.91-.68-8.57-2.05-2.67-1.36-4.81-3.31-6.43-5.84-1.63-2.53-2.43-5.58-2.43-9.16v-4.48c0-3.7.79-6.87,2.38-9.5s3.72-4.64,6.38-6.04c2.66-1.4,5.55-2.09,8.67-2.09,3.44,0,6.46.79,9.06,2.38,2.59,1.59,4.62,3.85,6.08,6.77,1.46,2.92,2.19,6.33,2.19,10.22s-.71,7.32-2.14,10.27Z"/>
    <path class="cls-1" d="M179.04,358.35h9.15l-17.33,57.55c-1.04,3.44-2.5,6.25-4.38,8.42-1.88,2.17-4.17,3.76-6.87,4.77-2.7,1-5.83,1.51-9.4,1.51h-6.92v-8.37h7.5c2.21,0,4.07-.28,5.6-.83,1.53-.55,2.79-1.48,3.8-2.78,1-1.3,1.83-3.02,2.48-5.16l1.27-4.29h-5.75l-18.6-50.83h9.54l15.09,43.04h2.03l12.78-43.04Z"/>
    <path class="cls-1" d="M241.48,357.92h1.75v8.35h-3.3c-5.18,0-9.16,1.38-11.95,4.13-2.78,2.75-4.18,6.72-4.18,11.9v28.06h-9.32v-51.85h7.38v15.6c.66-4.69,2.19-8.33,4.61-10.89,3.33-3.53,8.33-5.29,15-5.29Z"/>
    <path class="cls-1" d="M302.75,398.8c-4.14,3.04-9.26,4.56-15.34,4.56-4.34,0-8.13-.76-11.36-2.28-3.24-1.52-5.94-3.61-8.11-6.26-2.17-2.65-3.79-5.7-4.86-9.13-1.07-3.43-1.6-7.05-1.6-10.87,0-4.01.54-7.73,1.6-11.17,1.07-3.43,2.65-6.46,4.76-9.08,2.1-2.62,4.74-4.66,7.91-6.12,3.17-1.46,6.86-2.19,11.07-2.19,3.88,0,7.39.65,10.54,1.94,3.14,1.29,5.74,3.25,7.82,5.87,2.07,2.62,3.36,5.94,3.88,9.95h9.71c-.58-5.37-2.2-10.03-4.85-13.98-2.66-3.95-6.25-7.02-10.78-9.22-4.53-2.2-9.97-3.3-16.31-3.3s-11.56,1.07-16.02,3.2c-4.47,2.14-8.09,4.95-10.87,8.45-2.79,3.49-4.84,7.38-6.17,11.65-1.33,4.27-1.99,8.55-1.99,12.82v2.14c0,3.95.65,8.04,1.94,12.28,1.29,4.24,3.33,8.17,6.12,11.8,2.78,3.62,6.46,6.57,11.02,8.84,4.57,2.26,10.08,3.4,16.56,3.4s12.22-1.2,16.85-3.59c4.63-2.39,8.25-5.6,10.87-9.61,2.62-4.01,4.26-8.45,4.9-13.3h-9.71c-.91,5.76-3.43,10.16-7.57,13.2Z"/>
    <path class="cls-1" d="M379.36,373.8c-1.23-3.2-3.05-6.08-5.44-8.64-2.4-2.56-5.31-4.59-8.74-6.12-3.43-1.52-7.35-2.28-11.75-2.28s-8.32.76-11.75,2.28c-3.43,1.52-6.34,3.56-8.74,6.12-2.4,2.56-4.21,5.44-5.44,8.64-1.23,3.2-1.84,6.46-1.84,9.76v1.75c0,3.3.6,6.54,1.8,9.71,1.2,3.17,2.98,6.04,5.34,8.59,2.36,2.56,5.26,4.61,8.69,6.17,3.43,1.55,7.41,2.33,11.94,2.33s8.51-.78,11.94-2.33c3.43-1.55,6.33-3.61,8.69-6.17,2.36-2.56,4.14-5.42,5.34-8.59,1.2-3.17,1.8-6.41,1.8-9.71v-1.75c0-3.3-.62-6.55-1.84-9.76ZM369.7,394.23c-1.46,2.91-3.56,5.23-6.31,6.94-2.75,1.72-6.07,2.57-9.95,2.57s-7.2-.86-9.95-2.57c-2.75-1.71-4.86-4.03-6.31-6.94-1.46-2.91-2.19-6.18-2.19-9.81s.74-6.99,2.23-9.9c1.49-2.91,3.62-5.21,6.41-6.89,2.78-1.68,6.05-2.53,9.81-2.53s7.1.84,9.86,2.53c2.75,1.68,4.87,3.98,6.36,6.89,1.49,2.91,2.23,6.21,2.23,9.9s-.73,6.89-2.19,9.81Z"/>
    <path class="cls-1" d="M414.22,356.95h-.39c-4.34,0-7.93.92-10.78,2.77-2.85,1.85-4.97,4.53-6.36,8.06-.35.89-.66,1.84-.92,2.83v-12.11h-7.38v51.85h9.32v-30.98c0-4.21,1.26-7.57,3.79-10.1,2.53-2.53,5.83-3.79,9.91-3.79s7.05,1.21,9.32,3.64c2.26,2.43,3.4,5.65,3.4,9.66v31.56h9.32v-29.62c0-7.7-1.57-13.59-4.71-17.67-3.14-4.08-7.98-6.12-14.52-6.12Z"/>
    <path class="cls-1" d="M449.66,342.58c-3.04,2.72-4.56,6.96-4.56,12.72v3.2h-7.19v6.99h7.19v44.86h8.93v-44.86h13.89v-6.99h-13.89v-4.76c0-2.33.65-4.16,1.94-5.49,1.29-1.33,3.14-1.99,5.53-1.99h7.38v-7.77h-5.82c-5.89,0-10.36,1.36-13.4,4.08Z"/>
    <g>
      <path class="cls-1" d="M483.36,350.15c2.07,0,3.61-.55,4.61-1.65,1-1.1,1.51-2.49,1.51-4.18s-.5-3.07-1.51-4.18c-1-1.1-2.54-1.65-4.61-1.65s-3.61.55-4.61,1.65c-1,1.1-1.5,2.49-1.5,4.18s.5,3.08,1.5,4.18c1,1.1,2.54,1.65,4.61,1.65Z"/>
      <polygon class="cls-1" points="480.74 358.5 473.16 358.5 473.16 365.88 480.74 365.88 480.74 410.35 490.06 410.35 490.06 365.88 490.06 358.5 480.74 358.5"/>
    </g>
    <path class="cls-1" d="M542.2,358.5v10.04c-.15-.31-.27-.66-.44-.96-1.91-3.53-4.52-6.21-7.82-8.06-3.3-1.84-7.12-2.77-11.46-2.77-3.69,0-7.07.65-10.15,1.94-3.07,1.29-5.71,3.11-7.91,5.44-2.2,2.33-3.92,5.07-5.15,8.21-1.23,3.14-1.85,6.52-1.85,10.15v1.75c0,3.56.6,6.94,1.8,10.15,1.2,3.2,2.88,6.04,5.05,8.5,2.17,2.46,4.76,4.39,7.77,5.78,3.01,1.39,6.33,2.09,9.95,2.09,3.88,0,7.43-.86,10.63-2.57,3.2-1.71,5.81-4.3,7.82-7.77.07-.13.12-.27.19-.4v4.62c0,4.21-.63,7.65-1.89,10.34-1.26,2.68-3.3,4.66-6.12,5.92-2.82,1.26-6.59,1.89-11.31,1.89-2.27,0-4.68-.11-7.23-.34-2.56-.23-5-.5-7.33-.82v7.87c2.2.32,4.52.58,6.94.78,2.43.19,4.84.29,7.23.29,6.93,0,12.48-.91,16.65-2.72,4.18-1.81,7.22-4.65,9.13-8.5,1.91-3.85,2.86-8.88,2.86-15.1v-45.73h-7.38ZM540.64,385.11c0,3.56-.76,6.62-2.28,9.17-1.52,2.56-3.56,4.52-6.12,5.87-2.56,1.36-5.39,2.04-8.5,2.04-3.3,0-6.23-.76-8.79-2.28-2.56-1.52-4.57-3.7-6.02-6.55-1.46-2.85-2.19-6.18-2.19-10s.71-7.14,2.14-9.95c1.42-2.82,3.43-5,6.02-6.56,2.59-1.55,5.57-2.33,8.93-2.33,2.98,0,5.73.62,8.25,1.84,2.53,1.23,4.58,3.04,6.17,5.44,1.59,2.4,2.38,5.34,2.38,8.83v4.47Z"/>
  </g>
</svg>