<?xml version="1.0" encoding="UTF-8"?>
<svg id="Layer_1" data-name="Layer 1" xmlns="http://www.w3.org/2000/svg" viewBox="0 0 1350 471.77">
  <defs>
    <style>
      .cls-1 {
        fill: #fff;
      }
    </style>
  </defs>
  <g>
    <path class="cls-1" d="M108.75,82.15h7.04v33.63h-13.29c-20.88,0-36.91,5.55-48.12,16.63-11.22,11.08-16.82,27.06-16.82,47.92v113.05H0V84.49h29.73v62.86c2.67-18.9,8.83-33.56,18.58-43.88,13.43-14.22,33.57-21.32,60.44-21.32Z"/>
    <path class="cls-1" d="M355.59,246.84c-16.69,12.26-37.3,18.38-61.81,18.38-17.48,0-32.73-3.07-45.76-9.19-13.05-6.13-23.93-14.54-32.66-25.23-8.75-10.69-15.26-22.95-19.56-36.78-4.3-13.82-6.46-28.42-6.46-43.81,0-16.17,2.16-31.16,6.46-44.99,4.3-13.82,10.69-26.01,19.17-36.58,8.47-10.56,19.1-18.78,31.88-24.64,12.78-5.87,27.64-8.81,44.6-8.81,15.65,0,29.79,2.61,42.45,7.83,12.64,5.21,23.14,13.1,31.49,23.66,8.34,10.57,13.55,23.93,15.64,40.1h39.12c-2.35-21.64-8.86-40.42-19.56-56.33-10.7-15.9-25.17-28.3-43.42-37.16-18.26-8.86-40.17-13.3-65.72-13.3s-46.55,4.29-64.55,12.91c-17.99,8.6-32.6,19.95-43.81,34.04-11.22,14.08-19.5,29.73-24.85,46.93-5.34,17.22-8.02,34.43-8.02,51.65v8.6c0,15.91,2.6,32.4,7.82,49.49,5.21,17.08,13.44,32.93,24.65,47.53,11.2,14.6,26.01,26.47,44.39,35.6,18.4,9.12,40.62,13.68,66.7,13.68s49.23-4.83,67.87-14.47c18.65-9.64,33.25-22.55,43.81-38.73,10.57-16.17,17.15-34.04,19.75-53.59h-39.12c-3.65,23.22-13.83,40.95-30.51,53.2Z"/>
    <path class="cls-1" d="M664.24,146.11c-4.96-12.91-12.27-24.51-21.91-34.82-9.65-10.3-21.39-18.51-35.22-24.64-13.83-6.13-29.6-9.2-47.33-9.2s-33.51,3.06-47.34,9.2c-13.83,6.13-25.56,14.34-35.21,24.64-9.65,10.31-16.95,21.92-21.91,34.82-4.95,12.91-7.43,26.01-7.43,39.31v7.04c0,13.3,2.41,26.35,7.24,39.12,4.82,12.79,11.99,24.33,21.51,34.62,9.52,10.31,21.19,18.59,35.02,24.84,13.82,6.26,29.86,9.39,48.11,9.39s34.29-3.13,48.12-9.39c13.82-6.25,25.48-14.53,35.02-24.84,9.51-10.3,16.68-21.84,21.51-34.62,4.82-12.77,7.24-25.82,7.24-39.12v-7.04c0-13.3-2.48-26.4-7.43-39.31ZM625.31,228.45c-5.87,11.74-14.34,21.06-25.43,27.97-11.09,6.92-24.45,10.37-40.1,10.37s-29.01-3.45-40.1-10.37c-11.09-6.91-19.57-16.23-25.43-27.97-5.87-11.74-8.8-24.9-8.8-39.51s2.99-28.17,8.99-39.89c6-11.74,14.6-21,25.82-27.78,11.22-6.78,24.39-10.18,39.51-10.18s28.62,3.39,39.71,10.18c11.08,6.78,19.63,16.04,25.63,27.78,5.99,11.73,8.99,25.03,8.99,39.89s-2.93,27.77-8.8,39.51Z"/>
    <path class="cls-1" d="M804.68,78.24h-1.56c-17.47,0-31.95,3.71-43.43,11.14-11.47,7.43-20.02,18.26-25.62,32.47-1.42,3.6-2.65,7.4-3.71,11.41v-48.77h-29.73v208.9h37.55v-124.79c0-16.95,5.1-30.51,15.26-40.68,10.18-10.18,23.48-15.26,39.91-15.26s28.42,4.89,37.56,14.68c9.12,9.78,13.68,22.75,13.68,38.92v127.14h37.56v-119.32c0-31.03-6.32-54.76-18.97-71.2-12.66-16.43-32.15-24.64-58.48-24.64Z"/>
    <path class="cls-1" d="M947.47,20.34c-12.26,10.95-18.39,28.04-18.39,51.24v12.91h-28.95v28.17h28.95v180.74h35.98V112.66h55.94v-28.17h-55.94v-19.16c0-9.39,2.61-16.76,7.83-22.11,5.21-5.35,12.64-8.02,22.3-8.02h29.73V3.91h-23.47c-23.74,0-41.73,5.48-53.99,16.43Z"/>
    <g>
      <path class="cls-1" d="M1083.21,50.85c8.34,0,14.53-2.21,18.58-6.65,4.04-4.42,6.07-10.03,6.07-16.82s-2.02-12.38-6.07-16.82c-4.05-4.43-10.24-6.65-18.58-6.65s-14.54,2.22-18.59,6.65c-4.05,4.44-6.06,10.04-6.06,16.82s2.01,12.4,6.06,16.82c4.04,4.44,10.23,6.65,18.59,6.65Z"/>
      <polygon class="cls-1" points="1072.65 84.49 1042.14 84.49 1042.14 114.22 1072.65 114.22 1072.65 293.39 1110.2 293.39 1110.2 114.22 1110.2 84.49 1072.65 84.49"/>
    </g>
    <path class="cls-1" d="M1320.27,84.49v40.44c-.61-1.26-1.1-2.64-1.75-3.86-7.7-14.21-18.19-25.03-31.49-32.47-13.3-7.43-28.69-11.15-46.16-11.15-14.86,0-28.5,2.61-40.88,7.83-12.39,5.21-23.02,12.52-31.88,21.91-8.87,9.39-15.78,20.41-20.73,33.06-4.95,12.65-7.43,26.27-7.43,40.87v7.05c0,14.34,2.41,27.97,7.24,40.87,4.82,12.91,11.6,24.33,20.34,34.23,8.73,9.91,19.16,17.67,31.29,23.28,12.12,5.62,25.48,8.41,40.1,8.41,15.64,0,29.92-3.45,42.83-10.37,12.91-6.91,23.41-17.34,31.5-31.29.29-.5.49-1.1.78-1.61v18.62c0,16.96-2.54,30.84-7.63,41.67-5.08,10.81-13.3,18.77-24.65,23.86-11.34,5.08-26.53,7.62-45.57,7.62-9.13,0-18.84-.45-29.15-1.37-10.3-.92-20.14-2.02-29.53-3.32v31.69c8.86,1.3,18.19,2.34,27.96,3.13,9.79.78,19.5,1.17,29.15,1.17,27.91,0,50.27-3.65,67.1-10.95,16.82-7.3,29.08-18.72,36.77-34.23,7.69-15.52,11.54-35.79,11.54-60.83V84.49h-29.73ZM1314.01,191.68c0,14.34-3.07,26.67-9.19,36.96-6.13,10.31-14.35,18.19-24.65,23.67-10.3,5.48-21.71,8.22-34.23,8.22-13.3,0-25.1-3.07-35.4-9.2-10.31-6.12-18.39-14.93-24.26-26.4-5.87-11.48-8.8-24.9-8.8-40.3s2.87-28.75,8.6-40.09c5.74-11.34,13.82-20.15,24.25-26.41,10.43-6.25,22.43-9.39,36-9.39,11.99,0,23.07,2.48,33.25,7.43,10.18,4.96,18.44,12.26,24.84,21.92,6.39,9.65,9.58,21.51,9.58,35.59v18Z"/>
  </g>
  <g>
    <path class="cls-1" d="M54.5,406.37c-1.25-3.35-3.05-6.33-5.4-8.94-2.36-2.61-5.25-4.66-8.67-6.16-3.43-1.5-7.35-2.25-11.77-2.25-5.35,0-10.19,1.3-14.5,3.91-4.32,2.61-7.73,6.15-10.22,10.65-2.5,4.5-3.75,9.67-3.75,15.52s1.25,10.86,3.75,15.47c2.49,4.6,5.95,8.24,10.38,10.92,4.43,2.67,9.53,4.01,15.31,4.01,3.99,0,7.65-.63,10.97-1.87,3.32-1.25,6.17-2.94,8.56-5.09,2.39-2.14,4.16-4.56,5.3-7.28l-9.85-4.92c-1.5,2.5-3.46,4.53-5.89,6.1-2.43,1.57-5.42,2.36-8.99,2.36-3.36,0-6.37-.82-9.04-2.46-2.68-1.64-4.75-3.92-6.21-6.85-.99-1.99-1.41-4.29-1.57-6.74h42.93c.21-.86.36-1.79.43-2.79.07-1,.11-1.96.11-2.89,0-3.78-.63-7.35-1.87-10.7ZM13.09,413.12c.28-1.65.69-3.2,1.33-4.61,1.36-3,3.28-5.3,5.78-6.9,2.49-1.61,5.31-2.41,8.45-2.41s6.03.8,8.46,2.41c2.43,1.61,4.21,3.79,5.35,6.53.63,1.53.93,3.21,1.01,4.98H13.09Z"/>
    <path class="cls-1" d="M140.77,391.82c-3.25-1.85-6.87-2.78-10.86-2.78-4.57,0-8.62,1.14-12.15,3.42-2.44,1.58-4.42,3.76-6,6.47-1.35-2.44-3.21-4.52-5.67-6.2-3.6-2.46-7.72-3.69-12.36-3.69-4.14,0-7.81,1-11.02,3-2.28,1.42-3.86,3.49-5.14,5.87v-7.58h-11.56v57.9h12.09v-34.14c0-2.85.52-5.3,1.55-7.33,1.03-2.03,2.48-3.62,4.33-4.76,1.85-1.14,4-1.71,6.42-1.71s4.64.57,6.42,1.71c1.79,1.15,3.19,2.73,4.23,4.76s1.55,4.48,1.55,7.33v34.14h12.09v-34.14c0-2.85.54-5.3,1.61-7.33,1.07-2.03,2.53-3.62,4.39-4.76,1.85-1.14,3.99-1.71,6.42-1.71s4.55.57,6.37,1.71c1.82,1.15,3.25,2.73,4.28,4.76,1.03,2.03,1.55,4.48,1.55,7.33v34.14h12.1v-37.46c0-4.21-.97-7.95-2.89-11.24-1.92-3.28-4.51-5.85-7.76-7.71Z"/>
    <path class="cls-1" d="M218.37,403.8c-2.53-4.56-5.99-8.17-10.38-10.81-4.39-2.64-9.33-3.96-14.83-3.96-4.57,0-8.63.93-12.2,2.78-2.9,1.51-5.21,3.62-7.17,6.08v-7.57h-11.56v79.31h12.09v-28.47c1.79,2.25,3.88,4.2,6.58,5.57,3.67,1.85,7.76,2.78,12.25,2.78,5.57,0,10.53-1.34,14.88-4.01,4.35-2.67,7.8-6.3,10.33-10.86,2.53-4.56,3.8-9.7,3.8-15.41s-1.27-10.85-3.8-15.41ZM207.29,429.01c-1.5,2.89-3.59,5.16-6.26,6.8-2.67,1.64-5.73,2.46-9.15,2.46s-6.26-.82-8.94-2.46c-2.67-1.64-4.78-3.91-6.31-6.8-1.54-2.89-2.3-6.15-2.3-9.79s.76-6.8,2.3-9.69c1.53-2.89,3.64-5.15,6.31-6.8,2.68-1.64,5.65-2.46,8.94-2.46s6.48.84,9.15,2.51c2.67,1.68,4.76,3.93,6.26,6.74,1.5,2.82,2.25,6.05,2.25,9.69s-.75,6.9-2.25,9.79Z"/>
    <path class="cls-1" d="M285.9,403.64c-2.67-4.53-6.28-8.1-10.81-10.7-4.53-2.61-9.65-3.91-15.36-3.91s-10.85,1.3-15.41,3.91c-4.57,2.61-8.19,6.17-10.86,10.7-2.67,4.53-4.01,9.72-4.01,15.57s1.36,10.95,4.07,15.52c2.71,4.57,6.35,8.17,10.92,10.81,4.56,2.64,9.67,3.96,15.3,3.96s10.63-1.3,15.2-3.91c4.56-2.61,8.2-6.19,10.92-10.76,2.71-4.56,4.07-9.77,4.07-15.63s-1.34-11.04-4.01-15.57ZM274.99,429.01c-1.53,2.89-3.62,5.16-6.26,6.8-2.64,1.64-5.64,2.46-8.99,2.46s-6.37-.82-9.04-2.46c-2.67-1.64-4.78-3.91-6.31-6.8-1.53-2.89-2.3-6.15-2.3-9.79s.77-6.87,2.3-9.69c1.54-2.82,3.64-5.07,6.31-6.74,2.68-1.67,5.69-2.51,9.04-2.51s6.35.84,8.99,2.51c2.64,1.68,4.73,3.93,6.26,6.74,1.53,2.82,2.3,6.05,2.3,9.69s-.77,6.9-2.3,9.79Z"/>
    <polygon class="cls-1" points="355.85 429.69 342.69 390.32 331.66 390.32 318.42 429.7 305.44 390.32 292.6 390.32 312.51 448.22 323.53 448.22 337.18 407.09 350.82 448.22 361.74 448.22 381.76 390.32 368.91 390.32 355.85 429.69"/>
    <path class="cls-1" d="M438.75,406.37c-1.25-3.35-3.05-6.33-5.4-8.94-2.36-2.61-5.25-4.66-8.67-6.16-3.43-1.5-7.35-2.25-11.77-2.25-5.35,0-10.19,1.3-14.5,3.91-4.32,2.61-7.73,6.15-10.22,10.65-2.5,4.5-3.75,9.67-3.75,15.52s1.25,10.86,3.75,15.47c2.49,4.6,5.95,8.24,10.38,10.92,4.43,2.67,9.53,4.01,15.31,4.01,3.99,0,7.65-.63,10.97-1.87,3.32-1.25,6.17-2.94,8.56-5.09,2.39-2.14,4.16-4.56,5.3-7.28l-9.85-4.92c-1.5,2.5-3.46,4.53-5.89,6.1-2.43,1.57-5.42,2.36-8.99,2.36-3.36,0-6.37-.82-9.04-2.46-2.68-1.64-4.75-3.92-6.21-6.85-.99-1.99-1.41-4.29-1.57-6.74h42.93c.21-.86.36-1.79.43-2.79.07-1,.11-1.96.11-2.89,0-3.78-.63-7.35-1.87-10.7ZM397.34,413.12c.28-1.65.69-3.2,1.33-4.61,1.36-3,3.28-5.3,5.78-6.9,2.49-1.61,5.31-2.41,8.45-2.41s6.03.8,8.46,2.41,4.21,3.79,5.35,6.53c.63,1.53.93,3.21,1.01,4.98h-30.38Z"/>
    <path class="cls-1" d="M466.95,392.08c-2.17,1.27-3.88,3.18-5.14,5.71v-7.47h-11.56v57.9h12.09v-33.39c0-4.5,1.23-7.99,3.69-10.49,2.46-2.5,5.69-3.75,9.69-3.75h5.03v-11.02h-3.53c-4,0-7.42.84-10.28,2.52Z"/>
    <g>
      <rect class="cls-1" x="486.86" y="368.48" width="12.09" height="13.92"/>
      <rect class="cls-1" x="486.86" y="390.32" width="12.09" height="57.9"/>
    </g>
    <path class="cls-1" d="M550.22,391.82c-3.28-1.85-7.06-2.78-11.35-2.78s-7.78.94-10.92,2.83c-2.36,1.42-4.07,3.49-5.46,5.9v-7.45h-11.56v57.9h12.09v-34.14c0-2.85.54-5.3,1.61-7.33,1.07-2.03,2.58-3.62,4.55-4.76,1.96-1.14,4.19-1.71,6.69-1.71s4.71.57,6.64,1.71c1.93,1.15,3.43,2.73,4.49,4.76,1.07,2.03,1.61,4.48,1.61,7.33v34.14h12.1v-37.36c0-4.28-.93-8.06-2.79-11.35-1.85-3.28-4.42-5.85-7.71-7.71Z"/>
    <path class="cls-1" d="M615.94,390.32v7.61c-1.94-2.47-4.14-4.6-6.85-6.06-3.49-1.89-7.46-2.83-11.88-2.83-5.35,0-10.15,1.25-14.4,3.74-4.25,2.5-7.58,5.89-10.01,10.17-2.43,4.28-3.64,9.17-3.64,14.66s1.21,10.31,3.64,14.66c2.43,4.35,5.78,7.78,10.06,10.27,4.28,2.5,9.13,3.75,14.56,3.75,4.42,0,8.4-.96,11.93-2.89,2.42-1.32,4.34-3.19,6.04-5.32v7.46c0,3.14-.7,5.83-2.09,8.08-1.39,2.25-3.3,3.96-5.73,5.14-2.43,1.18-5.17,1.76-8.24,1.76-3.92,0-7.22-.89-9.9-2.67-2.67-1.79-4.52-4.03-5.51-6.74l-11.13,4.6c1.21,3.21,3.1,6.01,5.67,8.4,2.57,2.39,5.65,4.26,9.26,5.62,3.6,1.36,7.51,2.03,11.72,2.03,5.42,0,10.26-1.14,14.5-3.43,4.24-2.28,7.56-5.4,9.95-9.36,2.39-3.96,3.58-8.44,3.58-13.44v-55.23h-11.56ZM613.21,426.55c-1.46,2.61-3.44,4.67-5.94,6.21-2.5,1.54-5.35,2.3-8.56,2.3s-6.1-.76-8.67-2.3c-2.57-1.53-4.58-3.62-6.05-6.26-1.46-2.64-2.19-5.56-2.19-8.77s.73-6.25,2.19-8.89c1.46-2.64,3.48-4.73,6.05-6.26,2.57-1.54,5.46-2.3,8.67-2.3s6.06.76,8.56,2.3c2.5,1.53,4.48,3.62,5.94,6.26,1.46,2.64,2.19,5.6,2.19,8.89s-.73,6.22-2.19,8.83Z"/>
    <path class="cls-1" d="M693.81,392.03c-3.25-1.85-6.94-2.79-11.08-2.79s-8.01,1.02-11.19,3.05c-2.26,1.45-3.92,3.45-5.3,5.72v-7.48h-9.85v57.69h10.06v-34.14c0-3.14.61-5.83,1.82-8.08,1.21-2.25,2.87-3.98,4.98-5.19,2.1-1.21,4.51-1.82,7.22-1.82s5.12.61,7.22,1.82c2.1,1.21,3.73,2.93,4.87,5.14,1.14,2.21,1.71,4.92,1.71,8.13v34.14h10.06v-37.36c0-4.14-.94-7.85-2.83-11.13-1.89-3.28-4.46-5.85-7.71-7.71Z"/>
    <path class="cls-1" d="M767.34,406.64c-1.25-3.32-3.03-6.28-5.35-8.88-2.32-2.61-5.13-4.67-8.45-6.21-3.32-1.53-7.12-2.3-11.4-2.3-5.35,0-10.13,1.3-14.34,3.91-4.21,2.61-7.56,6.16-10.06,10.65-2.5,4.5-3.74,9.63-3.74,15.41s1.25,10.86,3.74,15.47c2.5,4.6,5.94,8.22,10.33,10.86,4.39,2.64,9.37,3.96,14.93,3.96,3.92,0,7.53-.64,10.81-1.93,3.28-1.28,6.12-3.01,8.51-5.19s4.16-4.58,5.3-7.22l-8.35-4.28c-1.64,2.78-3.79,5.07-6.42,6.85-2.64,1.79-5.89,2.68-9.74,2.68-3.5,0-6.73-.88-9.69-2.62-2.96-1.75-5.25-4.21-6.85-7.39-1.19-2.34-1.68-5.07-1.83-7.97h43.95c.14-.93.27-1.85.37-2.78.11-.93.16-1.82.16-2.68,0-3.57-.62-7.01-1.87-10.33ZM724.81,413.76c.3-2.06.81-3.97,1.64-5.67,1.54-3.14,3.7-5.58,6.48-7.33,2.78-1.75,5.85-2.62,9.2-2.62s6.35.85,8.99,2.57c2.64,1.71,4.64,4.03,5.99,6.96.86,1.85,1.15,3.93,1.18,6.1h-33.48Z"/>
    <path class="cls-1" d="M805.49,439.77c-2.35,0-4.25-.41-5.67-1.23-1.43-.82-2.45-1.94-3.05-3.37-.61-1.43-.91-3.1-.91-5.03v-30.08h12.95v-9.53h-12.95v-13.27h-10.06v4.71c0,2.57-.73,4.64-2.2,6.21-1.46,1.57-3.48,2.36-6.04,2.36h-2.14v9.53h10.38v30.4c0,5.85,1.53,10.38,4.6,13.59,3.07,3.21,7.42,4.82,13.06,4.82.78,0,1.75-.05,2.89-.16,1.14-.11,2.18-.27,3.1-.48v-8.78c-.64.07-1.34.15-2.09.21-.75.07-1.38.11-1.88.11Z"/>
    <polygon class="cls-1" points="875 432.8 861.47 390.53 852.05 390.53 838.53 432.78 824.76 390.53 813.73 390.53 833.54 448.22 843.06 448.22 856.76 404.81 870.46 448.22 879.99 448.22 899.79 390.53 888.87 390.53 875 432.8"/>
    <path class="cls-1" d="M958.6,403.8c-2.61-4.49-6.16-8.04-10.65-10.65-4.49-2.6-9.56-3.91-15.2-3.91s-10.59,1.32-15.09,3.96c-4.5,2.64-8.07,6.21-10.71,10.7-2.64,4.49-3.96,9.63-3.96,15.41s1.34,10.95,4.01,15.52c2.67,4.57,6.26,8.15,10.76,10.76,4.49,2.61,9.49,3.91,14.98,3.91s10.47-1.3,14.93-3.91c4.46-2.61,8.04-6.17,10.76-10.7,2.71-4.53,4.07-9.72,4.07-15.57s-1.3-11.02-3.91-15.52ZM949.4,429.81c-1.67,3.14-3.96,5.6-6.85,7.39-2.89,1.78-6.16,2.67-9.8,2.67s-6.8-.89-9.68-2.67c-2.89-1.79-5.19-4.25-6.9-7.39-1.71-3.14-2.57-6.64-2.57-10.49s.86-7.31,2.57-10.38c1.71-3.07,4.01-5.49,6.9-7.28,2.89-1.79,6.12-2.68,9.68-2.68s6.9.89,9.8,2.68c2.89,1.78,5.17,4.21,6.85,7.28,1.68,3.07,2.52,6.53,2.52,10.38s-.84,7.35-2.52,10.49Z"/>
    <path class="cls-1" d="M988.2,392.3c-2.2,1.27-3.83,3.22-5.14,5.54v-7.31h-9.85v57.69h10.06v-34.36c0-4.64,1.25-8.2,3.75-10.7,2.49-2.5,5.78-3.75,9.85-3.75h5.03v-9.53h-3.53c-4,0-7.39.8-10.17,2.41Z"/>
    <polygon class="cls-1" points="1057.87 390.53 1045.14 390.53 1018.59 417.63 1018.59 367.2 1008.53 367.2 1008.53 448.22 1018.59 448.22 1018.59 430.93 1028.46 420.56 1047.6 448.22 1059.37 448.22 1035.72 413.76 1057.87 390.53"/>
    <path class="cls-1" d="M1103.95,422.43c-2.61-2.85-6.26-4.96-10.97-6.31l-9.42-2.79c-1.14-.36-2.32-.8-3.53-1.34-1.21-.54-2.25-1.32-3.1-2.36-.86-1.03-1.29-2.34-1.29-3.91,0-2.28.86-4.14,2.57-5.56,1.71-1.43,4.03-2.14,6.95-2.14,3.21,0,6.1.85,8.67,2.57,2.57,1.71,4.49,4.07,5.78,7.07l8.13-3.75c-1.71-4.64-4.58-8.24-8.62-10.81-4.03-2.57-8.58-3.85-13.65-3.85-3.78,0-7.19.72-10.22,2.14-3.03,1.43-5.42,3.41-7.17,5.94-1.75,2.53-2.62,5.51-2.62,8.94,0,3.71,1.19,6.98,3.58,9.79,2.39,2.82,6.16,4.94,11.29,6.37l8.67,2.46c1.21.29,2.48.73,3.8,1.34s2.46,1.43,3.43,2.46c.96,1.04,1.45,2.41,1.45,4.12,0,2.43-1.04,4.39-3.1,5.89-2.07,1.5-4.64,2.25-7.71,2.25-3.49,0-6.67-1-9.53-3-2.85-2-5.1-4.71-6.74-8.13l-8.03,3.85c1.85,4.85,4.92,8.71,9.21,11.56,4.28,2.85,9.31,4.28,15.09,4.28,4.14,0,7.78-.71,10.92-2.14,3.14-1.43,5.6-3.43,7.38-5.99,1.78-2.57,2.67-5.46,2.67-8.67,0-3.99-1.3-7.42-3.91-10.27Z"/>
  </g>
</svg>