<?xml version="1.0" encoding="UTF-8"?>
<svg id="Layer_1" data-name="Layer 1" xmlns="http://www.w3.org/2000/svg" viewBox="0 0 1350 471.77">
  <defs>
    <style>
      .cls-1 {
        fill: #fff;
      }
    </style>
  </defs>
  <path class="cls-1" d="M108.75,82.15h7.04v33.63h-13.29c-20.88,0-36.91,5.55-48.12,16.63-11.22,11.08-16.82,27.06-16.82,47.92v113.05H0V84.49h29.73v62.86c2.67-18.9,8.83-33.56,18.58-43.88,13.43-14.22,33.57-21.32,60.44-21.32Z"/>
  <path class="cls-1" d="M355.59,246.84c-16.69,12.26-37.3,18.38-61.81,18.38-17.48,0-32.73-3.07-45.76-9.19-13.05-6.13-23.93-14.54-32.66-25.23-8.75-10.69-15.26-22.95-19.56-36.78-4.3-13.82-6.46-28.42-6.46-43.81,0-16.17,2.16-31.16,6.46-44.99,4.3-13.82,10.69-26.01,19.17-36.58,8.47-10.56,19.1-18.78,31.88-24.64,12.78-5.87,27.64-8.81,44.6-8.81,15.65,0,29.79,2.61,42.45,7.83,12.64,5.21,23.14,13.1,31.49,23.66,8.34,10.57,13.55,23.93,15.64,40.1h39.12c-2.35-21.64-8.86-40.42-19.56-56.33-10.7-15.9-25.17-28.3-43.42-37.16-18.26-8.86-40.17-13.3-65.72-13.3s-46.55,4.29-64.55,12.91c-17.99,8.6-32.6,19.95-43.81,34.04-11.22,14.08-19.5,29.73-24.85,46.93-5.34,17.22-8.02,34.43-8.02,51.65v8.6c0,15.91,2.6,32.4,7.82,49.49,5.21,17.08,13.44,32.93,24.65,47.53,11.2,14.6,26.01,26.47,44.39,35.6,18.4,9.12,40.62,13.68,66.7,13.68s49.23-4.83,67.87-14.47c18.65-9.64,33.25-22.55,43.81-38.73,10.57-16.17,17.15-34.04,19.75-53.59h-39.12c-3.65,23.22-13.83,40.95-30.51,53.2Z"/>
  <path class="cls-1" d="M664.24,146.11c-4.96-12.91-12.27-24.51-21.91-34.82-9.65-10.3-21.39-18.51-35.22-24.64-13.83-6.13-29.6-9.2-47.33-9.2s-33.51,3.06-47.34,9.2c-13.83,6.13-25.56,14.34-35.21,24.64-9.65,10.31-16.95,21.92-21.91,34.82-4.95,12.91-7.43,26.01-7.43,39.31v7.04c0,13.3,2.41,26.35,7.24,39.12,4.82,12.79,11.99,24.33,21.51,34.62,9.52,10.31,21.19,18.59,35.02,24.84,13.82,6.26,29.86,9.39,48.11,9.39s34.29-3.13,48.12-9.39c13.82-6.25,25.48-14.53,35.02-24.84,9.51-10.3,16.68-21.84,21.51-34.62,4.82-12.77,7.24-25.82,7.24-39.12v-7.04c0-13.3-2.48-26.4-7.43-39.31ZM625.31,228.45c-5.87,11.74-14.34,21.06-25.43,27.97-11.09,6.92-24.45,10.37-40.1,10.37s-29.01-3.45-40.1-10.37c-11.09-6.91-19.57-16.23-25.43-27.97-5.87-11.74-8.8-24.9-8.8-39.51s2.99-28.17,8.99-39.89c6-11.74,14.6-21,25.82-27.78,11.22-6.78,24.39-10.18,39.51-10.18s28.62,3.39,39.71,10.18c11.08,6.78,19.63,16.04,25.63,27.78,5.99,11.73,8.99,25.03,8.99,39.89s-2.93,27.77-8.8,39.51Z"/>
  <path class="cls-1" d="M804.68,78.24h-1.56c-17.47,0-31.95,3.71-43.43,11.14-11.47,7.43-20.02,18.26-25.62,32.47-1.42,3.6-2.65,7.4-3.71,11.41v-48.77h-29.73v208.9h37.55v-124.79c0-16.95,5.1-30.51,15.26-40.68,10.18-10.18,23.48-15.26,39.91-15.26s28.42,4.89,37.56,14.68c9.12,9.78,13.68,22.75,13.68,38.92v127.14h37.56v-119.32c0-31.03-6.32-54.76-18.97-71.2-12.66-16.43-32.15-24.64-58.48-24.64Z"/>
  <path class="cls-1" d="M947.47,20.34c-12.26,10.95-18.39,28.04-18.39,51.24v12.91h-28.95v28.17h28.95v180.74h35.98V112.66h55.94v-28.17h-55.94v-19.16c0-9.39,2.61-16.76,7.83-22.11,5.21-5.35,12.64-8.02,22.3-8.02h29.73V3.91h-23.47c-23.74,0-41.73,5.48-53.99,16.43Z"/>
  <g>
    <path class="cls-1" d="M1083.21,50.85c8.34,0,14.53-2.21,18.58-6.65,4.04-4.42,6.07-10.03,6.07-16.82s-2.02-12.38-6.07-16.82c-4.05-4.43-10.24-6.65-18.58-6.65s-14.54,2.22-18.59,6.65c-4.05,4.44-6.06,10.04-6.06,16.82s2.01,12.4,6.06,16.82c4.04,4.44,10.23,6.65,18.59,6.65Z"/>
    <polygon class="cls-1" points="1072.65 84.49 1042.14 84.49 1042.14 114.22 1072.65 114.22 1072.65 293.39 1110.2 293.39 1110.2 114.22 1110.2 84.49 1072.65 84.49"/>
  </g>
  <path class="cls-1" d="M1320.27,84.49v40.44c-.61-1.26-1.1-2.64-1.75-3.86-7.7-14.21-18.19-25.03-31.49-32.47-13.3-7.43-28.69-11.15-46.16-11.15-14.86,0-28.5,2.61-40.88,7.83-12.39,5.21-23.02,12.52-31.88,21.91-8.87,9.39-15.78,20.41-20.73,33.06-4.95,12.65-7.43,26.27-7.43,40.87v7.05c0,14.34,2.41,27.97,7.24,40.87,4.82,12.91,11.6,24.33,20.34,34.23,8.73,9.91,19.16,17.67,31.29,23.28,12.12,5.62,25.48,8.41,40.1,8.41,15.64,0,29.92-3.45,42.83-10.37,12.91-6.91,23.41-17.34,31.5-31.29.29-.5.49-1.1.78-1.61v18.62c0,16.96-2.54,30.84-7.63,41.67-5.08,10.81-13.3,18.77-24.65,23.86-11.34,5.08-26.53,7.62-45.57,7.62-9.13,0-18.84-.45-29.15-1.37-10.3-.92-20.14-2.02-29.53-3.32v31.69c8.86,1.3,18.19,2.34,27.96,3.13,9.79.78,19.5,1.17,29.15,1.17,27.91,0,50.27-3.65,67.1-10.95,16.82-7.3,29.08-18.72,36.77-34.23,7.69-15.52,11.54-35.79,11.54-60.83V84.49h-29.73ZM1314.01,191.68c0,14.34-3.07,26.67-9.19,36.96-6.13,10.31-14.35,18.19-24.65,23.67-10.3,5.48-21.71,8.22-34.23,8.22-13.3,0-25.1-3.07-35.4-9.2-10.31-6.12-18.39-14.93-24.26-26.4-5.87-11.48-8.8-24.9-8.8-40.3s2.87-28.75,8.6-40.09c5.74-11.34,13.82-20.15,24.25-26.41,10.43-6.25,22.43-9.39,36-9.39,11.99,0,23.07,2.48,33.25,7.43,10.18,4.96,18.44,12.26,24.84,21.92,6.39,9.65,9.58,21.51,9.58,35.59v18Z"/>
</svg>