<?xml version="1.0" encoding="UTF-8"?>
<svg id="Layer_1" data-name="Layer 1" xmlns="http://www.w3.org/2000/svg" viewBox="0 0 1350 500.38">
  <defs>
    <style>
      .cls-1 {
        fill: #0321f9;
      }
    </style>
  </defs>
  <polygon class="cls-1" points="168.64 289.1 152.74 289.1 67.25 9.13 0 9.13 106.13 343.08 213.63 343.08 312.45 9.13 247.49 9.13 168.64 289.1 168.64 289.1"/>
  <path class="cls-1" d="M474.2,352.23c-25.92,0-48.65-4.04-68.16-12.12-19.52-8.08-34.69-19.74-45.51-34.99-10.83-15.25-16.24-33.54-16.24-54.89s5.26-38.12,15.78-52.15c10.52-14.02,24.47-24.24,41.86-30.65v-5.49c-13.72-5.49-25.01-14.1-33.85-25.85-8.85-11.74-13.27-26.6-13.27-44.6,0-20.13,5.26-36.97,15.78-50.55,10.52-13.57,24.85-23.79,43-30.65,18.14-6.86,38.35-10.29,60.61-10.29s42.84,3.43,60.84,10.29c17.99,6.86,32.32,17.08,43,30.65,10.67,13.57,16.01,30.42,16.01,50.55,0,18-4.42,32.86-13.27,44.6-8.85,11.74-20.13,20.36-33.85,25.85v5.49c17.38,6.4,31.33,16.7,41.86,30.88,10.52,14.18,15.78,31.49,15.78,51.92s-5.49,39.65-16.47,54.89c-10.98,15.25-26.23,26.92-45.74,34.99-19.52,8.08-42.24,12.12-68.16,12.12ZM474.2,298.71c20.73,0,37.2-4.72,49.4-14.18,12.19-9.45,18.3-23.02,18.3-40.71s-6.03-30.8-18.07-40.25c-12.05-9.45-28.59-14.18-49.63-14.18s-37.13,4.73-49.17,14.18c-12.05,9.46-18.07,22.87-18.07,40.25s6.02,31.26,18.07,40.71c12.04,9.46,28.43,14.18,49.17,14.18ZM474.2,140.89c17.38,0,31.26-3.66,41.63-10.98,10.36-7.32,15.55-18.3,15.55-32.94s-5.19-25.54-15.55-32.71c-10.37-7.16-24.24-10.75-41.63-10.75s-31.18,3.66-41.4,10.98c-10.22,7.32-15.32,18.15-15.32,32.48s5.1,25.62,15.32,32.94c10.21,7.32,24.02,10.98,41.4,10.98Z"/>
  <path class="cls-1" d="M821.17,152.54c-5.5,11.44-13.88,20.59-25.17,27.44-11.29,6.87-25.92,10.3-43.92,10.3h-68.61V38.4h68.61c18,0,32.64,3.36,43.92,10.06,11.29,6.72,19.67,15.79,25.17,27.22,5.48,11.44,8.23,24.33,8.23,38.66s-2.75,26.76-8.23,38.2h0ZM812.7,21.02c-17.54-8.85-39.73-13.27-66.56-13.27h-97.44v335.33h34.77v-122.15h62.67c26.83,0,49.03-4.41,66.56-13.27,17.54-8.83,30.65-21.11,39.34-36.82,8.7-15.71,13.05-33.47,13.05-53.29v-6.4c0-20.13-4.35-37.98-13.05-53.53-8.69-15.55-21.81-27.75-39.34-36.59h0Z"/>
  <path class="cls-1" d="M946.05,123.72c-10.29,11.21-17.1,26.54-20.59,45.81v-68.46h-27.44v242.01h34.3v-133.59c0-26.22,6.87-46.12,20.58-59.7,13.73-13.56,33.7-20.36,59.94-20.36h14.18v-31.1h-7.77c-33.25,0-57.65,8.46-73.19,25.38h0Z"/>
  <path class="cls-1" d="M1238.38,271.03c-7.32,14.79-17.92,26.69-31.79,35.68-13.88,9-30.89,13.5-51.01,13.5s-36.68-4.51-50.56-13.5c-13.88-8.98-24.47-20.89-31.78-35.68-7.32-14.79-10.98-31.18-10.98-49.18s3.73-34.84,11.2-49.64c7.46-14.79,18.22-26.54,32.26-35.23,14.03-8.69,30.65-13.03,49.86-13.03s36.29,4.34,50.32,13.03c14.03,8.69,24.77,20.44,32.25,35.23,7.47,14.8,11.22,31.33,11.22,49.64s-3.67,34.39-10.98,49.18h0ZM1249.81,132.19c-10.98-11.9-24.32-21.42-40.03-28.59-15.71-7.17-33.78-10.75-54.21-10.75s-38.05,3.58-53.76,10.75c-15.71,7.17-29.05,16.69-40.03,28.59-10.98,11.89-19.38,25.39-25.17,40.49-5.8,15.09-8.7,30.42-8.7,45.97v6.4c0,15.56,2.82,30.82,8.47,45.75,5.64,14.95,13.87,28.45,24.71,40.49,10.81,12.05,24.08,21.66,39.79,28.82,15.71,7.16,33.93,10.74,54.68,10.74s39.04-3.58,54.9-10.74c15.85-7.16,29.19-16.77,40.03-28.82,10.82-12.04,18.97-25.54,24.47-40.49,5.48-14.93,8.23-30.19,8.23-45.75v-6.4c0-15.56-2.82-30.88-8.47-45.97-5.64-15.1-13.95-28.6-24.93-40.49h0Z"/>
  <polygon class="cls-1" points="1307 297.79 1307 343.08 1350 343.08 1350 297.79 1307 297.79 1307 297.79"/>
</svg>