<?xml version="1.0" encoding="UTF-8"?>
<svg id="Layer_1" data-name="Layer 1" xmlns="http://www.w3.org/2000/svg" viewBox="0 0 1350 500.38">
  <defs>
    <style>
      .cls-1 {
        fill: #0321f9;
      }
    </style>
  </defs>
  <g>
    <path class="cls-1" d="M262.44,427.43h1.75v8.35h-3.3c-5.18,0-9.16,1.38-11.94,4.13-2.78,2.75-4.18,6.72-4.18,11.89v28.06h-9.32v-51.84h7.38v15.6c.66-4.69,2.19-8.33,4.61-10.89,3.33-3.53,8.33-5.29,15-5.29h0Z"/>
    <path class="cls-1" d="M321.1,468.3c-4.14,3.04-9.26,4.56-15.34,4.56-4.34,0-8.12-.76-11.36-2.28-3.24-1.52-5.94-3.61-8.11-6.26-2.17-2.65-3.79-5.7-4.86-9.13-1.07-3.43-1.6-7.05-1.6-10.87,0-4.01.54-7.73,1.6-11.16,1.07-3.43,2.65-6.45,4.76-9.08,2.1-2.62,4.74-4.66,7.91-6.11,3.17-1.46,6.86-2.19,11.07-2.19,3.88,0,7.39.65,10.53,1.94,3.14,1.29,5.74,3.25,7.82,5.87,2.07,2.62,3.36,5.94,3.88,9.95h9.71c-.58-5.37-2.2-10.03-4.85-13.98-2.66-3.95-6.25-7.02-10.78-9.22-4.53-2.2-9.97-3.3-16.31-3.3s-11.55,1.07-16.02,3.2c-4.46,2.14-8.09,4.95-10.87,8.45-2.79,3.49-4.84,7.38-6.17,11.65-1.33,4.27-1.99,8.54-1.99,12.82v2.13c0,3.95.65,8.04,1.94,12.28,1.29,4.24,3.33,8.17,6.12,11.8,2.78,3.62,6.45,6.57,11.02,8.83,4.57,2.26,10.08,3.4,16.55,3.4s12.22-1.2,16.84-3.59c4.63-2.39,8.25-5.6,10.87-9.61,2.62-4.01,4.26-8.45,4.9-13.3h-9.71c-.91,5.76-3.43,10.16-7.57,13.2h0Z"/>
    <path class="cls-1" d="M396.83,443.3c1.23,3.2,1.84,6.46,1.84,9.76v1.75c0,3.3-.6,6.54-1.8,9.71-1.2,3.17-2.98,6.04-5.34,8.59-2.37,2.56-5.26,4.61-8.69,6.16-3.43,1.55-7.41,2.33-11.94,2.33s-8.51-.78-11.94-2.33c-3.43-1.55-6.33-3.61-8.69-6.16-2.36-2.56-4.14-5.42-5.34-8.59-1.2-3.17-1.8-6.41-1.8-9.71v-1.75c0-3.3.62-6.55,1.84-9.76,1.23-3.2,3.04-6.08,5.44-8.64,2.39-2.55,5.3-4.59,8.74-6.11,3.43-1.52,7.35-2.28,11.75-2.28s8.31.76,11.75,2.28c3.43,1.52,6.34,3.56,8.74,6.11,2.39,2.56,4.2,5.44,5.44,8.64h0ZM389.35,453.93c0-3.69-.75-6.99-2.23-9.9-1.49-2.91-3.61-5.21-6.36-6.89-2.75-1.68-6.04-2.53-9.85-2.53s-7.02.84-9.81,2.53c-2.78,1.68-4.92,3.98-6.41,6.89-1.49,2.91-2.23,6.21-2.23,9.9s.73,6.89,2.18,9.81c1.45,2.91,3.56,5.23,6.31,6.94,2.75,1.72,6.07,2.57,9.95,2.57s7.2-.86,9.95-2.57c2.75-1.71,4.85-4.03,6.31-6.94,1.46-2.91,2.19-6.18,2.19-9.81h0Z"/>
    <path class="cls-1" d="M432.88,426.46h-.39c-4.34,0-7.93.92-10.78,2.76-2.85,1.85-4.97,4.53-6.36,8.06-.35.89-.66,1.84-.92,2.83v-12.1h-7.38v51.84h9.32v-30.97c0-4.21,1.26-7.57,3.79-10.1,2.53-2.53,5.83-3.79,9.9-3.79s7.05,1.21,9.32,3.64c2.26,2.43,3.4,5.65,3.4,9.66v31.55h9.32v-29.61c0-7.7-1.57-13.59-4.71-17.67-3.14-4.08-7.98-6.11-14.51-6.11h0Z"/>
    <path class="cls-1" d="M469.38,412.09c-3.04,2.72-4.56,6.96-4.56,12.72v3.2h-7.18v6.99h7.18v44.85h8.93v-44.85h13.88v-6.99h-13.88v-4.76c0-2.33.65-4.16,1.94-5.49,1.29-1.33,3.14-1.99,5.53-1.99h7.38v-7.77h-5.82c-5.89,0-10.36,1.36-13.4,4.08h0Z"/>
    <g>
      <path class="cls-1" d="M503.27,419.66c2.07,0,3.61-.55,4.61-1.65,1-1.1,1.51-2.49,1.51-4.17s-.5-3.07-1.51-4.17c-1-1.1-2.54-1.65-4.61-1.65s-3.61.55-4.61,1.65c-1,1.1-1.5,2.49-1.5,4.17s.5,3.08,1.5,4.17c1,1.1,2.54,1.65,4.61,1.65Z"/>
      <polygon class="cls-1" points="500.65 428.01 493.08 428.01 493.08 435.39 500.65 435.39 500.65 479.85 509.97 479.85 509.97 435.39 509.97 428.01 500.65 428.01"/>
    </g>
    <path class="cls-1" d="M570.48,428.01v45.73c0,6.21-.96,11.24-2.86,15.1-1.91,3.85-4.95,6.68-9.12,8.49-4.18,1.81-9.73,2.72-16.65,2.72-2.39,0-4.81-.1-7.23-.29-2.42-.19-4.74-.45-6.94-.78v-7.86c2.33.32,4.77.6,7.33.82,2.56.23,4.97.34,7.23.34,4.73,0,8.49-.63,11.31-1.89,2.82-1.26,4.86-3.24,6.12-5.92,1.26-2.69,1.89-6.13,1.89-10.34v-4.62c-.07.13-.12.27-.19.4-2.01,3.46-4.61,6.05-7.82,7.77-3.2,1.72-6.75,2.57-10.63,2.57-3.63,0-6.94-.69-9.95-2.09-3.01-1.39-5.6-3.32-7.77-5.78-2.17-2.46-3.85-5.29-5.05-8.49-1.2-3.2-1.8-6.59-1.8-10.14v-1.75c0-3.62.61-7,1.84-10.14,1.23-3.14,2.94-5.87,5.15-8.2,2.2-2.33,4.84-4.14,7.91-5.44,3.07-1.29,6.46-1.94,10.15-1.94,4.34,0,8.15.92,11.46,2.77,3.3,1.84,5.9,4.53,7.82,8.06.16.3.28.64.44.96v-10.03h7.38ZM561.55,450.14c0-3.49-.79-6.44-2.38-8.83-1.59-2.4-3.64-4.21-6.16-5.44-2.53-1.23-5.28-1.84-8.25-1.84-3.37,0-6.35.78-8.93,2.33-2.59,1.55-4.59,3.74-6.02,6.56-1.42,2.81-2.14,6.13-2.14,9.95s.73,7.15,2.18,10c1.45,2.85,3.46,5.03,6.02,6.55,2.55,1.52,5.48,2.28,8.78,2.28,3.11,0,5.94-.68,8.49-2.04,2.56-1.36,4.6-3.32,6.12-5.87,1.52-2.56,2.28-5.61,2.28-9.17v-4.47h0Z"/>
    <path class="cls-1" d="M179.43,478.99l-18.56-50.74h9.53l15.07,42.96h2.04l12.73-42.96h9.14l-17.3,57.45c-1.56,5.12-4.05,8.85-7.48,11.18-3.44,2.33-7.81,3.5-13.12,3.5h-6.9v-8.36h7.49c3.24,0,5.78-.65,7.63-1.94,1.85-1.3,3.26-3.56,4.23-6.8l1.26-4.28h-5.74Z"/>
    <path class="cls-1" d="M132.86,481.91c-4.6,0-8.63-1.07-12.1-3.21-3.47-2.14-6.11-5.22-7.92-9.23v10.69h-7.39v-70.96h9.33v27.99c1.94-3.63,4.57-6.32,7.87-8.07,3.31-1.75,6.97-2.62,10.99-2.62,4.99,0,9.33,1.2,13.02,3.6,3.69,2.4,6.58,5.61,8.65,9.62,2.07,4.02,3.11,8.49,3.11,13.41v1.75c0,4.86-1.07,9.35-3.21,13.46-2.14,4.11-5.12,7.4-8.94,9.87-3.82,2.46-8.29,3.69-13.42,3.69h0ZM131.79,473.74c3.5,0,6.55-.84,9.14-2.53,2.59-1.69,4.6-4,6.03-6.95,1.43-2.95,2.14-6.37,2.14-10.25,0-5.83-1.59-10.52-4.76-14.05-3.18-3.53-7.35-5.3-12.54-5.3-3.11,0-5.99.7-8.65,2.09-2.66,1.39-4.78,3.4-6.37,6.03-1.59,2.62-2.38,5.78-2.38,9.48v4.47c0,3.57.81,6.61,2.43,9.14,1.62,2.53,3.76,4.47,6.42,5.83,2.66,1.36,5.51,2.04,8.55,2.04h0Z"/>
  </g>
  <g>
    <polygon class="cls-1" points="168.64 289.1 152.74 289.1 67.25 9.13 0 9.13 106.13 343.08 213.63 343.08 312.45 9.13 247.49 9.13 168.64 289.1 168.64 289.1"/>
    <path class="cls-1" d="M474.2,352.23c-25.92,0-48.65-4.04-68.16-12.12-19.52-8.08-34.69-19.74-45.51-34.99-10.83-15.25-16.24-33.54-16.24-54.89s5.26-38.12,15.78-52.15c10.52-14.02,24.47-24.24,41.86-30.65v-5.49c-13.72-5.49-25.01-14.1-33.85-25.85-8.85-11.74-13.27-26.6-13.27-44.6,0-20.13,5.26-36.97,15.78-50.55,10.52-13.57,24.85-23.79,43-30.65,18.14-6.86,38.35-10.29,60.61-10.29s42.84,3.43,60.84,10.29c17.99,6.86,32.32,17.08,43,30.65,10.67,13.57,16.01,30.42,16.01,50.55,0,18-4.42,32.86-13.27,44.6-8.85,11.74-20.13,20.36-33.85,25.85v5.49c17.38,6.4,31.33,16.7,41.86,30.88,10.52,14.18,15.78,31.49,15.78,51.92s-5.49,39.65-16.47,54.89c-10.98,15.25-26.23,26.92-45.74,34.99-19.52,8.08-42.24,12.12-68.16,12.12ZM474.2,298.71c20.73,0,37.2-4.72,49.4-14.18,12.19-9.45,18.3-23.02,18.3-40.71s-6.03-30.8-18.07-40.25c-12.05-9.45-28.59-14.18-49.63-14.18s-37.13,4.73-49.17,14.18c-12.05,9.46-18.07,22.87-18.07,40.25s6.02,31.26,18.07,40.71c12.04,9.46,28.43,14.18,49.17,14.18ZM474.2,140.89c17.38,0,31.26-3.66,41.63-10.98,10.36-7.32,15.55-18.3,15.55-32.94s-5.19-25.54-15.55-32.71c-10.37-7.16-24.24-10.75-41.63-10.75s-31.18,3.66-41.4,10.98c-10.22,7.32-15.32,18.15-15.32,32.48s5.1,25.62,15.32,32.94c10.21,7.32,24.02,10.98,41.4,10.98Z"/>
    <path class="cls-1" d="M821.17,152.54c-5.5,11.44-13.88,20.59-25.17,27.44-11.29,6.87-25.92,10.3-43.92,10.3h-68.61V38.4h68.61c18,0,32.64,3.36,43.92,10.06,11.29,6.72,19.67,15.79,25.17,27.22,5.48,11.44,8.23,24.33,8.23,38.66s-2.75,26.76-8.23,38.2h0ZM812.7,21.02c-17.54-8.85-39.73-13.27-66.56-13.27h-97.44v335.33h34.77v-122.15h62.67c26.83,0,49.03-4.41,66.56-13.27,17.54-8.83,30.65-21.11,39.34-36.82,8.7-15.71,13.05-33.47,13.05-53.29v-6.4c0-20.13-4.35-37.98-13.05-53.53-8.69-15.55-21.81-27.75-39.34-36.59h0Z"/>
    <path class="cls-1" d="M946.05,123.72c-10.29,11.21-17.1,26.54-20.59,45.81v-68.46h-27.44v242.01h34.3v-133.59c0-26.22,6.87-46.12,20.58-59.7,13.73-13.56,33.7-20.36,59.94-20.36h14.18v-31.1h-7.77c-33.25,0-57.65,8.46-73.19,25.38h0Z"/>
    <path class="cls-1" d="M1238.38,271.03c-7.32,14.79-17.92,26.69-31.79,35.68-13.88,9-30.89,13.5-51.01,13.5s-36.68-4.51-50.56-13.5c-13.88-8.98-24.47-20.89-31.78-35.68-7.32-14.79-10.98-31.18-10.98-49.18s3.73-34.84,11.2-49.64c7.46-14.79,18.22-26.54,32.26-35.23,14.03-8.69,30.65-13.03,49.86-13.03s36.29,4.34,50.32,13.03c14.03,8.69,24.77,20.44,32.25,35.23,7.47,14.8,11.22,31.33,11.22,49.64s-3.67,34.39-10.98,49.18h0ZM1249.81,132.19c-10.98-11.9-24.32-21.42-40.03-28.59-15.71-7.17-33.78-10.75-54.21-10.75s-38.05,3.58-53.76,10.75c-15.71,7.17-29.05,16.69-40.03,28.59-10.98,11.89-19.38,25.39-25.17,40.49-5.8,15.09-8.7,30.42-8.7,45.97v6.4c0,15.56,2.82,30.82,8.47,45.75,5.64,14.95,13.87,28.45,24.71,40.49,10.81,12.05,24.08,21.66,39.79,28.82,15.71,7.16,33.93,10.74,54.68,10.74s39.04-3.58,54.9-10.74c15.85-7.16,29.19-16.77,40.03-28.82,10.82-12.04,18.97-25.54,24.47-40.49,5.48-14.93,8.23-30.19,8.23-45.75v-6.4c0-15.56-2.82-30.88-8.47-45.97-5.64-15.1-13.95-28.6-24.93-40.49h0Z"/>
    <polygon class="cls-1" points="1307 297.79 1307 343.08 1350 343.08 1350 297.79 1307 297.79 1307 297.79"/>
  </g>
</svg>