<?xml version="1.0" encoding="UTF-8"?>
<svg id="Layer_1" data-name="Layer 1" xmlns="http://www.w3.org/2000/svg" viewBox="0 0 1350 360.9">
  <g>
    <path d="M475.54,319.35c-.84-2.31-2.06-4.35-3.65-6.1-1.59-1.75-3.48-3.13-5.68-4.14-2.2-1-4.63-1.51-7.29-1.51-2.85,0-5.46.62-7.82,1.86-2.36,1.24-4.27,3.15-5.72,5.72-.03.05-.04.1-.07.15v-20.21h-6.73v51.2h5.33v-7.77c.16.36.31.73.49,1.08,1.4,2.59,3.31,4.57,5.72,5.93,2.41,1.36,5.16,2.04,8.24,2.04,2.76,0,5.27-.52,7.54-1.54,2.27-1.03,4.22-2.44,5.86-4.24,1.64-1.8,2.89-3.87,3.75-6.21.87-2.34,1.3-4.84,1.3-7.51v-1.26c0-2.67-.42-5.16-1.26-7.47ZM468.52,334.85c-1.03,2.13-2.48,3.8-4.35,5.02-1.87,1.22-4.07,1.82-6.59,1.82-2.2,0-4.26-.49-6.17-1.47-1.92-.98-3.46-2.38-4.63-4.21-1.17-1.82-1.75-4.02-1.75-6.59v-3.23c0-2.67.57-4.95,1.72-6.84,1.15-1.89,2.68-3.34,4.6-4.35,1.92-1.01,4-1.51,6.24-1.51,2.48,0,4.65.57,6.52,1.72,1.87,1.15,3.33,2.77,4.38,4.87,1.05,2.11,1.58,4.56,1.58,7.36s-.51,5.27-1.54,7.4Z"/>
    <path d="M506.61,308.86h6.59l-12.48,41.45c-.75,2.48-1.8,4.5-3.16,6.07-1.36,1.57-3,2.71-4.95,3.44-1.94.72-4.2,1.09-6.77,1.09h-4.98v-6.03h5.4c1.59,0,2.93-.2,4.03-.6s2.01-1.06,2.74-2c.72-.93,1.32-2.17,1.79-3.72l.92-3.09h-4.14l-13.4-36.61h6.87l10.87,31h1.46l9.2-31Z"/>
    <path d="M551.58,308.55h1.26v6.01h-2.38c-3.73,0-6.6.99-8.6,2.97-2.01,1.98-3.01,4.84-3.01,8.57v20.21h-6.71v-37.35h5.32v11.24c.48-3.38,1.58-6,3.32-7.84,2.4-2.54,6-3.81,10.81-3.81Z"/>
    <path d="M595.71,337.99c-2.98,2.19-6.67,3.29-11.05,3.29-3.12,0-5.85-.55-8.18-1.64-2.33-1.1-4.28-2.6-5.84-4.51-1.56-1.91-2.73-4.1-3.5-6.58-.77-2.47-1.15-5.08-1.15-7.83,0-2.89.39-5.57,1.15-8.04.77-2.47,1.91-4.65,3.43-6.54,1.51-1.89,3.41-3.36,5.7-4.4,2.28-1.05,4.94-1.57,7.97-1.57,2.8,0,5.33.47,7.59,1.4,2.26.93,4.14,2.34,5.63,4.23,1.49,1.89,2.42,4.28,2.8,7.17h6.99c-.42-3.87-1.58-7.23-3.5-10.07-1.91-2.84-4.5-5.06-7.76-6.64-3.26-1.58-7.18-2.38-11.75-2.38s-8.32.77-11.54,2.31c-3.22,1.54-5.83,3.57-7.83,6.08-2.01,2.52-3.49,5.32-4.44,8.39-.96,3.08-1.43,6.16-1.43,9.23v1.54c0,2.85.47,5.79,1.4,8.85.93,3.05,2.4,5.89,4.41,8.5,2,2.61,4.65,4.73,7.94,6.36,3.29,1.63,7.26,2.45,11.92,2.45s8.8-.86,12.13-2.59c3.33-1.72,5.94-4.03,7.83-6.92,1.89-2.89,3.07-6.08,3.53-9.58h-6.99c-.65,4.15-2.47,7.32-5.45,9.51Z"/>
    <path d="M650.89,319.99c-.89-2.31-2.19-4.38-3.92-6.23-1.73-1.84-3.82-3.31-6.3-4.4-2.47-1.1-5.29-1.64-8.46-1.64s-5.99.55-8.46,1.64c-2.47,1.1-4.57,2.56-6.29,4.4-1.73,1.84-3.03,3.92-3.92,6.23-.88,2.31-1.33,4.65-1.33,7.03v1.26c0,2.38.43,4.71,1.29,6.99.86,2.29,2.14,4.35,3.85,6.19,1.7,1.84,3.79,3.32,6.26,4.44,2.47,1.12,5.34,1.68,8.6,1.68s6.13-.56,8.6-1.68c2.47-1.12,4.56-2.6,6.26-4.44,1.7-1.84,2.98-3.9,3.85-6.19.86-2.28,1.29-4.62,1.29-6.99v-1.26c0-2.38-.44-4.72-1.33-7.03ZM643.93,334.71c-1.05,2.1-2.56,3.76-4.55,5-1.98,1.24-4.37,1.85-7.17,1.85s-5.19-.62-7.17-1.85c-1.98-1.23-3.5-2.9-4.55-5-1.05-2.1-1.57-4.45-1.57-7.06s.54-5.04,1.61-7.13c1.07-2.1,2.61-3.75,4.62-4.97,2.01-1.21,4.36-1.82,7.06-1.82s5.12.61,7.1,1.82c1.98,1.21,3.51,2.87,4.58,4.97,1.07,2.1,1.61,4.47,1.61,7.13s-.52,4.97-1.57,7.06Z"/>
    <path d="M676,307.85h-.28c-3.12,0-5.71.66-7.76,1.99-2.05,1.33-3.58,3.27-4.58,5.81-.25.64-.47,1.32-.66,2.04v-8.72h-5.32v37.35h6.71v-22.31c0-3.03.91-5.45,2.73-7.27,1.82-1.82,4.2-2.73,7.13-2.73s5.08.87,6.71,2.62c1.63,1.75,2.45,4.07,2.45,6.96v22.73h6.71v-21.33c0-5.55-1.13-9.79-3.39-12.73-2.26-2.94-5.75-4.4-10.46-4.4Z"/>
    <path d="M701.53,297.5c-2.19,1.96-3.29,5.01-3.29,9.16v2.31h-5.18v5.04h5.18v32.31h6.43v-32.31h10v-5.04h-10v-3.43c0-1.68.47-3,1.4-3.95.93-.96,2.26-1.43,3.99-1.43h5.32v-5.59h-4.2c-4.24,0-7.46.98-9.65,2.94Z"/>
    <g>
      <path d="M725.8,302.95c1.49,0,2.6-.39,3.32-1.19.72-.79,1.08-1.79,1.08-3.01s-.36-2.21-1.08-3.01c-.72-.79-1.83-1.19-3.32-1.19s-2.6.4-3.32,1.19c-.72.79-1.08,1.8-1.08,3.01s.36,2.22,1.08,3.01c.72.79,1.83,1.19,3.32,1.19Z"/>
      <polygon points="723.91 308.97 718.45 308.97 718.45 314.28 723.91 314.28 723.91 346.32 730.62 346.32 730.62 314.28 730.62 308.97 723.91 308.97"/>
    </g>
    <path d="M768.18,308.97v7.23c-.11-.23-.2-.47-.31-.69-1.38-2.54-3.25-4.48-5.63-5.8-2.38-1.33-5.13-1.99-8.25-1.99-2.66,0-5.09.47-7.31,1.4-2.21.93-4.12,2.24-5.7,3.92-1.59,1.68-2.82,3.65-3.71,5.91-.89,2.26-1.33,4.7-1.33,7.31v1.26c0,2.56.43,5,1.29,7.31.86,2.31,2.07,4.35,3.64,6.12,1.56,1.77,3.43,3.16,5.59,4.16,2.17,1,4.56,1.5,7.17,1.5,2.8,0,5.35-.62,7.66-1.85,2.31-1.24,4.19-3.1,5.63-5.59.05-.09.09-.2.14-.29v3.33c0,3.03-.45,5.51-1.36,7.45-.91,1.93-2.38,3.36-4.41,4.27-2.03.91-4.74,1.36-8.15,1.36-1.63,0-3.37-.08-5.21-.25-1.84-.16-3.6-.36-5.28-.59v5.66c1.58.23,3.25.42,5,.56,1.75.14,3.49.21,5.21.21,4.99,0,8.99-.65,12-1.96,3.01-1.31,5.2-3.35,6.57-6.12,1.37-2.77,2.06-6.4,2.06-10.88v-32.94h-5.32ZM767.06,328.13c0,2.56-.55,4.77-1.64,6.61-1.1,1.84-2.57,3.25-4.41,4.23-1.84.98-3.88,1.47-6.12,1.47-2.38,0-4.49-.55-6.33-1.64-1.84-1.09-3.29-2.67-4.34-4.72-1.05-2.05-1.57-4.45-1.57-7.2s.51-5.14,1.54-7.17c1.03-2.03,2.47-3.6,4.34-4.72,1.86-1.12,4.01-1.68,6.44-1.68,2.14,0,4.13.44,5.94,1.33,1.82.89,3.3,2.19,4.44,3.92,1.14,1.73,1.71,3.85,1.71,6.36v3.22Z"/>
  </g>
  <g>
    <polygon points="519.71 55.75 557 55.75 500.28 247.43 438.57 247.43 377.65 55.75 416.25 55.75 465.33 216.45 474.45 216.45 519.71 55.75"/>
    <path d="M637.4,252.68c-14.88,0-27.92-2.32-39.12-6.96-11.2-4.64-19.91-11.33-26.12-20.09-6.21-8.75-9.32-19.25-9.32-31.51s3.02-21.88,9.06-29.93c6.04-8.05,14.05-13.92,24.02-17.59v-3.15c-7.88-3.15-14.35-8.09-19.43-14.83-5.08-6.74-7.61-15.27-7.61-25.6,0-11.55,3.02-21.22,9.06-29.01,6.04-7.79,14.26-13.65,24.68-17.59,10.41-3.94,22.01-5.91,34.79-5.91s24.59,1.97,34.92,5.91c10.33,3.94,18.55,9.81,24.68,17.59,6.13,7.79,9.19,17.46,9.19,29.01,0,10.33-2.54,18.86-7.61,25.6-5.08,6.74-11.55,11.68-19.43,14.83v3.15c9.98,3.68,17.98,9.58,24.02,17.72,6.04,8.14,9.06,18.08,9.06,29.8s-3.15,22.76-9.45,31.51c-6.3,8.75-15.06,15.45-26.26,20.09-11.2,4.64-24.25,6.96-39.12,6.96ZM637.4,221.96c11.9,0,21.35-2.71,28.36-8.14,7-5.42,10.5-13.21,10.5-23.37s-3.46-17.68-10.37-23.11c-6.92-5.42-16.41-8.14-28.49-8.14s-21.31,2.72-28.22,8.14c-6.92,5.43-10.37,13.13-10.37,23.11s3.45,17.94,10.37,23.37c6.91,5.43,16.32,8.14,28.22,8.14ZM637.4,131.38c9.98,0,17.94-2.1,23.89-6.3,5.95-4.2,8.93-10.5,8.93-18.9s-2.98-14.66-8.93-18.77c-5.95-4.11-13.92-6.17-23.89-6.17s-17.9,2.1-23.76,6.3c-5.87,4.2-8.8,10.42-8.8,18.64s2.93,14.7,8.8,18.9c5.86,4.2,13.78,6.3,23.76,6.3Z"/>
    <path d="M876.29,220.25c-11.91,8.84-26.61,13.26-44.11,13.26-12.6,0-23.63-2.23-33.09-6.7-9.45-4.46-17.33-10.59-23.63-18.38-6.3-7.79-10.99-16.58-14.05-26.39-3.07-9.8-4.6-20.04-4.6-30.72,0-11.2,1.58-21.75,4.72-31.64,3.15-9.89,7.79-18.64,13.92-26.26,6.13-7.61,13.78-13.57,22.98-17.86,9.19-4.29,19.83-6.43,31.9-6.43,11.2,0,21.4,1.93,30.59,5.77,9.19,3.85,16.76,9.59,22.71,17.2,5.95,7.61,9.63,17.11,11.03,28.49h20.21c-1.57-14.18-5.95-26.48-13.13-36.89-7.18-10.42-16.77-18.51-28.76-24.29-11.99-5.78-26.22-8.67-42.67-8.67s-30.37,2.84-42.28,8.53c-11.91,5.69-21.66,13.26-29.28,22.72-7.62,9.45-13.22,20-16.81,31.64-3.59,11.64-5.38,23.33-5.38,35.05v4.99c0,10.86,1.75,22.01,5.25,33.48,3.5,11.47,9.06,22.1,16.67,31.9,7.62,9.8,17.51,17.72,29.67,23.76,12.16,6.04,26.83,9.06,43.99,9.06s31.55-3.06,43.72-9.19c12.16-6.13,21.84-14.49,29.01-25.08,7.18-10.59,11.73-22.45,13.65-35.58h-20.21c-2.8,16.63-10.15,29.37-22.06,38.21Z"/>
    <path d="M1077.3,149.62c-3.24-8.67-8.01-16.42-14.31-23.24-6.3-6.83-13.96-12.29-22.98-16.41-9.02-4.12-19.39-6.17-31.11-6.17s-21.84,2.06-30.86,6.17c-9.02,4.11-16.67,9.58-22.98,16.41-6.3,6.82-11.12,14.57-14.45,23.24-3.32,8.66-4.99,17.46-4.99,26.39v3.68c0,8.93,1.62,17.69,4.86,26.26,3.24,8.58,7.96,16.33,14.18,23.24,6.21,6.92,13.82,12.44,22.84,16.54,9.02,4.11,19.48,6.17,31.38,6.17s22.41-2.06,31.51-6.17c9.1-4.11,16.75-9.63,22.98-16.54,6.21-6.91,10.89-14.66,14.05-23.24,3.15-8.57,4.73-17.33,4.73-26.26v-3.68c0-8.93-1.62-17.72-4.86-26.39ZM1056.43,206.08c-4.2,8.49-10.29,15.32-18.25,20.48-7.97,5.17-17.73,7.75-29.28,7.75s-21.05-2.58-29.02-7.75c-7.97-5.16-14.05-11.99-18.24-20.48-4.2-8.49-6.3-17.9-6.3-28.23s2.14-20,6.43-28.49c4.28-8.49,10.46-15.23,18.51-20.22,8.05-4.99,17.59-7.48,28.62-7.48s20.83,2.49,28.89,7.48c8.05,4.99,14.21,11.73,18.51,20.22,4.29,8.49,6.44,17.99,6.44,28.49s-2.11,19.74-6.3,28.23Z"/>
    <path d="M1131.53,121.52c-5.91,6.43-9.82,15.23-11.82,26.3v-39.3h-15.75v138.91h19.69v-76.68c0-15.05,3.94-26.48,11.81-34.27,7.88-7.79,19.34-11.68,34.4-11.68h8.14v-17.85h-4.46c-19.08,0-33.09,4.85-42.01,14.57Z"/>
    <path d="M1311.66,170.75c0-11.55-2.46-22.36-7.35-32.43-4.91-10.07-12.21-18.34-21.93-24.82-9.71-6.47-21.84-9.71-36.37-9.71-11.38,0-21.31,2.06-29.8,6.17-8.5,4.11-15.54,9.58-21.14,16.41-5.6,6.82-9.76,14.53-12.47,23.1-2.72,8.59-4.08,17.34-4.08,26.26v3.67c0,9.11,1.35,17.95,4.08,26.52,2.71,8.58,6.86,16.33,12.47,23.24,5.6,6.92,12.78,12.44,21.53,16.54,8.75,4.11,19.08,6.17,30.98,6.17,11.03,0,20.83-1.83,29.41-5.51,8.57-3.68,15.66-8.88,21.27-15.62,5.6-6.74,9.27-14.74,11.03-24.03h-18.39c-1.75,7.53-6.39,14.05-13.91,19.56-7.53,5.52-17.34,8.27-29.41,8.27-11.38,0-20.79-2.53-28.23-7.62-7.44-5.07-12.96-11.95-16.54-20.61-3.19-7.71-4.88-16.18-5.23-25.34h114.08v-10.24ZM1198.32,165.77c.85-6.01,2.29-11.65,4.49-16.8,3.59-8.4,8.97-15.14,16.15-20.22,7.18-5.08,16.19-7.61,27.04-7.61s18.95,2.23,25.87,6.69c6.91,4.47,12.16,10.59,15.76,18.39,2.67,5.81,4.35,12.33,5.03,19.56h-94.34Z"/>
    <rect x="1325.32" y="221.44" width="24.68" height="25.99"/>
  </g>
  <g>
    <path d="M84.28,315.97v-2.16c-.91-11.32,3.09-32.42,23.79-43.56,18.77-10.11,23.21-12.53,23.26-12.57l.34-.18s10.49-5.76,10.49-15.22v-54.69c-10.47,6.2-55.44,32.78-72.53,41.99-10.97,5.91-9.85,17.98-9.84,18.11l.07,1.38v52.81l24.42,14.1Z"/>
    <path d="M110.88,312l.11.87-.06.34v18.15l31.26,18.05v-67.3c-2.75,1.49-8.92,4.83-21.5,11.61-10.46,5.63-9.92,17-9.82,18.28Z"/>
    <path d="M241.36,189.42c-17.09-9.21-62.07-35.79-72.54-41.99v56.26c0,9.44,10.39,15.16,10.49,15.22l.34.18c.06.03,4.49,2.46,23.26,12.57,20.69,11.14,24.69,32.24,23.79,43.56v41.96l24.42-14.1v-95.05l.07-.51c.08-1.1.63-12.47-9.84-18.1Z"/>
    <path d="M200.04,273.74l.07-.5c.08-1.1.63-12.47-9.83-18.11-12.45-6.7-18.62-10.04-21.41-11.56v107s.01,0,.02-.01l31.15-17.99v-58.83Z"/>
    <path d="M300.73,79.43L168.89,3.31c-3.82-2.21-8.08-3.31-12.35-3.31s-8.53,1.1-12.35,3.31L12.35,79.43c-7.64,4.41-12.35,12.57-12.35,21.39v152.24c0,8.82,4.71,16.98,12.35,21.39l20.84,12.03v-36.82c-.91-11.32,3.1-32.42,23.78-43.56,18.5-9.96,73.17-42.39,73.72-42.71l.76-.45.82-.35c.27-.13,9.88-4.6,9.88-13.42v-50.82c-6.24-4.31-10.33-11.5-10.33-19.65,0-13.18,10.69-23.87,23.87-23.87s23.87,10.69,23.87,23.87c0,8.34-4.28,15.66-10.75,19.93v10.38c0,8.82,9.61,13.29,10.02,13.48l.82.35.62.39c.55.33,55.21,32.75,73.71,42.71,20.69,11.14,24.69,32.24,23.79,43.56v78.18l22.95-13.25c7.64-4.41,12.35-12.57,12.35-21.39V100.82c0-8.82-4.71-16.98-12.35-21.39Z"/>
  </g>
</svg>