<?xml version="1.0" encoding="UTF-8"?>
<svg id="Layer_1" data-name="Layer 1" xmlns="http://www.w3.org/2000/svg" viewBox="0 0 1350 327.08">
  <g>
    <path d="M354.32,282.83c-.9-2.46-2.19-4.63-3.88-6.5s-3.71-3.34-6.05-4.41c-2.34-1.07-4.93-1.61-7.77-1.61-3.04,0-5.81.66-8.33,1.98-2.51,1.32-4.54,3.35-6.09,6.09-.03.05-.05.11-.07.16v-21.52h-7.17v54.52h5.68v-8.28c.17.38.33.78.52,1.14,1.49,2.76,3.52,4.87,6.09,6.31,2.56,1.44,5.49,2.17,8.78,2.17,2.94,0,5.61-.55,8.03-1.64,2.41-1.09,4.49-2.6,6.24-4.52,1.74-1.92,3.07-4.12,4-6.61.92-2.49,1.38-5.15,1.38-7.99v-1.34c0-2.84-.45-5.49-1.34-7.95ZM346.85,299.33c-1.1,2.27-2.64,4.05-4.63,5.34-1.99,1.29-4.33,1.94-7.02,1.94-2.34,0-4.53-.52-6.57-1.57-2.04-1.04-3.69-2.54-4.93-4.48-1.25-1.94-1.87-4.28-1.87-7.02v-3.43c0-2.84.61-5.27,1.83-7.28,1.22-2.02,2.85-3.56,4.89-4.63,2.04-1.07,4.26-1.61,6.65-1.61,2.64,0,4.95.61,6.95,1.83,1.99,1.22,3.55,2.95,4.67,5.19,1.12,2.24,1.68,4.85,1.68,7.84s-.55,5.61-1.64,7.88Z"/>
    <path d="M387.4,271.66h7.02l-13.29,44.14c-.8,2.64-1.92,4.79-3.36,6.46-1.44,1.67-3.2,2.89-5.27,3.66-2.07.77-4.47,1.16-7.21,1.16h-5.3v-6.42h5.75c1.69,0,3.12-.21,4.29-.64,1.17-.42,2.14-1.13,2.91-2.13.77-1,1.41-2.31,1.9-3.96l.98-3.29h-4.41l-14.26-38.98h7.32l11.57,33.01h1.56l9.8-33.01Z"/>
    <path d="M435.29,271.33h1.34v6.4h-2.53c-3.97,0-7.03,1.06-9.16,3.17-2.14,2.11-3.2,5.15-3.2,9.12v21.52h-7.15v-39.76h5.66v11.96c.51-3.6,1.68-6.39,3.54-8.35,2.56-2.71,6.39-4.06,11.5-4.06Z"/>
    <path d="M482.27,302.68c-3.18,2.33-7.1,3.5-11.77,3.5-3.33,0-6.23-.58-8.71-1.75-2.48-1.17-4.56-2.77-6.22-4.8-1.66-2.03-2.9-4.37-3.72-7-.82-2.63-1.23-5.41-1.23-8.34,0-3.08.41-5.93,1.23-8.56.82-2.63,2.03-4.95,3.65-6.96,1.61-2.01,3.64-3.57,6.07-4.69,2.43-1.12,5.26-1.68,8.49-1.68,2.98,0,5.67.5,8.08,1.49,2.41.99,4.41,2.49,5.99,4.5,1.59,2.01,2.58,4.56,2.98,7.63h7.45c-.45-4.12-1.69-7.69-3.72-10.72-2.04-3.03-4.79-5.39-8.27-7.07-3.48-1.69-7.65-2.53-12.51-2.53s-8.86.82-12.29,2.46c-3.42,1.64-6.21,3.8-8.34,6.48-2.14,2.68-3.71,5.66-4.73,8.93-1.02,3.28-1.53,6.55-1.53,9.83v1.64c0,3.03.5,6.17,1.49,9.42.99,3.25,2.56,6.27,4.69,9.05,2.13,2.78,4.95,5.04,8.45,6.78,3.5,1.74,7.73,2.6,12.7,2.6s9.37-.92,12.92-2.75,6.33-4.29,8.34-7.37c2.01-3.08,3.26-6.48,3.76-10.2h-7.45c-.69,4.42-2.63,7.79-5.81,10.13Z"/>
    <path d="M541.02,283.51c-.95-2.46-2.34-4.67-4.17-6.63-1.84-1.96-4.07-3.52-6.7-4.69-2.63-1.17-5.63-1.75-9.01-1.75s-6.38.58-9.01,1.75c-2.63,1.17-4.86,2.73-6.7,4.69-1.84,1.96-3.23,4.17-4.17,6.63-.94,2.46-1.41,4.95-1.41,7.48v1.34c0,2.53.46,5.02,1.38,7.45.92,2.43,2.28,4.63,4.09,6.59,1.81,1.96,4.03,3.54,6.67,4.73,2.63,1.19,5.68,1.79,9.16,1.79s6.53-.6,9.16-1.79c2.63-1.19,4.85-2.77,6.67-4.73,1.81-1.96,3.18-4.16,4.09-6.59.92-2.43,1.38-4.91,1.38-7.45v-1.34c0-2.53-.47-5.03-1.41-7.48ZM533.61,299.18c-1.12,2.23-2.73,4.01-4.84,5.32-2.11,1.32-4.66,1.97-7.63,1.97s-5.52-.66-7.63-1.97c-2.11-1.31-3.72-3.09-4.84-5.32-1.12-2.23-1.68-4.74-1.68-7.52s.57-5.36,1.71-7.59c1.14-2.23,2.78-4,4.91-5.29,2.14-1.29,4.64-1.94,7.52-1.94s5.45.65,7.56,1.94c2.11,1.29,3.74,3.05,4.88,5.29,1.14,2.23,1.71,4.76,1.71,7.59s-.56,5.29-1.68,7.52Z"/>
    <path d="M567.76,270.59h-.3c-3.33,0-6.08.71-8.27,2.12-2.18,1.42-3.81,3.48-4.88,6.18-.27.68-.51,1.41-.71,2.17v-9.28h-5.66v39.76h7.15v-23.75c0-3.23.97-5.81,2.9-7.74,1.94-1.94,4.47-2.9,7.6-2.9s5.41.93,7.15,2.79c1.74,1.86,2.6,4.33,2.6,7.41v24.2h7.15v-22.71c0-5.91-1.2-10.42-3.61-13.55-2.41-3.13-6.12-4.69-11.13-4.69Z"/>
    <path d="M594.94,259.57c-2.33,2.08-3.5,5.34-3.5,9.75v2.46h-5.51v5.36h5.51v34.4h6.85v-34.4h10.65v-5.36h-10.65v-3.65c0-1.79.5-3.19,1.49-4.21.99-1.02,2.41-1.53,4.24-1.53h5.66v-5.96h-4.47c-4.52,0-7.94,1.04-10.28,3.13Z"/>
    <g>
      <path d="M620.78,265.38c1.59,0,2.77-.42,3.54-1.27.77-.84,1.16-1.91,1.16-3.2s-.39-2.36-1.16-3.2c-.77-.84-1.95-1.27-3.54-1.27s-2.77.42-3.54,1.27c-.77.84-1.15,1.91-1.15,3.2s.38,2.36,1.15,3.2c.77.85,1.95,1.27,3.54,1.27Z"/>
      <polygon points="618.77 271.78 612.96 271.78 612.96 277.44 618.77 277.44 618.77 311.54 625.91 311.54 625.91 277.44 625.91 271.78 618.77 271.78"/>
    </g>
    <path d="M665.9,271.78v7.7c-.12-.24-.21-.5-.33-.73-1.47-2.71-3.46-4.76-5.99-6.18-2.53-1.41-5.46-2.12-8.79-2.12-2.83,0-5.42.5-7.78,1.49-2.36.99-4.38,2.38-6.07,4.17-1.69,1.79-3,3.88-3.95,6.29-.94,2.41-1.41,5-1.41,7.78v1.34c0,2.73.46,5.32,1.38,7.78.92,2.46,2.21,4.63,3.87,6.52,1.66,1.89,3.65,3.36,5.96,4.43,2.31,1.07,4.85,1.6,7.63,1.6,2.98,0,5.7-.66,8.15-1.97,2.46-1.32,4.46-3.3,6-5.96.06-.1.09-.21.15-.31v3.54c0,3.23-.48,5.87-1.45,7.93-.97,2.06-2.53,3.57-4.69,4.54-2.16.97-5.05,1.45-8.67,1.45-1.74,0-3.59-.09-5.55-.26-1.96-.17-3.83-.38-5.62-.63v6.03c1.69.25,3.46.45,5.32.6,1.86.15,3.71.22,5.55.22,5.31,0,9.57-.69,12.77-2.08,3.2-1.39,5.53-3.56,7-6.52,1.46-2.95,2.2-6.81,2.2-11.58v-35.07h-5.66ZM664.71,292.18c0,2.73-.58,5.08-1.75,7.04-1.17,1.96-2.73,3.46-4.69,4.51-1.96,1.04-4.13,1.56-6.52,1.56-2.53,0-4.78-.58-6.74-1.75-1.96-1.17-3.5-2.84-4.62-5.03-1.12-2.18-1.68-4.74-1.68-7.67s.55-5.47,1.64-7.63c1.09-2.16,2.63-3.84,4.62-5.03,1.99-1.19,4.27-1.79,6.85-1.79,2.28,0,4.39.47,6.33,1.41,1.94.94,3.51,2.33,4.73,4.17,1.22,1.84,1.82,4.09,1.82,6.77v3.43Z"/>
  </g>
  <g>
    <path d="M314.71,206.26V46.73h96.59v26.22h-66.21v39.12h62.28v26.22h-62.28v41.74h67.96v26.22h-98.34Z"/>
    <path d="M429.5,206.26v-118.66h24.04v29.28c5.1-22,18.65-33,40.65-33h1.31c14.13,0,24.84,4.59,32.12,13.77,7.28,9.18,10.93,22.73,10.93,40.65v67.96h-30.38v-70.58c0-7.28-2.11-13.18-6.34-17.7-4.23-4.51-9.91-6.77-17.05-6.77s-13.44,2.33-18.03,6.99c-4.59,4.66-6.88,10.78-6.88,18.36v69.71h-30.38Z"/>
    <path d="M605.26,207.79c-10.93,0-19.96-1.42-27.1-4.26-7.14-2.84-12.42-7.61-15.84-14.31-3.42-6.7-5.14-15.88-5.14-27.53v-51.79h-18.79v-22.29h18.79l.22-33.43h28.41l-.22,33.43h36.71v22.29h-36.71v53.76c0,5.83,1.56,10.31,4.7,13.44,3.13,3.13,7.61,4.7,13.44,4.7h18.57v26h-17.05Z"/>
    <path d="M687.41,210.41c-10.2,0-19.12-1.75-26.77-5.24-7.65-3.5-13.99-8.19-19.01-14.1-5.03-5.9-8.82-12.49-11.36-19.78-2.55-7.28-3.82-14.71-3.82-22.29v-4.15c0-7.87,1.27-15.44,3.82-22.73,2.55-7.28,6.34-13.84,11.36-19.67,5.03-5.83,11.25-10.45,18.68-13.88,7.43-3.42,16.02-5.14,25.79-5.14,12.82,0,23.53,2.81,32.12,8.41,8.59,5.61,15.11,12.97,19.56,22.07,4.44,9.11,6.67,18.9,6.67,29.39v10.93h-89.16c1.02,9.32,4.11,16.83,9.29,22.51,5.17,5.68,12.78,8.52,22.84,8.52,7.28,0,13.29-1.49,18.03-4.48,4.73-2.98,7.76-6.67,9.07-11.04h27.97c-2.62,12.24-8.82,22.07-18.57,29.5-9.76,7.43-21.93,11.14-36.49,11.14ZM686.09,108.58c-8.6,0-15.44,2.4-20.54,7.21-5.1,4.81-8.38,11.44-9.83,19.89h59.66c-1.17-8.45-4.19-15.08-9.07-19.89-4.88-4.81-11.62-7.21-20.21-7.21Z"/>
    <path d="M752.23,206.26v-118.66h24.04v38.68c3.2-26.8,17.34-40.21,42.39-40.21h4.37v26.44h-8.3c-10.35,0-18.28,2.77-23.82,8.3-5.54,5.54-8.3,13.41-8.3,23.6v61.84h-30.38Z"/>
    <path d="M833.14,249.96V86.11h16.61v32.08c3.93-11.22,10.05-19.45,18.36-24.69,8.3-5.24,17.63-7.87,27.97-7.87,11.36,0,21.23,2.77,29.61,8.3,8.38,5.54,14.89,12.86,19.56,21.96,4.66,9.11,6.99,19.12,6.99,30.05v3.93c0,10.93-2.4,20.94-7.21,30.05-4.81,9.11-11.47,16.43-20,21.96-8.52,5.53-18.32,8.3-29.39,8.3-8.01,0-15.73-1.68-23.16-5.03-7.43-3.35-13.55-8.81-18.36-16.39v61.19h-20.98ZM892.36,191.83c7.87,0,14.71-1.86,20.54-5.57,5.83-3.71,10.34-8.88,13.55-15.52,3.2-6.63,4.81-14.24,4.81-22.84s-1.61-16.39-4.81-22.95c-3.21-6.56-7.72-11.69-13.55-15.41-5.83-3.72-12.67-5.57-20.54-5.57-6.99,0-13.48,1.57-19.45,4.7-5.98,3.13-10.75,7.65-14.31,13.55-3.57,5.9-5.35,13-5.35,21.31v10.05c0,8.01,1.82,14.86,5.46,20.54,3.64,5.68,8.45,10.05,14.42,13.11,5.97,3.06,12.38,4.59,19.23,4.59Z"/>
    <path d="M970.66,206.26v-116.69h16.61v34.96c1.75-12.53,6.34-21.71,13.77-27.53,7.43-5.83,17.55-8.74,30.37-8.74h3.93v18.79h-7.43c-11.66,0-20.62,3.1-26.88,9.29-6.27,6.19-9.4,15.12-9.4,26.77v63.15h-20.98Z"/>
    <path d="M1061.6,206.26v-100.09h-17.92v-16.61h38.9v116.69h-20.98ZM1067.5,70.77c-4.66,0-8.12-1.24-10.38-3.72-2.26-2.48-3.39-5.61-3.39-9.4s1.13-6.92,3.39-9.4c2.26-2.48,5.72-3.71,10.38-3.71s8.12,1.24,10.38,3.71c2.26,2.48,3.39,5.61,3.39,9.4s-1.13,6.92-3.39,9.4c-2.26,2.48-5.72,3.72-10.38,3.72Z"/>
    <path d="M1144.04,209.75c-15.3,0-27.13-3.28-35.51-9.83-8.38-6.56-12.71-15.52-13-26.88h19.67c.29,4.52,2.58,8.78,6.88,12.78,4.3,4.01,11.62,6.01,21.96,6.01,9.32,0,16.46-1.86,21.42-5.57,4.95-3.71,7.43-8.27,7.43-13.66,0-4.81-1.82-8.56-5.46-11.25-3.64-2.69-9.54-4.48-17.7-5.35l-12.67-1.31c-11.07-1.16-20.1-4.48-27.1-9.94-6.99-5.46-10.49-13.15-10.49-23.05,0-11.22,4.15-19.96,12.46-26.22,8.3-6.26,19.01-9.4,32.12-9.4s23.74,2.92,31.9,8.74c8.16,5.83,12.38,14.5,12.67,26h-19.67c-.15-4.66-2.29-8.63-6.45-11.91-4.15-3.28-10.31-4.92-18.47-4.92s-14.35,1.68-18.57,5.03c-4.23,3.35-6.34,7.58-6.34,12.67,0,4.37,1.49,7.87,4.48,10.49,2.98,2.62,7.9,4.3,14.75,5.03l12.67,1.31c12.53,1.31,22.58,4.77,30.16,10.38,7.57,5.61,11.36,13.51,11.36,23.71,0,7.29-2.08,13.73-6.23,19.34-4.15,5.61-9.87,9.98-17.15,13.11-7.29,3.13-15.66,4.7-25.13,4.7Z"/>
    <path d="M1259.68,210.19c-10.2,0-19.01-1.75-26.44-5.24-7.43-3.5-13.48-8.12-18.14-13.88-4.66-5.75-8.12-12.2-10.38-19.34-2.26-7.14-3.39-14.42-3.39-21.85v-3.93c0-7.57,1.13-14.93,3.39-22.07,2.26-7.14,5.72-13.58,10.38-19.34,4.66-5.75,10.6-10.34,17.81-13.77,7.21-3.42,15.7-5.14,25.46-5.14,12.68,0,23.13,2.73,31.36,8.19,8.23,5.46,14.35,12.49,18.36,21.09,4.01,8.6,6.01,17.78,6.01,27.53v9.4h-92.66c.73,11.51,4.15,21.05,10.27,28.63,6.12,7.58,15.44,11.36,27.97,11.36,9.18,0,16.64-2.04,22.4-6.12,5.75-4.08,9.21-8.81,10.38-14.2h19.67c-2.48,12.09-8.38,21.56-17.7,28.41-9.32,6.85-20.91,10.27-34.74,10.27ZM1258.37,103.99c-10.49,0-18.72,2.95-24.69,8.85-5.97,5.9-9.76,13.66-11.36,23.27h71.24c-1.31-9.91-4.88-17.74-10.71-23.49-5.83-5.75-13.99-8.63-24.48-8.63Z"/>
    <path d="M1324.65,206.26v-26.66h25.35v26.66h-25.35Z"/>
  </g>
  <g>
    <path d="M70.25,263.39v-1.8c-.76-9.44,2.58-27.03,19.83-36.31,15.65-8.43,19.34-10.45,19.39-10.47l.28-.15s8.75-4.8,8.75-12.69v-45.59c-8.72,5.17-46.22,27.33-60.46,35-9.15,4.93-8.21,14.99-8.2,15.09l.06,1.15v44.02l20.36,11.75Z"/>
    <path d="M92.43,260.08l.1.72-.05.28v15.13l26.06,15.05v-56.1c-2.29,1.24-7.44,4.03-17.92,9.68-8.72,4.7-8.27,14.17-8.19,15.24Z"/>
    <path d="M201.19,157.9c-14.25-7.67-51.74-29.84-60.47-35v46.9c0,7.87,8.66,12.64,8.74,12.69l.28.15s3.74,2.05,19.39,10.47c17.25,9.29,20.58,26.88,19.83,36.31v34.98l20.35-11.75v-79.24l.06-.42c.07-.92.52-10.4-8.2-15.09Z"/>
    <path d="M166.75,228.19l.06-.42c.07-.92.52-10.4-8.2-15.09-10.38-5.59-15.52-8.37-17.85-9.63v89.19s.01,0,.02,0l25.97-14.99v-49.04Z"/>
    <path d="M250.69,66.21L140.78,2.76c-3.18-1.84-6.74-2.76-10.29-2.76s-7.11.92-10.29,2.76L10.29,66.21c-6.37,3.68-10.29,10.47-10.29,17.83v126.9c0,7.36,3.92,14.15,10.29,17.83l17.38,10.03v-30.69c-.76-9.44,2.58-27.02,19.83-36.31,15.42-8.31,60.99-35.33,61.45-35.6l.64-.38.68-.29c.22-.1,8.24-3.84,8.24-11.18v-42.36c-5.2-3.59-8.61-9.58-8.61-16.38,0-10.99,8.91-19.9,19.9-19.9s19.9,8.91,19.9,19.9c0,6.95-3.57,13.06-8.96,16.62v8.65c0,7.35,8.01,11.08,8.35,11.23l.68.29.52.33c.46.27,46.02,27.3,61.45,35.6,17.25,9.29,20.58,26.88,19.83,36.31v65.17l19.13-11.04c6.37-3.68,10.29-10.47,10.29-17.83v-126.9c0-7.36-3.92-14.15-10.29-17.83Z"/>
  </g>
</svg>