<?xml version="1.0" encoding="UTF-8"?>
<svg id="Layer_1" data-name="Layer 1" xmlns="http://www.w3.org/2000/svg" viewBox="0 0 1350 327.08">
  <defs>
    <style>
      .cls-1 {
        fill: #fff;
      }
    </style>
  </defs>
  <g>
    <path class="cls-1" d="M314.71,206.26V46.73h96.59v26.22h-66.21v39.12h62.28v26.22h-62.28v41.74h67.96v26.22h-98.34Z"/>
    <path class="cls-1" d="M429.5,206.26v-118.66h24.04v29.28c5.1-22,18.65-33,40.65-33h1.31c14.13,0,24.84,4.59,32.12,13.77,7.28,9.18,10.93,22.73,10.93,40.65v67.96h-30.38v-70.58c0-7.28-2.11-13.18-6.34-17.7-4.23-4.51-9.91-6.77-17.05-6.77s-13.44,2.33-18.03,6.99c-4.59,4.66-6.88,10.78-6.88,18.36v69.71h-30.38Z"/>
    <path class="cls-1" d="M605.26,207.79c-10.93,0-19.96-1.42-27.1-4.26-7.14-2.84-12.42-7.61-15.84-14.31-3.42-6.7-5.14-15.88-5.14-27.53v-51.79h-18.79v-22.29h18.79l.22-33.43h28.41l-.22,33.43h36.71v22.29h-36.71v53.76c0,5.83,1.56,10.31,4.7,13.44,3.13,3.13,7.61,4.7,13.44,4.7h18.57v26h-17.05Z"/>
    <path class="cls-1" d="M687.41,210.41c-10.2,0-19.12-1.75-26.77-5.24-7.65-3.5-13.99-8.19-19.01-14.1-5.03-5.9-8.82-12.49-11.36-19.78-2.55-7.28-3.82-14.71-3.82-22.29v-4.15c0-7.87,1.27-15.44,3.82-22.73,2.55-7.28,6.34-13.84,11.36-19.67,5.03-5.83,11.25-10.45,18.68-13.88,7.43-3.42,16.02-5.14,25.79-5.14,12.82,0,23.53,2.81,32.12,8.41,8.59,5.61,15.11,12.97,19.56,22.07,4.44,9.11,6.67,18.9,6.67,29.39v10.93h-89.16c1.02,9.32,4.11,16.83,9.29,22.51,5.17,5.68,12.78,8.52,22.84,8.52,7.28,0,13.29-1.49,18.03-4.48,4.73-2.98,7.76-6.67,9.07-11.04h27.97c-2.62,12.24-8.82,22.07-18.57,29.5-9.76,7.43-21.93,11.14-36.49,11.14ZM686.09,108.58c-8.6,0-15.44,2.4-20.54,7.21-5.1,4.81-8.38,11.44-9.83,19.89h59.66c-1.17-8.45-4.19-15.08-9.07-19.89-4.88-4.81-11.62-7.21-20.21-7.21Z"/>
    <path class="cls-1" d="M752.23,206.26v-118.66h24.04v38.68c3.2-26.8,17.34-40.21,42.39-40.21h4.37v26.44h-8.3c-10.35,0-18.28,2.77-23.82,8.3-5.54,5.54-8.3,13.41-8.3,23.6v61.84h-30.38Z"/>
    <path class="cls-1" d="M833.14,249.96V86.11h16.61v32.08c3.93-11.22,10.05-19.45,18.36-24.69,8.3-5.24,17.63-7.87,27.97-7.87,11.36,0,21.23,2.77,29.61,8.3,8.38,5.54,14.89,12.86,19.56,21.96,4.66,9.11,6.99,19.12,6.99,30.05v3.93c0,10.93-2.4,20.94-7.21,30.05-4.81,9.11-11.47,16.43-20,21.96-8.52,5.53-18.32,8.3-29.39,8.3-8.01,0-15.73-1.68-23.16-5.03-7.43-3.35-13.55-8.81-18.36-16.39v61.19h-20.98ZM892.36,191.83c7.87,0,14.71-1.86,20.54-5.57,5.83-3.71,10.34-8.88,13.55-15.52,3.2-6.63,4.81-14.24,4.81-22.84s-1.61-16.39-4.81-22.95c-3.21-6.56-7.72-11.69-13.55-15.41-5.83-3.72-12.67-5.57-20.54-5.57-6.99,0-13.48,1.57-19.45,4.7-5.98,3.13-10.75,7.65-14.31,13.55-3.57,5.9-5.35,13-5.35,21.31v10.05c0,8.01,1.82,14.86,5.46,20.54,3.64,5.68,8.45,10.05,14.42,13.11,5.97,3.06,12.38,4.59,19.23,4.59Z"/>
    <path class="cls-1" d="M970.66,206.26v-116.69h16.61v34.96c1.75-12.53,6.34-21.71,13.77-27.53,7.43-5.83,17.55-8.74,30.37-8.74h3.93v18.79h-7.43c-11.66,0-20.62,3.1-26.88,9.29-6.27,6.19-9.4,15.12-9.4,26.77v63.15h-20.98Z"/>
    <path class="cls-1" d="M1061.6,206.26v-100.09h-17.92v-16.61h38.9v116.69h-20.98ZM1067.5,70.77c-4.66,0-8.12-1.24-10.38-3.72-2.26-2.48-3.39-5.61-3.39-9.4s1.13-6.92,3.39-9.4c2.26-2.48,5.72-3.71,10.38-3.71s8.12,1.24,10.38,3.71c2.26,2.48,3.39,5.61,3.39,9.4s-1.13,6.92-3.39,9.4c-2.26,2.48-5.72,3.72-10.38,3.72Z"/>
    <path class="cls-1" d="M1144.04,209.75c-15.3,0-27.13-3.28-35.51-9.83-8.38-6.56-12.71-15.52-13-26.88h19.67c.29,4.52,2.58,8.78,6.88,12.78,4.3,4.01,11.62,6.01,21.96,6.01,9.32,0,16.46-1.86,21.42-5.57,4.95-3.71,7.43-8.27,7.43-13.66,0-4.81-1.82-8.56-5.46-11.25-3.64-2.69-9.54-4.48-17.7-5.35l-12.67-1.31c-11.07-1.16-20.1-4.48-27.1-9.94-6.99-5.46-10.49-13.15-10.49-23.05,0-11.22,4.15-19.96,12.46-26.22,8.3-6.26,19.01-9.4,32.12-9.4s23.74,2.92,31.9,8.74c8.16,5.83,12.38,14.5,12.67,26h-19.67c-.15-4.66-2.29-8.63-6.45-11.91-4.15-3.28-10.31-4.92-18.47-4.92s-14.35,1.68-18.57,5.03c-4.23,3.35-6.34,7.58-6.34,12.67,0,4.37,1.49,7.87,4.48,10.49,2.98,2.62,7.9,4.3,14.75,5.03l12.67,1.31c12.53,1.31,22.58,4.77,30.16,10.38,7.57,5.61,11.36,13.51,11.36,23.71,0,7.29-2.08,13.73-6.23,19.34-4.15,5.61-9.87,9.98-17.15,13.11-7.29,3.13-15.66,4.7-25.13,4.7Z"/>
    <path class="cls-1" d="M1259.68,210.19c-10.2,0-19.01-1.75-26.44-5.24-7.43-3.5-13.48-8.12-18.14-13.88-4.66-5.75-8.12-12.2-10.38-19.34-2.26-7.14-3.39-14.42-3.39-21.85v-3.93c0-7.57,1.13-14.93,3.39-22.07,2.26-7.14,5.72-13.58,10.38-19.34,4.66-5.75,10.6-10.34,17.81-13.77,7.21-3.42,15.7-5.14,25.46-5.14,12.68,0,23.13,2.73,31.36,8.19,8.23,5.46,14.35,12.49,18.36,21.09,4.01,8.6,6.01,17.78,6.01,27.53v9.4h-92.66c.73,11.51,4.15,21.05,10.27,28.63,6.12,7.58,15.44,11.36,27.97,11.36,9.18,0,16.64-2.04,22.4-6.12,5.75-4.08,9.21-8.81,10.38-14.2h19.67c-2.48,12.09-8.38,21.56-17.7,28.41-9.32,6.85-20.91,10.27-34.74,10.27ZM1258.37,103.99c-10.49,0-18.72,2.95-24.69,8.85-5.97,5.9-9.76,13.66-11.36,23.27h71.24c-1.31-9.91-4.88-17.74-10.71-23.49-5.83-5.75-13.99-8.63-24.48-8.63Z"/>
    <path class="cls-1" d="M1324.65,206.26v-26.66h25.35v26.66h-25.35Z"/>
  </g>
  <g>
    <path class="cls-1" d="M70.25,263.39v-1.8c-.76-9.44,2.58-27.03,19.83-36.31,15.65-8.43,19.34-10.45,19.39-10.47l.28-.15s8.75-4.8,8.75-12.69v-45.59c-8.72,5.17-46.22,27.33-60.46,35-9.15,4.93-8.21,14.99-8.2,15.09l.06,1.15v44.02l20.36,11.75Z"/>
    <path class="cls-1" d="M92.43,260.08l.1.72-.05.28v15.13l26.06,15.05v-56.1c-2.29,1.24-7.44,4.03-17.92,9.68-8.72,4.7-8.27,14.17-8.19,15.24Z"/>
    <path class="cls-1" d="M201.19,157.9c-14.25-7.67-51.74-29.84-60.47-35v46.9c0,7.87,8.66,12.64,8.74,12.69l.28.15s3.74,2.05,19.39,10.47c17.25,9.29,20.58,26.88,19.83,36.31v34.98l20.35-11.75v-79.24l.06-.42c.07-.92.52-10.4-8.2-15.09Z"/>
    <path class="cls-1" d="M166.75,228.19l.06-.42c.07-.92.52-10.4-8.2-15.09-10.38-5.59-15.52-8.37-17.85-9.63v89.19s.01,0,.02,0l25.97-14.99v-49.04Z"/>
    <path class="cls-1" d="M250.69,66.21L140.78,2.76c-3.18-1.84-6.74-2.76-10.29-2.76s-7.11.92-10.29,2.76L10.29,66.21c-6.37,3.68-10.29,10.47-10.29,17.83v126.9c0,7.36,3.92,14.15,10.29,17.83l17.38,10.03v-30.69c-.76-9.44,2.58-27.02,19.83-36.31,15.42-8.31,60.99-35.33,61.45-35.6l.64-.38.68-.29c.22-.1,8.24-3.84,8.24-11.18v-42.36c-5.2-3.59-8.61-9.58-8.61-16.38,0-10.99,8.91-19.9,19.9-19.9s19.9,8.91,19.9,19.9c0,6.95-3.57,13.06-8.96,16.62v8.65c0,7.35,8.01,11.08,8.35,11.23l.68.29.52.33c.46.27,46.02,27.3,61.45,35.6,17.25,9.29,20.58,26.88,19.83,36.31v65.17l19.13-11.04c6.37-3.68,10.29-10.47,10.29-17.83v-126.9c0-7.36-3.92-14.15-10.29-17.83Z"/>
  </g>
</svg>