<?xml version="1.0" encoding="UTF-8"?>
<svg id="Layer_1" data-name="Layer 1" xmlns="http://www.w3.org/2000/svg" viewBox="0 0 1350 430.95">
  <defs>
    <style>
      .cls-1 {
        fill: #0321f9;
      }
    </style>
  </defs>
  <polygon class="cls-1" points="197.23 7.27 249 7.27 170.25 273.4 84.58 273.4 0 7.27 53.59 7.27 121.72 230.38 134.39 230.38 197.23 7.27"/>
  <path class="cls-1" d="M360.63,280.69c-20.66,0-38.77-3.22-54.32-9.66-15.56-6.44-27.65-15.73-36.27-27.89-8.63-12.15-12.94-26.73-12.94-43.74s4.19-30.38,12.58-41.56c8.38-11.18,19.5-19.32,33.36-24.42v-4.37c-10.94-4.37-19.93-11.24-26.98-20.6-7.05-9.35-10.57-21.2-10.57-35.54,0-16.04,4.19-29.47,12.58-40.28,8.38-10.81,19.8-18.96,34.27-24.42,14.46-5.47,30.56-8.2,48.3-8.2s34.14,2.73,48.48,8.2c14.34,5.47,25.76,13.61,34.26,24.42,8.5,10.82,12.76,24.24,12.76,40.28,0,14.34-3.52,26.19-10.57,35.54-7.05,9.36-16.04,16.22-26.97,20.6v4.37c13.85,5.1,24.97,13.31,33.35,24.61,8.39,11.3,12.58,25.1,12.58,41.37s-4.37,31.6-13.12,43.74c-8.75,12.16-20.9,21.45-36.45,27.89-15.56,6.44-33.66,9.66-54.32,9.66ZM360.63,238.04c16.52,0,29.65-3.77,39.37-11.3,9.72-7.53,14.58-18.35,14.58-32.44s-4.8-24.54-14.4-32.08c-9.6-7.53-22.78-11.3-39.55-11.3s-29.59,3.77-39.19,11.3c-9.6,7.54-14.4,18.23-14.4,32.08s4.8,24.91,14.4,32.44c9.6,7.54,22.66,11.3,39.19,11.3ZM360.63,112.28c13.85,0,24.91-2.92,33.17-8.75,8.26-5.83,12.39-14.58,12.39-26.25s-4.14-20.35-12.39-26.06c-8.27-5.71-19.32-8.57-33.17-8.57s-24.85,2.92-32.99,8.75c-8.15,5.83-12.21,14.46-12.21,25.88s4.07,20.41,12.21,26.25c8.14,5.83,19.14,8.75,32.99,8.75Z"/>
  <path class="cls-1" d="M692.31,235.67c-16.53,12.27-36.95,18.41-61.24,18.41-17.5,0-32.81-3.1-45.94-9.3-13.12-6.19-24.06-14.7-32.81-25.52-8.75-10.82-15.25-23.02-19.5-36.64-4.26-13.61-6.38-27.82-6.38-42.65,0-15.56,2.19-30.2,6.56-43.93,4.38-13.73,10.82-25.89,19.32-36.46,8.51-10.57,19.14-18.83,31.9-24.79,12.76-5.95,27.53-8.93,44.3-8.93,15.56,0,29.71,2.68,42.47,8.02,12.76,5.35,23.27,13.31,31.53,23.88,8.26,10.57,13.36,23.76,15.32,39.56h28.06c-2.18-19.69-8.26-36.76-18.22-51.22-9.97-14.46-23.28-25.71-39.93-33.72-16.65-8.03-36.4-12.03-59.24-12.03s-42.17,3.95-58.69,11.84c-16.53,7.91-30.08,18.41-40.65,31.54-10.57,13.12-18.36,27.76-23.34,43.93-4.98,16.17-7.47,32.39-7.47,48.67v6.93c0,15.08,2.42,30.56,7.29,46.49,4.86,15.92,12.57,30.69,23.15,44.3,10.57,13.61,24.31,24.6,41.19,32.99,16.89,8.38,37.25,12.58,61.07,12.58s43.8-4.25,60.7-12.75c16.89-8.51,30.32-20.11,40.28-34.82,9.96-14.7,16.29-31.17,18.96-49.4h-28.06c-3.89,23.09-14.1,40.78-30.63,53.05Z"/>
  <path class="cls-1" d="M971.38,137.6c-4.49-12.03-11.12-22.79-19.87-32.27-8.75-9.48-19.38-17.07-31.9-22.78-12.52-5.72-26.92-8.57-43.2-8.57s-30.32,2.86-42.84,8.57c-12.52,5.71-23.15,13.3-31.9,22.78-8.75,9.47-15.44,20.23-20.06,32.27-4.61,12.03-6.93,24.24-6.93,36.63v5.1c0,12.4,2.25,24.56,6.75,36.46,4.49,11.92,11.05,22.67,19.69,32.26,8.62,9.61,19.19,17.27,31.71,22.97,12.52,5.71,27.04,8.56,43.57,8.56s31.11-2.86,43.75-8.56c12.63-5.7,23.26-13.36,31.9-22.97,8.62-9.6,15.12-20.35,19.5-32.26,4.37-11.9,6.56-24.06,6.56-36.46v-5.1c0-12.4-2.25-24.6-6.75-36.63ZM942.41,215.99c-5.84,11.78-14.28,21.27-25.34,28.43-11.06,7.17-24.61,10.76-40.65,10.76s-29.23-3.59-40.29-10.76c-11.06-7.16-19.5-16.65-25.33-28.43-5.84-11.78-8.75-24.85-8.75-39.19s2.97-27.76,8.93-39.56c5.95-11.79,14.52-21.15,25.71-28.07,11.17-6.93,24.43-10.39,39.74-10.39s28.92,3.46,40.1,10.39c11.17,6.93,19.74,16.29,25.7,28.07,5.96,11.79,8.94,24.97,8.94,39.56s-2.92,27.41-8.75,39.19Z"/>
  <path class="cls-1" d="M1046.68,98.59c-8.2,8.93-13.63,21.15-16.41,36.51v-54.56h-21.87v192.86h27.34v-106.46c0-20.89,5.47-36.76,16.4-47.57,10.94-10.81,26.85-16.22,47.76-16.22h11.3v-24.79h-6.19c-26.5,0-45.94,6.74-58.33,20.23Z"/>
  <path class="cls-1" d="M1296.78,166.94c0-16.04-3.41-31.04-10.21-45.02-6.81-13.98-16.96-25.46-30.44-34.46-13.49-8.98-30.32-13.49-50.5-13.49-15.8,0-29.59,2.86-41.37,8.57-11.8,5.71-21.58,13.3-29.35,22.78-7.78,9.47-13.55,20.18-17.31,32.08-3.78,11.92-5.66,24.07-5.66,36.46v5.1c0,12.64,1.88,24.93,5.66,36.83,3.76,11.92,9.53,22.67,17.31,32.26,7.77,9.61,17.75,17.27,29.9,22.97,12.15,5.71,26.49,8.56,43.02,8.56,15.31,0,28.92-2.55,40.84-7.65,11.9-5.1,21.75-12.33,29.53-21.69,7.77-9.35,12.88-20.47,15.31-33.36h-25.53c-2.42,10.45-8.87,19.5-19.31,27.15-10.46,7.66-24.07,11.49-40.84,11.49-15.8,0-28.86-3.51-39.19-10.57-10.33-7.04-17.99-16.59-22.97-28.62-4.43-10.7-6.78-22.46-7.26-35.18h158.39v-14.22ZM1139.41,160.02c1.18-8.35,3.18-16.17,6.24-23.33,4.98-11.66,12.45-21.02,22.42-28.07,9.96-7.05,22.48-10.57,37.55-10.57s26.31,3.1,35.91,9.29c9.6,6.2,16.89,14.71,21.88,25.53,3.71,8.07,6.04,17.12,6.98,27.15h-130.99Z"/>
  <rect class="cls-1" x="1315.73" y="237.31" width="34.27" height="36.09"/>
</svg>